<?xml version="1.0" encoding="UTF-8"?>
<svg version="1.1" xmlns="http://www.w3.org/2000/svg" width="222" height="168">
<path d="M0 0 C6.04492454 0.30224623 9.74444827 2.9506281 14 7 C22.29999763 16.65474931 27.39868665 28.1294197 26.6875 40.875 C26.61539971 46.84947902 26.61539971 46.84947902 29.25 52 C32.94042948 55.51469474 37.60067351 57.33925498 42.16015625 59.4921875 C50.1967031 63.75918486 53.24523293 71.66984777 56 80 C58.59457742 92.87497852 56.64654538 104.78361872 49.4921875 115.87109375 C47.76324344 118.33778096 45.94250003 120.69777774 44 123 C43.67 123.66 43.34 124.32 43 125 C43.68449219 125.11214844 44.36898437 125.22429687 45.07421875 125.33984375 C48.47738305 126.10771393 51.56743098 127.28413948 54.8125 128.5625 C55.97394531 129.01753906 57.13539063 129.47257813 58.33203125 129.94140625 C59.65267578 130.46541016 59.65267578 130.46541016 61 131 C58.46652709 133.53347291 57.17361476 133.40736703 53.65234375 133.7890625 C52.57146484 133.92699219 51.49058594 134.06492188 50.37695312 134.20703125 C48.11365012 134.48207205 45.84790586 134.73782592 43.58007812 134.97265625 C36.19849561 135.95919537 32.28476818 137.76285226 27.03149414 143.03466797 C24.10440843 145.86642376 20.90974939 147.53489742 17.25 149.25 C16.22084473 149.7462085 16.22084473 149.7462085 15.17089844 150.25244141 C-5.62018839 160.01240736 -29.05203409 161.48276239 -51.625 159.0625 C-52.45209473 158.97718018 -53.27918945 158.89186035 -54.13134766 158.80395508 C-57.46575731 158.44714988 -60.70960136 158.06179501 -63.9921875 157.36328125 C-73.11526168 155.58698176 -81.14713169 160.40442419 -89.20336914 164.24975586 C-91 165 -91 165 -93 165 C-96 159.375 -96 159.375 -96 156 C-94.56570999 155.32645501 -93.12742943 154.66140299 -91.6875 154 C-90.88699219 153.62875 -90.08648437 153.2575 -89.26171875 152.875 C-87 152 -87 152 -84 152 C-84 151.34 -84 150.68 -84 150 C-85.1446875 149.814375 -85.1446875 149.814375 -86.3125 149.625 C-89 149 -89 149 -92 147 C-97.42846506 147.36968042 -102.44363997 150.35920482 -107.29296875 152.6484375 C-112.68169766 155.10610078 -112.68169766 155.10610078 -116 154 C-117.95542188 151.01540871 -118 149.73585209 -118 146 C-113.05 143.69 -108.1 141.38 -103 139 C-104.19625 137.783125 -105.3925 136.56625 -106.625 135.3125 C-112.71454578 128.49955073 -115.6468601 120.38284974 -119 112 C-122.3 113.65 -125.6 115.3 -129 117 C-127.31482096 112.7870524 -125.56523798 109.67684111 -123 106 C-134.80577763 110.29000603 -134.80577763 110.29000603 -146.30078125 115.3359375 C-148 116 -148 116 -151 116 C-151.9618423 113.48045712 -152.91954241 110.95946363 -153.875 108.4375 C-154.14441406 107.73302734 -154.41382813 107.02855469 -154.69140625 106.30273438 C-156.35057587 101.91200501 -157.77345709 97.53106385 -159 93 C-156.47990246 92.53731379 -153.95901 92.07987778 -151.4375 91.625 C-150.75236328 91.49867187 -150.06722656 91.37234375 -149.36132812 91.2421875 C-141.92104545 89.90760765 -134.52247201 89.00299627 -127 88 C-136.9 85.36 -146.8 82.72 -157 80 C-156.01 77.03 -155.02 74.06 -154 71 C-151.03 70.505 -151.03 70.505 -148 70 C-148.350625 69.443125 -148.70125 68.88625 -149.0625 68.3125 C-150.29073571 65.28285192 -149.99216997 64.11824848 -149 61 C-147.75152586 58.28570602 -146.39431175 55.64151547 -145 53 C-137.05710897 58.10430815 -129.64288613 63.8044874 -122.20117188 69.60546875 C-121.30076172 70.30027344 -120.40035156 70.99507813 -119.47265625 71.7109375 C-118.66062744 72.34306152 -117.84859863 72.97518555 -117.01196289 73.62646484 C-115.13071891 75.18794165 -115.13071891 75.18794165 -113 75 C-110.89722487 71.23071014 -110.32314108 67.66000533 -109.66015625 63.4375 C-108.92376571 60.71851955 -107.69161607 59.214989 -106 57 C-106.29241674 54.2366963 -106.29241674 54.2366963 -107 51 C-107.50503722 44.59569821 -107.33492778 38.65374476 -104 33 C-101.3125 30.5 -101.3125 30.5 -99 29 C-96.525 32.96 -96.525 32.96 -94 37 C-93.21625 35.845 -92.4325 34.69 -91.625 33.5 C-90.2890625 31.53125 -90.2890625 31.53125 -89 30 C-88.34 30 -87.68 30 -87 30 C-85.35 32.97 -83.7 35.94 -82 39 C-77.60564327 39 -75.09681911 37.74329528 -71.3125 35.8125 C-65.66710476 33.0529971 -60.03508913 30.87733717 -54 29.125 C-53.30688721 28.92237549 -52.61377441 28.71975098 -51.8996582 28.51098633 C-43.37635392 26.12964109 -35.34499536 25.86974188 -26.5625 25.9375 C-25.44939453 25.94201172 -24.33628906 25.94652344 -23.18945312 25.95117188 C-20.45957899 25.96288807 -17.72981826 25.97929301 -15 26 C-16.17755859 25.23816406 -16.17755859 25.23816406 -17.37890625 24.4609375 C-29.44483986 16.55516014 -29.44483986 16.55516014 -34 12 C-34 10.68 -34 9.36 -34 8 C-27.20271298 5.06480788 -21.82295113 6.58585669 -15 9 C-2.53256515 14.39968902 7.06444072 23.10850174 15 34 C14.37626193 29.3264843 12.43740263 25.45792236 10.3125 21.3125 C9.95671875 20.60714111 9.6009375 19.90178223 9.234375 19.17504883 C6.73172367 14.27009889 4.02461014 9.54334706 1.03125 4.91796875 C0 3 0 3 0 0 Z " fill="#040202" transform="translate(160,2)"/>
<path d="M0 0 C9.67722716 0.21332565 20.57918047 2.31232168 28 9 C28 9.66 28 10.32 28 11 C26.90042969 11.35191406 25.80085938 11.70382813 24.66796875 12.06640625 C9.75048297 16.98537323 -3.27872298 23.37541069 -11.375 37.5 C-16.90607368 48.502027 -17.99614158 60.53299707 -14.375 72.4375 C-10.78125907 81.79881817 -4.7283213 88.83117771 4.421875 93.140625 C12.74273203 95.91424401 20.3899581 93.70822002 28 90 C28.66 89.67 29.32 89.34 30 89 C29.35075719 92.75194003 28.29095637 96.1316451 26.9375 99.6875 C25.48440787 103.25372575 25.48440787 103.25372575 25 107 C26.21236328 106.7834375 26.21236328 106.7834375 27.44921875 106.5625 C28.51785156 106.376875 29.58648437 106.19125 30.6875 106 C31.74324219 105.814375 32.79898438 105.62875 33.88671875 105.4375 C36.64904062 105.04931926 39.21742043 104.91740024 42 105 C31.92155354 116.00044945 11.11337796 119.26321302 -3 120 C-30.09142128 121.10631854 -57.87698606 119.04678644 -78.8125 99.8125 C-88.55674222 89.57929939 -91.49261744 77.6041518 -91.328125 63.91015625 C-90.73560377 56.84927827 -88.95226036 49.92839054 -85 44 C-84.34 44 -83.68 44 -83 44 C-82.96132812 45.2684375 -82.96132812 45.2684375 -82.921875 46.5625 C-82.50349982 54.9300035 -81.71413658 61.18269296 -75.75 67.3125 C-69.49668356 71.14976236 -64.31211444 72.39172042 -57 72 C-57.6290625 71.85304688 -58.258125 71.70609375 -58.90625 71.5546875 C-66.43195305 69.58259062 -71.95296979 66.61834837 -77 60.625 C-78.40457532 56.93798979 -78.19994629 53.9322771 -78 50 C-77.22398438 50.39832031 -76.44796875 50.79664063 -75.6484375 51.20703125 C-67.43738093 55.23417236 -60.0344201 57.45588622 -51 59 C-53.49429867 57.73366375 -56.00702943 56.52649609 -58.5390625 55.3359375 C-79.0231675 45.58386941 -79.0231675 45.58386941 -84 36 C-84.375 33.3125 -84.375 33.3125 -84 31 C-83.01 30.34 -82.02 29.68 -81 29 C-80.51273438 29.64066406 -80.02546875 30.28132813 -79.5234375 30.94140625 C-73.28892615 38.54751009 -66.84269915 42.20128714 -58 46 C-58.61746094 45.48953125 -59.23492187 44.9790625 -59.87109375 44.453125 C-68.01318682 37.46356565 -77.14065582 28.67488495 -80 18 C-80.21316205 13.98544808 -80.17800865 10.01508397 -80 6 C-79.505 6.639375 -79.01 7.27875 -78.5 7.9375 C-77.675 8.948125 -76.85 9.95875 -76 11 C-75.48695312 11.64324219 -74.97390625 12.28648438 -74.4453125 12.94921875 C-69.46938054 18.89684558 -63.8441613 23.41735161 -57.734375 28.109375 C-45.85243856 37.24836703 -35.04649135 46.49422491 -28 60 C-32.74514561 42.39301233 -47.14912625 29.95299591 -61 19 C-59.61876938 14.85630815 -56.80496934 13.78596264 -53.1875 11.75 C-52.55779297 11.37359375 -51.92808594 10.9971875 -51.27929688 10.609375 C-46.66833779 7.97730602 -46.66833779 7.97730602 -43.69921875 8.078125 C-42 9 -42 9 -39.625 12 C-37.26556488 15.18013435 -37.26556488 15.18013435 -33.9375 16.125 C-30.99335594 16.21438937 -30.99335594 16.21438937 -28.6875 14.75 C-26.05917946 10.46681096 -26.17035473 5.9402873 -26 1 C-23.69 1 -21.38 1 -19 1 C-18.49339844 2.04800781 -18.49339844 2.04800781 -17.9765625 3.1171875 C-17.53054687 4.02726562 -17.08453125 4.93734375 -16.625 5.875 C-16.18414062 6.77992187 -15.74328125 7.68484375 -15.2890625 8.6171875 C-14.09497301 11.09534472 -14.09497301 11.09534472 -12 13 C-8.41656024 13.16677282 -8.41656024 13.16677282 -5 13 C-3.25150329 8.6960081 -1.6229639 4.35249409 0 0 Z " fill="#FBCA05" transform="translate(139,35)"/>
<path d="M0 0 C3.81375667 2.47415755 6.40750491 5.86628312 9.1796875 9.4140625 C9.8396875 10.0740625 10.4996875 10.7340625 11.1796875 11.4140625 C11.62699219 10.79917969 12.07429688 10.18429688 12.53515625 9.55078125 C18.9637492 0.95647895 18.9637492 0.95647895 23.1796875 -0.5859375 C28.79873236 -1.12108463 32.38094442 -0.81987306 37.1796875 2.4140625 C43.59487911 8.48418267 46.6490902 15.34263761 47.41796875 24.140625 C47.6789735 34.33354744 45.26355841 42.84907753 38.74609375 50.8203125 C35.3951167 54.22978541 32.34646893 55.26821482 27.6796875 55.8515625 C21.03713157 55.02124301 17.42239308 50.86318855 13.28125 46 C12.1796875 44.4140625 12.1796875 44.4140625 12.1796875 42.4140625 C11.5196875 42.4140625 10.8596875 42.4140625 10.1796875 42.4140625 C9.80263672 43.52201172 9.80263672 43.52201172 9.41796875 44.65234375 C8.08730664 47.62009805 6.66989935 49.325268 4.3671875 51.6015625 C3.70074219 52.27574219 3.03429687 52.94992188 2.34765625 53.64453125 C-2.57853758 57.66537054 -7.57869232 57.97654105 -13.75 57.84765625 C-19.81837406 56.99067213 -23.79236263 53.86068589 -27.63671875 49.22265625 C-34.15740204 39.93657475 -34.86765553 30.44196849 -33.8203125 19.4140625 C-32.11327026 11.43082903 -27.5302063 4.75534988 -20.87109375 0.03125 C-13.71034855 -3.99227285 -7.22624125 -3.475597 0 0 Z " fill="#FBFBFA" transform="translate(162.8203125,65.5859375)"/>
<path d="M0 0 C0.66 0 1.32 0 2 0 C2.0825 1.27875 2.165 2.5575 2.25 3.875 C2.48290756 6.05906126 2.48290756 6.05906126 3 8 C4.71502233 9.44123112 4.71502233 9.44123112 7 10 C9.75 11.5 9.75 11.5 12 13 C12 13.66 12 14.32 12 15 C12.83402344 14.9071875 13.66804688 14.814375 14.52734375 14.71875 C23.80336576 14.12372453 23.80336576 14.12372453 27.48046875 16.81640625 C28.90826419 18.31182042 30.33534974 19.8079127 31.76171875 21.3046875 C33.88440722 23.24298059 33.88440722 23.24298059 36.64453125 23.1328125 C38.51156191 22.83513209 40.37509444 22.51464739 42.234375 22.171875 C46.44773366 21.91002785 49.07611619 23.8051913 52.65234375 25.83984375 C56.40867038 27.69613162 58.8559569 27.55253908 63 27 C63.99 26.505 64.98 26.01 66 25.5 C71.83671036 22.58164482 76.90405926 23.89006029 82.9375 25.5 C92.51078711 28.00672106 100.18074772 26.74238232 109.7421875 24.65625 C113 24 113 24 116 24 C115.67 26.31 115.34 28.62 115 31 C115.80824219 30.855625 116.61648437 30.71125 117.44921875 30.5625 C118.51785156 30.376875 119.58648437 30.19125 120.6875 30 C121.74324219 29.814375 122.79898438 29.62875 123.88671875 29.4375 C126.64904062 29.04931926 129.21742043 28.91740024 132 29 C121.92155354 40.00044945 101.11337796 43.26321302 87 44 C59.90857872 45.10631854 32.12301394 43.04678644 11.1875 23.8125 C4.98644498 17.29972228 0.41367182 9.10078006 0 0 Z " fill="#FB9A02" transform="translate(49,111)"/>
<path d="M0 0 C3.0916909 2.52956528 3.90931332 5.22454612 5 9 C5.99 8.67 6.98 8.34 8 8 C8.33 8.99 8.66 9.98 9 11 C9.99 11 10.98 11 12 11 C12.66 12.98 13.32 14.96 14 17 C11.625 17.125 11.625 17.125 9 17 C8.34 16.34 7.68 15.68 7 15 C6.34 16.32 5.68 17.64 5 19 C3.35 16.69 1.7 14.38 0 12 C-1.02344475 22.68931183 2.73376311 29.32897297 9.1875 37.625 C13.58420063 42.82850259 18.50657895 46.99748654 24 51 C23.01 51.495 23.01 51.495 22 52 C19.51504353 50.91827772 17.1901094 49.78506304 14.8125 48.5 C14.1328418 48.13559814 13.45318359 47.77119629 12.75292969 47.39575195 C7.67800681 44.58062217 3.74439344 41.45492593 0 37 C-0.99185613 35.99192192 -1.98965346 34.98954529 -3 34 C-3.495 34.495 -3.495 34.495 -4 35 C-3.68894478 40.39162379 -2.60245338 43.04167167 1 47 C9.80225921 53.77326387 20.66355951 59.03189082 31 63 C24.50714511 65.16428496 16.49194072 62.06836196 10.41015625 59.4609375 C7.56736594 58.03447197 4.76782217 56.56640485 2 55 C1.45237921 60.36668373 2.170816 63.31758128 5.453125 67.4296875 C12.73866325 74.82561269 23.21129889 75.31623044 33 76 C33 76.33 33 76.66 33 77 C9.48083751 77.86929143 9.48083751 77.86929143 2.14453125 71.3515625 C-2.72934075 66.04934545 -4.27103457 61.4162114 -4.125 54.1875 C-4.10695313 53.02605469 -4.08890625 51.86460938 -4.0703125 50.66796875 C-4.04710937 49.78753906 -4.02390625 48.90710938 -4 48 C-8.67937572 51.98216215 -10.06861507 58.11576102 -11 64 C-11.45767943 70.66107408 -11.23927413 77.3335569 -11 84 C-11.99 83.34 -12.98 82.68 -14 82 C-14.28051758 80.07983398 -14.28051758 80.07983398 -14.14453125 77.74609375 C-14.09876953 76.89080078 -14.05300781 76.03550781 -14.00585938 75.15429688 C-13.94205078 74.25775391 -13.87824219 73.36121094 -13.8125 72.4375 C-13.76802734 71.56802734 -13.72355469 70.69855469 -13.67773438 69.80273438 C-12.82847094 55.74270641 -12.82847094 55.74270641 -9 50 C-10.32 49.67 -11.64 49.34 -13 49 C-12.40790167 46.24689305 -11.80191979 43.49813214 -11.1875 40.75 C-11.02185547 39.97269531 -10.85621094 39.19539063 -10.68554688 38.39453125 C-9.73239541 34.18627762 -8.80305966 31.37344971 -6 28 C-6.29241674 25.2366963 -6.29241674 25.2366963 -7 22 C-7.51217677 15.50516268 -7.1900562 9.79282172 -4 4 C-1.8125 1.5 -1.8125 1.5 0 0 Z " fill="#100A03" transform="translate(60,31)"/>
<path d="M0 0 C9.67722716 0.21332565 20.57918047 2.31232168 28 9 C28 9.66 28 10.32 28 11 C17.04372179 16.48948101 6.72942709 14.66809728 -5 13 C-4.55527344 11.89591797 -4.55527344 11.89591797 -4.1015625 10.76953125 C-3.16603827 8.41745083 -2.25934049 6.05914041 -1.375 3.6875 C-0.92125 2.470625 -0.4675 1.25375 0 0 Z " fill="#F6E291" transform="translate(139,35)"/>
<path d="M0 0 C0 3 0 3 -0.9375 5.3125 C-4.65399718 14.71305168 -3.75796361 25.31844288 0.03515625 34.5078125 C3.64214755 42.27850115 7.81056552 47.68937755 16 51 C18.73572585 51.69907414 18.73572585 51.69907414 21 52 C21 52.33 21 52.66 21 53 C13.53535958 53.68204836 8.05472056 53.57932722 1.97265625 48.91015625 C-4.61728014 42.52900993 -8.18800973 35.15726972 -8.37988281 25.93457031 C-8.37827148 25.21366211 -8.37666016 24.49275391 -8.375 23.75 C-8.37338867 23.00073242 -8.37177734 22.25146484 -8.37011719 21.47949219 C-8.18412226 13.03678145 -5.84588486 6.26344807 0 0 Z " fill="#D0D0D0" transform="translate(137,70)"/>
<path d="M0 0 C2 2 2 2 2 4 C2.66 4 3.32 4 4 4 C4.33 3.34 4.66 2.68 5 2 C5.66 2 6.32 2 7 2 C7 1.34 7 0.68 7 0 C13 2 19 4 25 6 C25 6.66 25 7.32 25 8 C24.09636719 8.12117187 23.19273437 8.24234375 22.26171875 8.3671875 C21.08222656 8.53476563 19.90273437 8.70234375 18.6875 8.875 C17.51574219 9.03742188 16.34398437 9.19984375 15.13671875 9.3671875 C11.85469105 9.82300621 11.85469105 9.82300621 9 12 C7.68 12 6.36 12 5 12 C6.32 12.33 7.64 12.66 9 13 C9 13.66 9 14.32 9 15 C10.65 15 12.3 15 14 15 C13.34 16.32 12.68 17.64 12 19 C11.01 18.67 10.02 18.34 9 18 C9.66 17.67 10.32 17.34 11 17 C5.39 17.66 -0.22 18.32 -6 19 C-5.19440249 14.16641496 -4.21827093 10.59975772 -2.4375 6.125 C-1.75494141 4.39636719 -1.75494141 4.39636719 -1.05859375 2.6328125 C-0.70925781 1.76398438 -0.35992187 0.89515625 0 0 Z " fill="#110401" transform="translate(169,124)"/>
<path d="M0 0 C0.99 1.0209375 0.99 1.0209375 2 2.0625 C2.99653434 3.04519358 3.99693248 4.02397597 5 5 C5.5465625 5.54269531 6.093125 6.08539063 6.65625 6.64453125 C12.42092157 12.05501749 18.9838519 15.4812306 26 19 C23 20 23 20 20 19 C20.66 20.98 21.32 22.96 22 25 C13.85659932 21.9281122 3.36817785 16.7932659 -1.171875 8.984375 C-2.20964481 6.49764358 -2.28100533 4.66955061 -2 2 C-1.34 1.34 -0.68 0.68 0 0 Z " fill="#F2C612" transform="translate(57,64)"/>
<path d="M0 0 C2.15913403 1.19951891 3.12379744 2.45877474 4.47265625 4.51953125 C4.900625 5.16019531 5.32859375 5.80085938 5.76953125 6.4609375 C6.0840625 6.95464844 6.39859375 7.44835938 6.72265625 7.95703125 C2.61627381 10.09383659 -1.4575945 11.89928918 -5.83984375 13.39453125 C-7.48146484 13.98041016 -7.48146484 13.98041016 -9.15625 14.578125 C-12.27734375 14.95703125 -12.27734375 14.95703125 -15.1796875 13.0546875 C-15.87191406 12.36246094 -16.56414062 11.67023437 -17.27734375 10.95703125 C-15.89611313 6.8133394 -13.08231309 5.74299389 -9.46484375 3.70703125 C-8.83513672 3.330625 -8.20542969 2.95421875 -7.55664062 2.56640625 C-2.96278158 -0.05590154 -2.96278158 -0.05590154 0 0 Z " fill="#F7E596" transform="translate(95.27734375,43.04296875)"/>
<path d="M0 0 C1.875 0.1875 1.875 0.1875 4 1 C5.25 3.5625 5.25 3.5625 6 6 C5.01 6.99 4.02 7.98 3 9 C3.99 9.33 4.98 9.66 6 10 C6.36923077 15.41538462 6.36923077 15.41538462 4.5 18.375 C3.7575 19.179375 3.7575 19.179375 3 20 C0.625 19.75 0.625 19.75 -2 19 C-4.81819769 14.70514393 -4.68809042 9.95265084 -4 5 C-2 1.875 -2 1.875 0 0 Z " fill="#070707" transform="translate(163,84)"/>
<path d="M0 0 C9.66117345 7.8866722 17.77609981 17.05520319 22 29 C22.125 31.8125 22.125 31.8125 22 34 C20.80932328 32.21398492 19.64039041 30.41266929 18.51953125 28.58203125 C13.03128602 19.67776152 7.09605152 12.60902165 -1 6 C-0.67 5.34 -0.34 4.68 0 4 C0.66 4.33 1.32 4.66 2 5 C2 4.34 2 3.68 2 3 C1.34 3 0.68 3 0 3 C0 2.01 0 1.02 0 0 Z " fill="#271900" transform="translate(90,64)"/>
<path d="M0 0 C0.72703125 0.43570313 1.4540625 0.87140625 2.203125 1.3203125 C10.85464441 6.444674 19.60343206 11.36756993 29 15 C22.50714511 17.16428496 14.49194072 14.06836196 8.41015625 11.4609375 C5.56736594 10.03447197 2.76782217 8.56640485 0 7 C-0.66 7.99 -1.32 8.98 -2 10 C-2 8.35 -2 6.7 -2 5 C-1.34 5 -0.68 5 0 5 C0 3.35 0 1.7 0 0 Z " fill="#211500" transform="translate(62,79)"/>
<path d="M0 0 C6 2 12 4 18 6 C18 6.66 18 7.32 18 8 C7.605 9.485 7.605 9.485 -3 11 C-1 2 -1 2 0 0 Z " fill="#D05931" transform="translate(176,124)"/>
<path d="M0 0 C6.06239359 1.63848475 11.10470024 3.00646599 16 7 C16 7.66 16 8.32 16 9 C10.20377279 11.32637691 6.13909603 12.43680971 0 11 C0 7.37 0 3.74 0 0 Z " fill="#EDDF9D" transform="translate(151,37)"/>
<path d="M0 0 C2.31 0 4.62 0 7 0 C7.67354499 1.43429001 8.33859701 2.87257057 9 4.3125 C9.556875 5.51326172 9.556875 5.51326172 10.125 6.73828125 C11 9 11 9 11 12 C5.06 12.495 5.06 12.495 -1 13 C-0.67 8.71 -0.34 4.42 0 0 Z " fill="#F2E08E" transform="translate(113,36)"/>
<path d="M0 0 C0.99 0 1.98 0 3 0 C2.67 2.31 2.34 4.62 2 7 C2.80824219 6.855625 3.61648437 6.71125 4.44921875 6.5625 C5.51785156 6.376875 6.58648437 6.19125 7.6875 6 C9.27111328 5.7215625 9.27111328 5.7215625 10.88671875 5.4375 C13.64904062 5.04931926 16.21742043 4.91740024 19 5 C13.66502424 10.92199574 5.60281627 13.45127817 -2 15 C-1.38487182 9.99109914 -0.7282448 4.99367864 0 0 Z " fill="#EA9715" transform="translate(162,135)"/>
<path d="M0 0 C0.85722656 0.40992187 1.71445312 0.81984375 2.59765625 1.2421875 C11.07265765 5.25219851 11.07265765 5.25219851 20 8 C15.47907032 9.45606519 12.48351204 8.27032841 8 7 C7.67 8.98 7.34 10.96 7 13 C7.66 13 8.32 13 9 13 C9.33 13.99 9.66 14.98 10 16 C10.99 16.33 11.98 16.66 13 17 C13 17.66 13 18.32 13 19 C7.99808723 17.28505848 4.51220537 14.87722046 1.1875 10.75 C-0.44287306 6.97439922 -0.20812033 4.09303313 0 0 Z " fill="#EBC31B" transform="translate(61,85)"/>
<path d="M0 0 C0.99 0.33 1.98 0.66 3 1 C3.625 3.3125 3.625 3.3125 4 6 C3.01 7.485 3.01 7.485 2 9 C2.99 9 3.98 9 5 9 C4.5020163 12.73487777 4.12508244 14.81237635 2 18 C-1.875 16.25 -1.875 16.25 -3 14 C-3.55564585 8.561082 -3.46467618 4.47520673 0 0 Z " fill="#0A0A0A" transform="translate(199,85)"/>
<path d="M0 0 C0.33 0.66 0.66 1.32 1 2 C1.66 2 2.32 2 3 2 C3 2.66 3 3.32 3 4 C4.051875 3.566875 4.051875 3.566875 5.125 3.125 C8 3 8 3 9.45703125 4.1640625 C10.46694919 5.2459271 11.46792699 6.33618982 12.4609375 7.43359375 C15.91739873 10.95146419 20.22706691 12.29809808 25 13 C25 13.33 25 13.66 25 14 C17.3159193 14.70209874 12.0773477 14.45005975 5.84765625 9.65625 C3.5523222 7.59869897 1.6315816 5.62471822 0 3 C0 2.01 0 1.02 0 0 Z " fill="#CACACA" transform="translate(133,109)"/>
<path d="M0 0 C3.60915288 2.78420365 6.78016054 5.78016054 10 9 C12.64011551 11.36428254 15.31440491 13.68758934 18 16 C17.34 16.33 16.68 16.66 16 17 C13.51511121 15.91830718 11.19021026 14.78472363 8.8125 13.5 C8.13501709 13.13777344 7.45753418 12.77554688 6.75952148 12.40234375 C1.64364149 9.57026166 -2.18043955 6.47168053 -6 2 C-5.01 1.67 -4.02 1.34 -3 1 C-2.67 1.99 -2.34 2.98 -2 4 C-1.34 4 -0.68 4 0 4 C0 2.68 0 1.36 0 0 Z " fill="#221400" transform="translate(66,66)"/>
<path d="M0 0 C0.495 0.639375 0.99 1.27875 1.5 1.9375 C5.76033246 7.15640726 10.18104188 12.28612819 15 17 C12.01644824 17.24862931 10.35134151 17.18991433 7.6875 15.75 C6 14 6 14 6 10 C5.01 10.495 5.01 10.495 4 11 C4.74359673 16.55053286 4.74359673 16.55053286 6 22 C1.40655786 16.64098417 -0.28074763 12.77401711 -0.125 5.6875 C-0.10695312 4.61886719 -0.08890625 3.55023438 -0.0703125 2.44921875 C-0.04710937 1.64097656 -0.02390625 0.83273438 0 0 Z " fill="#F1C817" transform="translate(59,41)"/>
<path d="M0 0 C0.66 0 1.32 0 2 0 C2.680625 0.928125 3.36125 1.85625 4.0625 2.8125 C7.21690678 6.83151828 11.18608523 7.80438718 16 9 C12.24543433 11.50304378 10.45254066 11.45280074 6 11 C2.09387835 8.93638856 -0.48603365 7.23910579 -2 3 C-1.34 2.01 -0.68 1.02 0 0 Z " fill="#D2D2D3" transform="translate(181,110)"/>
<path d="M0 0 C3.96 0 7.92 0 12 0 C12 0.66 12 1.32 12 2 C15.63 2 19.26 2 23 2 C23 2.66 23 3.32 23 4 C30.92 4 38.84 4 47 4 C47 4.33 47 4.66 47 5 C11.59253945 5.79626973 11.59253945 5.79626973 0 0 Z " fill="#C88218" transform="translate(89,150)"/>
<path d="M0 0 C0.66 0 1.32 0 2 0 C2.0825 1.27875 2.165 2.5575 2.25 3.875 C2.46191288 6.06368189 2.46191288 6.06368189 3 8 C4.93383287 9.30065921 4.93383287 9.30065921 7 10 C7.75 12.125 7.75 12.125 8 14 C8.99 14 9.98 14 11 14 C11 16.64 11 19.28 11 22 C5.26655441 17.08561806 1.27760393 10.42895962 0.1875 2.875 C0.125625 1.92625 0.06375 0.9775 0 0 Z " fill="#EA9F15" transform="translate(49,111)"/>
<path d="M0 0 C2.64752004 2.57784846 4.94432065 4.91648098 7 8 C5.35 8.66 3.7 9.32 2 10 C2.66 10.33 3.32 10.66 4 11 C4.625 13.0625 4.625 13.0625 5 15 C-0.74418605 10.76744186 -0.74418605 10.76744186 -2 7 C-2.25 4.375 -2.25 4.375 -2 2 C-1.34 1.34 -0.68 0.68 0 0 Z " fill="#E6C21D" transform="translate(57,64)"/>
<path d="M0 0 C0.928125 0.4021875 0.928125 0.4021875 1.875 0.8125 C9.90979019 3.86572027 17.4007667 5.52589778 26 6 C26 6.33 26 6.66 26 7 C22.99943916 7.08166849 20.0011461 7.14081551 17 7.1875 C15.74123047 7.22520508 15.74123047 7.22520508 14.45703125 7.26367188 C8.59597871 7.33182365 4.36833894 6.36728835 -1 4 C-0.67 2.68 -0.34 1.36 0 0 Z " fill="#2D1B00" transform="translate(67,101)"/>
<path d="M0 0 C1.17539996 0.92652701 2.34010577 1.86663387 3.5 2.8125 C4.1496875 3.33457031 4.799375 3.85664062 5.46875 4.39453125 C7 6 7 6 7 9 C7.66 9 8.32 9 9 9 C9 9.66 9 10.32 9 11 C2.61479646 10.84036991 -0.66008365 7.21875117 -5 3 C-4.01 3 -3.02 3 -2 3 C-1.34 2.67 -0.68 2.34 0 2 C0 1.34 0 0.68 0 0 Z " fill="#120A00" transform="translate(83,58)"/>
<path d="M0 0 C4.29 0.33 8.58 0.66 13 1 C13 1.66 13 2.32 13 3 C11.71086513 3.67154933 10.41859796 4.33708859 9.125 5 C8.40570313 5.37125 7.68640625 5.7425 6.9453125 6.125 C5 7 5 7 3 7 C3 6.34 3 5.68 3 5 C2.34 4.67 1.68 4.34 1 4 C0.67 2.68 0.34 1.36 0 0 Z " fill="#F8CB0E" transform="translate(140,48)"/>
<path d="M0 0 C0.99 0.33 1.98 0.66 3 1 C3 2.32 3 3.64 3 5 C2.34 5 1.68 5 1 5 C1 5.66 1 6.32 1 7 C1.66 7 2.32 7 3 7 C3 7.66 3 8.32 3 9 C3.99 9.33 4.98 9.66 6 10 C5.01 10.495 5.01 10.495 4 11 C2.72390677 10.09066991 1.45434447 9.17217147 0.1875 8.25 C-0.52019531 7.73953125 -1.22789063 7.2290625 -1.95703125 6.703125 C-4.02977691 4.97517642 -5.47375854 3.21473524 -7 1 C-4.03 1.495 -4.03 1.495 -1 2 C-0.67 1.34 -0.34 0.68 0 0 Z " fill="#EC9614" transform="translate(67,132)"/>
<path d="M0 0 C1.65 0 3.3 0 5 0 C4.01 0.495 4.01 0.495 3 1 C3.66 2.32 4.32 3.64 5 5 C4.34 5 3.68 5 3 5 C2.67 5.99 2.34 6.98 2 8 C1.34 8 0.68 8 0 8 C0 8.66 0 9.32 0 10 C-0.99 10 -1.98 10 -3 10 C-2.01 6.7 -1.02 3.4 0 0 Z " fill="#E4D699" transform="translate(139,35)"/>
<path d="M0 0 C0 0.66 0 1.32 0 2 C-0.93972656 2.27263672 -0.93972656 2.27263672 -1.8984375 2.55078125 C-2.71570313 2.80214844 -3.53296875 3.05351563 -4.375 3.3125 C-5.59316406 3.67794922 -5.59316406 3.67794922 -6.8359375 4.05078125 C-9.33184629 4.91368185 -9.33184629 4.91368185 -11 8 C-12.32 7.34 -13.64 6.68 -15 6 C-5.32446809 -2.25265957 -5.32446809 -2.25265957 0 0 Z " fill="#E8DBA0" transform="translate(97,44)"/>
<path d="M0 0 C0.680625 0.70125 1.36125 1.4025 2.0625 2.125 C4.72871619 4.79883395 7.5596584 7.23971294 10.44921875 9.66796875 C11.68048318 10.72555357 12.85228537 11.85228537 14 13 C10.71303767 13.79953138 9.28976808 14.09658936 6 13 C5.31974363 11.00458132 4.65509503 9.00382009 4 7 C2.6949419 5.31110128 1.36639342 3.6396721 0 2 C0 1.34 0 0.68 0 0 Z " fill="#EBC51E" transform="translate(127,115)"/>
<path d="M0 0 C4.72065967 1.54269924 9.41664092 3.07794619 14 5 C10.09366863 6.30211046 7.80461827 5.47812346 3.8125 4.5625 C2.54019531 4.27503906 1.26789063 3.98757812 -0.04296875 3.69140625 C-1.01878906 3.46324219 -1.99460937 3.23507813 -3 3 C-2.01 2.01 -1.02 1.02 0 0 Z " fill="#342100" transform="translate(77,89)"/>
<path d="M0 0 C1.45903258 0.30921884 2.91720722 0.62248799 4.375 0.9375 C5.18710938 1.11152344 5.99921875 1.28554687 6.8359375 1.46484375 C9 2 9 2 11 3 C10.67 3.99 10.34 4.98 10 6 C3.52443609 5.38909774 3.52443609 5.38909774 1.0625 3.5625 C0 2 0 2 0 0 Z " fill="#0D0800" transform="translate(66,85)"/>
<path d="M0 0 C0.66 0 1.32 0 2 0 C2.04898438 0.86882812 2.09796875 1.73765625 2.1484375 2.6328125 C2.22320312 3.78523438 2.29796875 4.93765625 2.375 6.125 C2.47941406 7.83042969 2.47941406 7.83042969 2.5859375 9.5703125 C2.99443876 12.95393616 3.80967569 15.81612441 5 19 C4.34 19.33 3.68 19.66 3 20 C0.85663839 16.5233662 0.78722374 13.78770805 0.875 9.75 C0.89304688 8.67234375 0.91109375 7.5946875 0.9296875 6.484375 C0.95289063 5.66453125 0.97609375 4.8446875 1 4 C0.34 4 -0.32 4 -1 4 C-1 4.99 -1 5.98 -1 7 C-1.66 6.67 -2.32 6.34 -3 6 C-2.01 4.02 -1.02 2.04 0 0 Z " fill="#CAAA21" transform="translate(54,79)"/>
<path d="M0 0 C-0.969375 0.433125 -1.93875 0.86625 -2.9375 1.3125 C-6.27731765 2.7014861 -6.27731765 2.7014861 -7 6 C-6.34 6.33 -5.68 6.66 -5 7 C-5.66 7.66 -6.32 8.32 -7 9 C-8.70884005 7.37660195 -10.37446717 5.70680947 -12 4 C-12 3.34 -12 2.68 -12 2 C-10.75579353 1.4654744 -9.50429064 0.94791389 -8.25 0.4375 C-7.55390625 0.14746094 -6.8578125 -0.14257812 -6.140625 -0.44140625 C-3.69987216 -1.07831803 -2.3596345 -0.80248831 0 0 Z " fill="#EFC720" transform="translate(96,55)"/>
<path d="M0 0 C1.65 0.33 3.3 0.66 5 1 C5 2.32 5 3.64 5 5 C2.36 5 -0.28 5 -3 5 C-3.66 3.68 -4.32 2.36 -5 1 C-2.525 1.495 -2.525 1.495 0 2 C0 1.34 0 0.68 0 0 Z " fill="#F4E49E" transform="translate(158,42)"/>
<path d="M0 0 C2.475 0.495 2.475 0.495 5 1 C5.33 1.99 5.66 2.98 6 4 C5.67 4.66 5.34 5.32 5 6 C4.34 6 3.68 6 3 6 C2.67 6.99 2.34 7.98 2 9 C1.34 9 0.68 9 0 9 C0 6.03 0 3.06 0 0 Z " fill="#030201" transform="translate(57,78)"/>
<path d="M0 0 C4.94515667 2.62711448 8.87775489 6.26645294 13 10 C12.34 10.66 11.68 11.32 11 12 C10.67 11.01 10.34 10.02 10 9 C9.01 9 8.02 9 7 9 C7 8.34 7 7.68 7 7 C6.01 7.33 5.02 7.66 4 8 C4 7.34 4 6.68 4 6 C3.34 5.67 2.68 5.34 2 5 C2 4.01 2 3.02 2 2 C1.34 2 0.68 2 0 2 C0 1.34 0 0.68 0 0 Z " fill="#E7C21C" transform="translate(85,67)"/>
<path d="M0 0 C2.25245881 2.68841859 3.88213958 4.64641875 5 8 C4.01 8 3.02 8 2 8 C2 10.31 2 12.62 2 15 C-0.35119399 11.47320901 -0.21443452 9.97120515 -0.125 5.8125 C-0.10695312 4.72582031 -0.08890625 3.63914063 -0.0703125 2.51953125 C-0.04710937 1.68808594 -0.02390625 0.85664062 0 0 Z " fill="#E4C02E" transform="translate(59,41)"/>
<path d="M0 0 C3.87302138 1.14430177 7.00263439 2.23320098 10 5 C10 5.66 10 6.32 10 7 C7 7 7 7 5.5 5.5625 C5.005 5.046875 4.51 4.53125 4 4 C3.01 3.67 2.02 3.34 1 3 C1 3.66 1 4.32 1 5 C0.01 5.33 -0.98 5.66 -2 6 C-2 4.68 -2 3.36 -2 2 C-1.34 2 -0.68 2 0 2 C0 1.34 0 0.68 0 0 Z " fill="#E2D59D" transform="translate(157,39)"/>
<path d="M0 0 C0.33 0.66 0.66 1.32 1 2 C4.02934491 2.65772428 4.02934491 2.65772428 7 3 C7 3.66 7 4.32 7 5 C6.34 5.66 5.68 6.32 5 7 C5 7.33 5 7.66 5 8 C3.35 8 1.7 8 0 8 C0 5.36 0 2.72 0 0 Z " fill="#F8E8A4" transform="translate(114,37)"/>
<path d="M0 0 C1.39195915 4.17587745 -0.17676781 6.13474776 -2 10 C-2.33 10 -2.66 10 -3 10 C-3 8.35 -3 6.7 -3 5 C-5.64 5.33 -8.28 5.66 -11 6 C-7.78984138 3.85989425 -4.54209032 2.5086681 -1 1 C-0.67 0.67 -0.34 0.34 0 0 Z " fill="#D3B329" transform="translate(168,124)"/>
<path d="M0 0 C2.475 0.99 2.475 0.99 5 2 C5 4.31 5 6.62 5 9 C0.125 5.375 0.125 5.375 -1 2 C-0.67 1.34 -0.34 0.68 0 0 Z " fill="#F4C912" transform="translate(66,61)"/>
<path d="M0 0 C-2.54456151 2.96865509 -5.48994665 4.3619751 -9 6 C-9 4.68 -9 3.36 -9 2 C-9.99 1.67 -10.98 1.34 -12 1 C-7.95858806 0.36605303 -4.0934693 -0.12404452 0 0 Z " fill="#C3841D" transform="translate(181,140)"/>
<path d="M0 0 C0.99 0.495 0.99 0.495 2 1 C2.33 1.99 2.66 2.98 3 4 C3.66 4.33 4.32 4.66 5 5 C5.73075648 7.3140622 6.40138258 9.64828869 7 12 C5.68 11.34 4.36 10.68 3 10 C3 9.01 3 8.02 3 7 C2.01 7 1.02 7 0 7 C0 4.69 0 2.38 0 0 Z " fill="#070201" transform="translate(57,88)"/>
<path d="M0 0 C2.31 0 4.62 0 7 0 C7.33 1.32 7.66 2.64 8 4 C5.03 3.505 5.03 3.505 2 3 C1.67 4.65 1.34 6.3 1 8 C0.67 8 0.34 8 0 8 C0 5.36 0 2.72 0 0 Z " fill="#D7CB95" transform="translate(113,36)"/>
<path d="M0 0 C5.445 1.485 5.445 1.485 11 3 C7.32653229 5.44897847 5.33643601 5.31537716 1 5 C0.34 4.34 -0.32 3.68 -1 3 C-0.34 3 0.32 3 1 3 C0.67 2.01 0.34 1.02 0 0 Z " fill="#BCBCC0" transform="translate(186,116)"/>
<path d="M0 0 C1.98 0 3.96 0 6 0 C6.66 2.31 7.32 4.62 8 7 C4.2047869 5.50902342 2.38957269 3.24299151 0 0 Z " fill="#0E0500" transform="translate(95,74)"/>
<path d="M0 0 C0.66 0.66 1.32 1.32 2 2 C1.57347992 5.83868076 -0.45335584 9.5032393 -2 13 C-2.66 13 -3.32 13 -4 13 C-3.52140759 11.39566191 -3.04210442 9.79153584 -2.5625 8.1875 C-2.29566406 7.29417969 -2.02882812 6.40085938 -1.75390625 5.48046875 C-1.19612127 3.64526945 -0.60655425 1.81966274 0 0 Z " fill="#1A0D01" transform="translate(169,124)"/>
<path d="M0 0 C0.9075 0.309375 1.815 0.61875 2.75 0.9375 C5.13817205 1.71824855 7.56246334 2.39061584 10 3 C5.545 4.485 5.545 4.485 1 6 C0 2 0 2 0 0 Z " fill="#F9E584" transform="translate(82,52)"/>
<path d="M0 0 C0.99 0.33 1.98 0.66 3 1 C0.875 3.5625 0.875 3.5625 -2 6 C-5.3125 5.8125 -5.3125 5.8125 -8 5 C-8 4.67 -8 4.34 -8 4 C-6.865625 3.71125 -5.73125 3.4225 -4.5625 3.125 C-3.386875 2.75375 -2.21125 2.3825 -1 2 C-0.67 1.34 -0.34 0.68 0 0 Z " fill="#1B0E02" transform="translate(110,46)"/>
<path d="M0 0 C1 2 2 4 3 6 C2.01 6.33 1.02 6.66 0 7 C-0.99 6.01 -1.98 5.02 -3 4 C-2.67 3.01 -2.34 2.02 -2 1 C-1.34 0.67 -0.68 0.34 0 0 Z " fill="#E7D69F" transform="translate(81,50)"/>
<path d="M0 0 C2.64 0.66 5.28 1.32 8 2 C8 2.66 8 3.32 8 4 C5.69 4 3.38 4 1 4 C0.67 2.68 0.34 1.36 0 0 Z " fill="#B75E41" transform="translate(186,128)"/>
<path d="M0 0 C0 3.86695678 -1.41909971 6.5088452 -3 10 C-3.66 8.68 -4.32 7.36 -5 6 C-3.35 4.02 -1.7 2.04 0 0 Z " fill="#C8C9CD" transform="translate(137,70)"/>
<path d="M0 0 C0 0.99 0 1.98 0 3 C-1.75 4.75 -1.75 4.75 -4 6 C-5.32 5.67 -6.64 5.34 -8 5 C-4.04 2.525 -4.04 2.525 0 0 Z " fill="#231100" transform="translate(150,51)"/>
<path d="M0 0 C0 0.66 0 1.32 0 2 C-2.97 3.32 -5.94 4.64 -9 6 C-8.67 5.01 -8.34 4.02 -8 3 C-7.34 3 -6.68 3 -6 3 C-6 2.34 -6 1.68 -6 1 C-4 0 -4 0 0 0 Z " fill="#E1C424" transform="translate(153,49)"/>
<path d="M0 0 C3.08089673 2.77280706 4.68775452 5.06326356 6 9 C5.34 9 4.68 9 4 9 C4 8.34 4 7.68 4 7 C3.01 6.67 2.02 6.34 1 6 C0.67 4.02 0.34 2.04 0 0 Z " fill="#E7BE1D" transform="translate(105,87)"/>
<path d="M0 0 C2.88437779 1.29299694 4.87219421 2.65941363 7 5 C4.69 5 2.38 5 0 5 C0 3.35 0 1.7 0 0 Z " fill="#EDC11C" transform="translate(76,60)"/>
<path d="M0 0 C1.62463842 -0.05395478 3.24978541 -0.09277195 4.875 -0.125 C5.77992187 -0.14820313 6.68484375 -0.17140625 7.6171875 -0.1953125 C10 0 10 0 12 2 C7.31034294 3.11658501 4.46236469 2.80619523 0 1 C0 0.67 0 0.34 0 0 Z " fill="#E8981E" transform="translate(81,147)"/>
<path d="M0 0 C2 1.8125 2 1.8125 4 4 C4 4.99 4 5.98 4 7 C2.0625 6.625 2.0625 6.625 0 6 C-0.33 5.34 -0.66 4.68 -1 4 C-0.34 4 0.32 4 1 4 C0.67 2.68 0.34 1.36 0 0 Z " fill="#1F1100" transform="translate(102,77)"/>
<path d="M0 0 C1.98 0.66 3.96 1.32 6 2 C5.67 2.99 5.34 3.98 5 5 C5 4.34 5 3.68 5 3 C3.35 3.33 1.7 3.66 0 4 C0 2.68 0 1.36 0 0 Z " fill="#EE5A25" transform="translate(177,126)"/>
<path d="M0 0 C0.66 0.33 1.32 0.66 2 1 C1.8125 2.875 1.8125 2.875 1 5 C-1.5625 6.25 -1.5625 6.25 -4 7 C-2.68 4.69 -1.36 2.38 0 0 Z " fill="#1B0A00" transform="translate(131,66)"/>
</svg>
