<?xml version="1.0" encoding="UTF-8"?>
<svg version="1.1" xmlns="http://www.w3.org/2000/svg" width="2357" height="1491">
<path d="M0 0 C1.69981018 -0.00149551 1.69981018 -0.00149551 3.43395996 -0.00302124 C25.22879654 -0.00084247 47.03703365 0.43855499 68.75 2.4375 C69.44312286 2.50063385 70.13624573 2.5637677 70.85037231 2.6288147 C153.61852993 10.23846845 235.35966752 30.04412836 400.5 104.1875 C401.52158203 104.76081055 402.54316406 105.33412109 403.59570312 105.92480469 C418.43662565 114.2689004 432.8678306 123.08012476 447.02587891 132.53613281 C449.23397949 134.00994299 451.44876653 135.47267395 453.66796875 136.9296875 C474.20134434 150.44385243 493.74755556 165.1414758 512.73535156 180.74316406 C514.32406222 182.0434978 515.92313025 183.33115247 517.5234375 184.6171875 C523.47576946 189.40975277 529.13470951 194.44334101 534.734375 199.63671875 C536.94055947 201.67151883 539.16632261 203.66396238 541.4375 205.625 C551.4507121 214.36122352 560.96984714 223.5548729 570.375 232.9375 C570.87291046 233.43282227 571.37082092 233.92814453 571.88381958 234.43847656 C577.083441 239.61678586 582.19028988 244.83263617 586.96630859 250.40869141 C589.35611982 253.18044636 591.87187455 255.83100986 594.375 258.5 C598.78226211 263.24249316 602.99064391 268.08799655 607.04296875 273.140625 C608.89945546 275.44278658 610.77495624 277.71932341 612.67578125 279.984375 C620.84264505 289.74077811 628.51740567 299.77539864 635.97265625 310.08447266 C637.3543169 311.9869063 638.75029884 313.87720345 640.15625 315.76171875 C640.8884375 316.74785156 641.620625 317.73398437 642.375 318.75 C643.29925781 319.98943359 643.29925781 319.98943359 644.2421875 321.25390625 C645.5 323.1875 645.5 323.1875 645.5 325.1875 C646.48355469 325.33445312 647.46710937 325.48140625 648.48046875 325.6328125 C673.71650054 329.61956202 698.02474827 338.07796473 720.5 350.1875 C721.15274902 350.53393555 721.80549805 350.88037109 722.47802734 351.23730469 C747.54963216 364.60149101 769.02524144 382.53996389 789.0625 402.5625 C789.94357422 403.43132812 790.82464844 404.30015625 791.73242188 405.1953125 C797.75923704 411.20878416 803.2269685 417.50669418 808.5 424.1875 C808.98782959 424.79577637 809.47565918 425.40405273 809.97827148 426.03076172 C816.67218899 434.40707942 822.73698141 443.15052116 828.5 452.1875 C828.86947754 452.76661133 829.23895508 453.34572266 829.61962891 453.94238281 C836.98999878 465.61185932 843.28105429 477.87661371 849.5 490.1875 C849.90750488 490.99171387 850.31500977 491.79592773 850.73486328 492.62451172 C874.36729324 539.67755729 888.07427779 592.04125694 893.75 644.25 C893.87489807 645.39486877 893.87489807 645.39486877 894.00231934 646.56286621 C895.82404302 663.52257334 896.71271893 680.44383389 896.6875 697.5 C896.68689575 698.27097015 896.6862915 699.04194031 896.68566895 699.83627319 C896.47184225 801.65558963 864.35376988 902.76878595 798.5 981.1875 C797.69175781 982.18136719 796.88351563 983.17523437 796.05078125 984.19921875 C789.42569398 992.24240922 782.21984249 999.68182395 774.875 1007.0625 C774.37779449 1007.5648819 773.88058899 1008.06726379 773.36831665 1008.58486938 C771.94671862 1010.01814656 770.51649762 1011.44285533 769.0859375 1012.8671875 C768.2511084 1013.69976074 767.4162793 1014.53233398 766.55615234 1015.39013672 C764.5 1017.1875 764.5 1017.1875 762.5 1017.1875 C762.26925781 1017.950625 762.03851562 1018.71375 761.80078125 1019.5 C760.03054478 1024.51832801 757.84670765 1029.32631793 755.6875 1034.1875 C751.91556182 1042.75545962 748.47606871 1051.31382246 745.5 1060.1875 C757.77572611 1064.627371 770.05667312 1069.05060295 782.375 1073.37109375 C783.35187271 1073.71374771 784.32874542 1074.05640167 785.33522034 1074.40943909 C786.3261821 1074.75699753 787.31714386 1075.10455597 788.33813477 1075.46264648 C841.7620863 1094.20001316 895.29332969 1113.24436025 947.5 1135.1875 C947.17 1135.8475 946.84 1136.5075 946.5 1137.1875 C944.66334534 1137.70671082 944.66334534 1137.70671082 942.19360352 1138.09448242 C940.7785981 1138.32284286 940.7785981 1138.32284286 939.33500671 1138.55581665 C937.74798698 1138.79695694 937.74798698 1138.79695694 936.12890625 1139.04296875 C934.99914871 1139.22113129 933.86939117 1139.39929382 932.70539856 1139.58285522 C929.50850912 1140.08351075 926.31037375 1140.57504931 923.11138153 1141.06206131 C921.05429475 1141.37625324 918.99780988 1141.69412912 916.94146729 1142.01315308 C888.79180451 1146.37658886 860.58060757 1150.30618581 832.37112808 1154.25993347 C777.30951338 1161.92160451 777.30951338 1161.92160451 722.5 1171.1875 C721.58492676 1171.35683044 720.66985352 1171.52616089 719.72705078 1171.70062256 C709.46298061 1173.6097737 699.22669169 1175.6187867 689.02165222 1177.82250977 C684.19193471 1178.85828027 679.35769325 1179.74472326 674.48828125 1180.57421875 C657.55950166 1183.72195864 648.49620758 1189.80265749 637.47143555 1202.95849609 C634.43997032 1206.38602273 631.00319303 1209.25845996 627.5 1212.1875 C625.89231627 1213.64195517 624.28760285 1215.09970895 622.6875 1216.5625 C618.42254692 1220.40678245 614.0513915 1224.08276905 609.5859375 1227.69140625 C607.35060183 1229.49948156 605.12811795 1231.31862763 602.9140625 1233.15234375 C592.72551998 1241.56170847 582.22820897 1249.48057518 571.5 1257.1875 C570.67951172 1257.77708496 569.85902344 1258.36666992 569.01367188 1258.97412109 C557.11082456 1267.4917763 544.97975888 1275.54209445 532.5 1283.1875 C531.57654785 1283.75549316 530.6530957 1284.32348633 529.70166016 1284.90869141 C450.31191719 1333.60018572 363.83742272 1367.50352656 229.5 1401.1875 C228.70992554 1401.35767639 227.91985107 1401.52785278 227.10583496 1401.70318604 C130.46377231 1422.44033623 30.97218956 1432.14489736 -446.66552734 1395.00195312 C-447.47998825 1394.81465637 -448.29444916 1394.62735962 -449.1335907 1394.43438721 C-450.637531 1394.08593029 -452.13999592 1393.73100449 -453.64045715 1393.36785889 C-461.36567574 1391.57566144 -467.11737361 1392.02138126 -474.4765625 1394.828125 C-475.23108704 1395.10605896 -475.98561157 1395.38399292 -476.76300049 1395.67034912 C-479.22173617 1396.58055688 -481.67346485 1397.50808915 -484.125 1398.4375 C-485.84380612 1399.08101407 -487.56272009 1399.72424014 -489.28173828 1400.3671875 C-524.9827394 1413.78443987 -559.73613832 1429.53898699 -594.5 1445.1875 C-602.8868918 1448.95997774 -611.27706906 1452.72500814 -619.67333984 1456.4765625 C-622.27889024 1457.64088194 -624.88323165 1458.80785453 -627.48681641 1459.9765625 C-644.06575338 1467.41394253 -660.7226113 1474.60898723 -677.5625 1481.4375 C-678.74585938 1481.91833038 -678.74585938 1481.91833038 -679.953125 1482.40887451 C-687.7300864 1485.5627602 -695.48582891 1488.67681757 -703.5 1491.1875 C-709.4442123 1479.95380704 -714.20059022 1468.36919535 -718.875 1456.5625 C-723.15609869 1445.76966612 -727.48561616 1435.01482896 -732.2265625 1424.4140625 C-732.58052094 1423.61817719 -732.93447937 1422.82229187 -733.29916382 1422.00228882 C-735.47924274 1417.18761163 -737.9026346 1412.63986415 -740.65414429 1408.12484741 C-741.5 1406.1875 -741.5 1406.1875 -740.5 1403.1875 C-738.78979492 1402.046875 -738.78979492 1402.046875 -736.48046875 1400.9375 C-735.58312012 1400.50381104 -734.68577148 1400.07012207 -733.76123047 1399.62329102 C-732.74689941 1399.14947998 -731.73256836 1398.67566895 -730.6875 1398.1875 C-729.60871582 1397.67695068 -728.52993164 1397.16640137 -727.41845703 1396.64038086 C-704.30266752 1385.84094836 -680.72013939 1375.9949145 -657.162323 1366.20620728 C-645.45863062 1361.34265358 -633.85890083 1356.28692131 -622.3125 1351.0625 C-621.59123932 1350.73785767 -620.86997864 1350.41321533 -620.12686157 1350.07873535 C-618.08848331 1349.15965471 -616.05348546 1348.23351084 -614.01953125 1347.3046875 C-612.85526611 1346.77472168 -611.69100098 1346.24475586 -610.49145508 1345.69873047 C-607.87993654 1344.37943725 -605.79821249 1342.96918092 -603.5 1341.1875 C-604.34143555 1340.76678223 -605.18287109 1340.34606445 -606.04980469 1339.91259766 C-624.37141927 1330.75179036 -642.69303385 1321.59098307 -661.01464844 1312.43017578 C-662.07321076 1311.90091161 -662.07321076 1311.90091161 -663.15315819 1311.36095524 C-664.54370927 1310.66565702 -665.93422431 1309.97028672 -667.32470131 1309.27484035 C-670.84617004 1307.51369355 -674.36834969 1305.75399095 -677.89169312 1303.99659729 C-678.96806282 1303.45936413 -678.96806282 1303.45936413 -680.06617737 1302.91127777 C-681.42002569 1302.23559118 -682.77409362 1301.56034433 -684.12843323 1300.88564301 C-687.99659898 1298.95441171 -691.83795214 1296.97800709 -695.6640625 1294.96484375 C-696.57800781 1294.48982422 -697.49195313 1294.01480469 -698.43359375 1293.52539062 C-700.27303699 1292.5682928 -702.10614579 1291.59894756 -703.93359375 1290.61914062 C-705.28517578 1289.92401367 -705.28517578 1289.92401367 -706.6640625 1289.21484375 C-707.84669678 1288.59210571 -707.84669678 1288.59210571 -709.05322266 1287.95678711 C-714.14112388 1286.35710873 -718.71380173 1288.50696013 -723.42578125 1290.49609375 C-724.59270508 1290.98609863 -725.75962891 1291.47610352 -726.96191406 1291.98095703 C-728.24560001 1292.52860278 -729.52912302 1293.07663059 -730.8125 1293.625 C-732.18057735 1294.2044691 -733.54874396 1294.78372748 -734.91699219 1295.36279297 C-756.80538589 1304.65433793 -778.53544582 1314.31949806 -800.26953125 1323.96484375 C-842.99425002 1342.92002518 -885.96208036 1361.31181804 -929.59927368 1378.081604 C-931.45140128 1378.79381208 -933.30129557 1379.51181943 -935.15112305 1380.22998047 C-936.23562744 1380.64135254 -937.32013184 1381.05272461 -938.4375 1381.4765625 C-939.37464844 1381.83443848 -940.31179688 1382.19231445 -941.27734375 1382.56103516 C-943.5 1383.1875 -943.5 1383.1875 -945.5 1382.1875 C-946.59593802 1379.41516516 -947.59865544 1376.65298953 -948.56640625 1373.8359375 C-951.933564 1364.37493586 -955.95975492 1355.34741629 -960.26586914 1346.28274536 C-976.23278715 1312.61838357 -976.23278715 1312.61838357 -980.5 1295.1875 C-979.406875 1294.73125244 -978.31375 1294.27500488 -977.1875 1293.80493164 C-951.32179065 1283.00610677 -925.48120425 1272.15075628 -899.70849609 1261.1315918 C-897.6106546 1260.23480282 -895.51238496 1259.33902225 -893.4140625 1258.44335938 C-866.48495424 1246.93905024 -839.77926348 1234.91153982 -813.49536133 1221.99609375 C-812.46435303 1221.49207031 -811.43334473 1220.98804688 -810.37109375 1220.46875 C-809.47318115 1220.02595703 -808.57526855 1219.58316406 -807.65014648 1219.12695312 C-805.5 1218.1875 -805.5 1218.1875 -803.5 1218.1875 C-806.76352363 1214.92054269 -810.03373771 1211.66045758 -813.30844116 1208.40470886 C-815.83510504 1205.89155784 -818.3590025 1203.37563575 -820.8828125 1200.85961914 C-822.2064551 1199.54100508 -823.53099387 1198.22328997 -824.85644531 1196.90649414 C-838.55704024 1183.29276275 -838.55704024 1183.29276275 -844.5 1176.1875 C-845.47214844 1175.06873722 -846.44608429 1173.9515249 -847.421875 1172.8359375 C-853.87453682 1165.38657791 -860.11147002 1157.80381321 -866.11572266 1149.98828125 C-867.03654482 1148.79040042 -867.96069099 1147.59506727 -868.88818359 1146.40234375 C-881.50892262 1130.15374543 -893.08020009 1112.92819725 -903.5 1095.1875 C-903.91072754 1094.49317871 -904.32145508 1093.79885742 -904.74462891 1093.08349609 C-924.50691935 1059.55881146 -940.58354811 1024.89383163 -953.5 988.1875 C-953.84869141 987.20716797 -954.19738281 986.22683594 -954.55664062 985.21679688 C-962.84372919 961.78160762 -969.59779178 937.5614164 -974.5 913.1875 C-983.37537699 915.74885041 -991.41402292 919.91372724 -999.625 924.0625 C-1000.75665085 924.6310672 -1000.75665085 924.6310672 -1001.91116333 925.21112061 C-1014.02011766 931.29991503 -1025.87684645 937.73841051 -1037.60839844 944.52783203 C-1043.06174197 947.65784126 -1048.56385011 950.70051692 -1054.0625 953.75 C-1055.18994629 954.37567871 -1056.31739258 955.00135742 -1057.47900391 955.64599609 C-1064.91139417 959.7653203 -1072.35531209 963.86323989 -1079.8125 967.9375 C-1080.70718994 968.42677979 -1081.60187988 968.91605957 -1082.52368164 969.42016602 C-1084.84460676 970.68455562 -1087.17112539 971.93783374 -1089.5 973.1875 C-1090.64855469 973.81140625 -1091.79710937 974.4353125 -1092.98046875 975.078125 C-1093.81191406 975.44421875 -1094.64335938 975.8103125 -1095.5 976.1875 C-1096.16 975.8575 -1096.82 975.5275 -1097.5 975.1875 C-1091.64769613 966.63597027 -1085.76117501 958.10982698 -1079.8125 949.625 C-1069.21994948 934.51588117 -1058.66248004 919.38210334 -1048.22827148 904.16308594 C-1046.52566622 901.68046481 -1044.82006787 899.19997239 -1043.11010742 896.72241211 C-1035.85810312 886.20946378 -1028.695291 875.63719907 -1021.5546875 865.04833984 C-1019.60828152 862.16271418 -1017.65964693 859.2786017 -1015.7109375 856.39453125 C-1014.455594 854.53394535 -1013.20038091 852.67327147 -1011.9453125 850.8125 C-1011.37128693 849.96341064 -1010.79726135 849.11432129 -1010.20584106 848.23950195 C-1006.86649848 843.28219359 -1003.63898263 838.27418663 -1000.5 833.1875 C-1008.9878432 835.83109966 -1017.12368595 839.25247164 -1025.3125 842.6875 C-1026.08510162 843.01052094 -1026.85770325 843.33354187 -1027.65371704 843.66635132 C-1057.25657226 856.0465873 -1086.65541824 868.90723975 -1116.02539062 881.828125 C-1129.67288338 887.83162438 -1143.34584977 893.77390974 -1157.03271484 899.68701172 C-1160.39499313 901.14205765 -1163.75459039 902.60310096 -1167.11328125 904.06640625 C-1209.01671534 922.31048892 -1251.07616887 940.18491507 -1293.5 957.1875 C-1294.35319824 957.52946411 -1295.20639648 957.87142822 -1296.08544922 958.22375488 C-1300.68896937 960.06601428 -1305.29693214 961.89628018 -1309.9133606 963.70596313 C-1311.24649654 964.22893062 -1312.57877729 964.75408426 -1313.91012573 965.28158569 C-1315.68565836 965.98343769 -1317.46573735 966.6737572 -1319.24609375 967.36328125 C-1320.22247803 967.74395752 -1321.1988623 968.12463379 -1322.20483398 968.5168457 C-1324.5 969.1875 -1324.5 969.1875 -1326.5 968.1875 C-1327.35828626 965.8301429 -1328.09807263 963.51184863 -1328.79296875 961.10546875 C-1329.25429528 959.56195772 -1329.71581207 958.01850355 -1330.17749023 956.47509766 C-1330.42199921 955.64778137 -1330.66650818 954.82046509 -1330.91842651 953.96807861 C-1340.97211143 920.07015365 -1352.80400912 886.83329464 -1365.09295654 853.69061279 C-1377.43788173 820.39295782 -1389.48889052 786.97399417 -1400.4375 753.1875 C-1400.79474655 752.08553284 -1400.79474655 752.08553284 -1401.15921021 750.96130371 C-1409.5 725.14027357 -1409.5 725.14027357 -1409.5 719.1875 C-1394.40151401 717.05455947 -1379.29615552 715.00836525 -1364.1640625 713.12890625 C-1316.19522792 707.1555353 -1268.31111396 700.62391157 -1220.4375 693.9375 C-1219.62810423 693.82445998 -1218.81870847 693.71141996 -1217.98478556 693.59495449 C-1204.15222206 691.66299955 -1190.31985505 689.72963563 -1176.48775291 687.79438019 C-1145.37517158 683.44146136 -1114.25571543 679.13994741 -1083.13228226 674.86531067 C-1079.5713926 674.3762214 -1076.01053044 673.88693235 -1072.44967651 673.39758301 C-1059.80000559 671.65927504 -1047.1501467 669.92234228 -1034.5 668.1875 C-1061.14420186 660.71392836 -1087.85227012 653.4912361 -1114.58613968 646.34582138 C-1119.99188021 644.90065931 -1125.3971646 643.45379306 -1130.80249023 642.00708008 C-1137.24085341 640.28397298 -1143.67925839 638.56102301 -1150.11790466 636.838974 C-1161.23291308 633.86606708 -1172.34658316 630.88834467 -1183.45703125 627.8984375 C-1230.42837996 615.26224612 -1277.46354265 602.8534503 -1324.578125 590.76171875 C-1325.85654203 590.43361773 -1325.85654203 590.43361773 -1327.16078568 590.0988884 C-1335.34785831 587.99836417 -1343.53594429 585.90184905 -1351.72610474 583.8133955 C-1354.70580767 583.05336226 -1357.68516002 582.29196012 -1360.66448212 581.53043556 C-1362.6672301 581.01921574 -1364.67053496 580.5102265 -1366.67388916 580.00138855 C-1374.99493778 577.87503436 -1383.25495144 575.58919465 -1391.5 573.1875 C-1383.23736612 547.94839651 -1371.83489838 524.12036595 -1360.04289246 500.37327576 C-1358.76072312 497.79065117 -1357.51096337 495.21326631 -1356.38183594 492.55957031 C-1354.83879825 488.98630564 -1353.75899338 487.3439346 -1350.3828125 485.3046875 C-1349.14273437 484.89476562 -1347.90265625 484.48484375 -1346.625 484.0625 C-1345.58267212 483.71058594 -1345.58267212 483.71058594 -1344.51928711 483.3515625 C-1342.19087119 482.58619532 -1339.85116264 481.87971091 -1337.5 481.1875 C-1336.67612793 480.94290039 -1335.85225586 480.69830078 -1335.00341797 480.44628906 C-1324.04699818 477.24450802 -1312.96350634 474.51407213 -1301.875 471.8125 C-1300.80193604 471.54953125 -1299.72887207 471.2865625 -1298.62329102 471.015625 C-1297.62096436 470.77585937 -1296.6186377 470.53609375 -1295.5859375 470.2890625 C-1294.6995459 470.07588379 -1293.8131543 469.86270508 -1292.89990234 469.64306641 C-1290.5 469.1875 -1290.5 469.1875 -1286.5 469.1875 C-1290.61520825 457.59216183 -1297.1515712 447.62348019 -1303.70361328 437.2890625 C-1316.23712292 417.49062691 -1316.23712292 417.49062691 -1314.5 408.1875 C-1313.43710327 405.12788391 -1313.43710327 405.12788391 -1312.09912109 402.0246582 C-1311.59522858 400.85251266 -1311.09133606 399.68036713 -1310.57217407 398.47270203 C-1310.01515593 397.20666803 -1309.45721708 395.9410388 -1308.8984375 394.67578125 C-1308.61305492 394.02291956 -1308.32767235 393.37005787 -1308.03364182 392.69741249 C-1301.58663455 377.96844927 -1294.40756962 363.62540818 -1287.10852051 349.30474854 C-1284.15758454 343.51476824 -1281.21685097 337.71968847 -1278.2890625 331.91796875 C-1277.82668056 331.00328638 -1277.82668056 331.00328638 -1277.35495758 330.07012558 C-1273.3602122 322.15080527 -1269.5919001 314.20715656 -1266.41934204 305.92070007 C-1265.36026348 303.1562833 -1264.62280545 301.31030545 -1262.5 299.1875 C-1256.17885042 298.53815759 -1253.28039553 299.3536654 -1248.125 303.3125 C-1247.53468994 303.75770996 -1246.94437988 304.20291992 -1246.33618164 304.66162109 C-1244.3746192 306.15036806 -1242.43699384 307.66695748 -1240.5 309.1875 C-1239.11131844 310.26124665 -1237.72197871 311.33414255 -1236.33203125 312.40625 C-1233.32565016 314.73248345 -1230.32850391 317.07008944 -1227.3359375 319.4140625 C-1214.93304017 329.1138294 -1202.36601652 338.59420599 -1189.66430664 347.8984375 C-1183.72325628 352.26001833 -1177.85264188 356.70816364 -1172 361.1875 C-1163.02378317 368.05438003 -1153.95965133 374.79112776 -1144.84277344 381.46972656 C-1140.09483323 384.95102161 -1135.35863715 388.44828336 -1130.62011719 391.94238281 C-1126.69057759 394.83910707 -1122.75851272 397.73224601 -1118.8203125 400.6171875 C-1109.46246308 407.47993517 -1100.19797212 414.45143111 -1090.98486328 421.50732422 C-1085.68553534 425.5548889 -1080.33252567 429.49510604 -1074.87670898 433.32788086 C-1069.5654169 437.084913 -1064.411906 441.04126946 -1059.25 445 C-1052.6523404 450.05950771 -1046.01184477 455.03696854 -1039.25 459.875 C-1031.30759863 465.56268876 -1023.53933094 471.45253341 -1015.80273438 477.41601562 C-1011.52445675 480.70727754 -1007.23078544 483.9783539 -1002.9375 487.25 C-1001.59921143 488.27033325 -1001.59921143 488.27033325 -1000.23388672 489.3112793 C-994.31843777 493.81645486 -988.37454469 498.28164602 -982.41503906 502.72827148 C-976.32903871 507.28498117 -970.33315032 511.95580814 -964.34887695 516.64501953 C-963.62917725 517.20817871 -962.90947754 517.77133789 -962.16796875 518.3515625 C-961.53141357 518.85123535 -960.8948584 519.3509082 -960.23901367 519.86572266 C-958.70320005 521.03305313 -957.10509897 522.11743402 -955.5 523.1875 C-955.95890625 522.18332031 -956.4178125 521.17914062 -956.890625 520.14453125 C-964.86960035 502.46592366 -969.63144616 484.6213921 -970.5 465.1875 C-970.561875 463.83398438 -970.561875 463.83398438 -970.625 462.453125 C-971.59082508 418.74954021 -952.90784119 380.24229378 -924.5 348.1875 C-923.66722534 347.48778076 -923.66722534 347.48778076 -922.81762695 346.77392578 C-921.29562298 345.29131022 -921.29562298 345.29131022 -921.52807617 343.31689453 C-921.8138855 342.26671143 -921.8138855 342.26671143 -922.10546875 341.1953125 C-922.31606934 340.39641602 -922.52666992 339.59751953 -922.74365234 338.77441406 C-922.99324707 337.92073242 -923.2428418 337.06705078 -923.5 336.1875 C-923.8724585 334.89537598 -923.8724585 334.89537598 -924.25244141 333.57714844 C-925.09001828 330.73399758 -925.9516643 327.89868783 -926.8125 325.0625 C-947.47860592 255.39250998 -945.57174969 177.9734407 -910.5 113.1875 C-898.8656387 92.75217967 -883.32289899 74.47633752 -865.5 59.1875 C-864.63246094 58.41535156 -863.76492188 57.64320312 -862.87109375 56.84765625 C-862.08863281 56.29980469 -861.30617188 55.75195312 -860.5 55.1875 C-857.5 56.1875 -857.5 56.1875 -856.5078125 58.13916016 C-856.21648438 58.99300293 -855.92515625 59.8468457 -855.625 60.7265625 C-855.285896 61.68731689 -854.94679199 62.64807129 -854.59741211 63.63793945 C-854.23526611 64.68554443 -853.87312012 65.73314941 -853.5 66.8125 C-843.21135133 95.20714258 -828.34494279 121.82928297 -810.5 146.1875 C-810.02111328 146.84218262 -809.54222656 147.49686523 -809.04882812 148.17138672 C-799.13059658 161.66546963 -788.82020369 174.82714978 -777.91357422 187.53564453 C-776.46793355 189.22497178 -775.03202219 190.92218721 -773.59765625 192.62109375 C-767.89745915 199.35187746 -762.05021723 205.90893495 -756.01757812 212.34375 C-753.16141213 215.39078978 -750.3511054 218.45979037 -747.625 221.625 C-744.9975028 224.67315562 -742.21106429 227.49905411 -739.33984375 230.31665039 C-737.57543723 232.11079147 -735.92783786 233.95832224 -734.2890625 235.8671875 C-729.77455142 241.06042867 -725.02878849 246.024782 -720.28515625 251.0078125 C-716.53949168 254.96117167 -712.93001556 258.9567026 -709.5 263.1875 C-709.5721875 262.21296875 -709.644375 261.2384375 -709.71875 260.234375 C-714.3147904 192.62441659 -701.93776461 120.23092303 -656.35107422 67.5715332 C-655.07000836 66.10788661 -653.78511943 64.64758874 -652.5 63.1875 C-651.85160156 62.41664062 -651.20320312 61.64578125 -650.53515625 60.8515625 C-647.07545088 56.75640104 -643.39876459 53.18425978 -639.296875 49.73046875 C-637.46305604 48.23924 -637.46305604 48.23924 -636.015625 46.42578125 C-635.51546875 46.01714844 -635.0153125 45.60851563 -634.5 45.1875 C-631.99894158 45.44882814 -630.84100983 45.79854152 -629.16650391 47.70849609 C-628.57748291 48.69970459 -628.57748291 48.69970459 -627.9765625 49.7109375 C-627.52031494 50.47035645 -627.06406738 51.22977539 -626.59399414 52.01220703 C-626.10922607 52.85380371 -625.62445801 53.69540039 -625.125 54.5625 C-624.60607178 55.44663574 -624.08714355 56.33077148 -623.55249023 57.24169922 C-615.48630942 71.17255825 -608.21500836 85.56685552 -601.14453125 100.0234375 C-592.79849347 117.06502044 -584.08883699 133.82998344 -571.5 148.1875 C-570.75234375 149.0434375 -570.0046875 149.899375 -569.234375 150.78125 C-567.33734688 152.93033081 -565.42721793 155.06551005 -563.5 157.1875 C-557.46137822 155.58786509 -552.54611583 152.3837679 -547.25 149.1875 C-531.6421946 139.93887978 -515.61177158 131.51866275 -499.5 123.1875 C-498.82199341 122.83647217 -498.14398682 122.48544434 -497.44543457 122.1237793 C-477.18459564 111.64713108 -456.58671677 102.08954461 -435.66796875 93.00244141 C-431.90579902 91.36753517 -428.15538888 89.70753084 -424.40625 88.04296875 C-339.62227016 50.68137542 -248.56925954 25.81922417 -70.5 2.1875 C-69.72944275 2.13529297 -68.9588855 2.08308594 -68.16497803 2.02929688 C-45.44850421 0.5182465 -22.76479591 0.00524034 0 0 Z " fill="#000000" transform="translate(1409.5,-0.1875)"/>
<path d="M0 0 C3.3051179 0.76135116 6.6016767 1.40507581 9.94140625 1.9921875 C67.24106101 12.24317095 122.21247289 31.78415256 174.62890625 56.8359375 C175.57813965 57.28791504 176.52737305 57.73989258 177.50537109 58.20556641 C191.20835679 64.77063162 204.35404236 72.12662976 217.39477539 79.91772461 C219.77745593 81.33092919 222.16599457 82.72915767 224.56420898 84.11547852 C234.63893801 89.95429669 244.40540747 96.150432 254.06640625 102.6484375 C254.78091949 103.12705231 255.49543274 103.60566711 256.2315979 104.0987854 C272.15640702 114.76763288 287.69409924 125.81354074 302.62890625 137.8359375 C303.26538086 138.34624512 303.90185547 138.85655273 304.55761719 139.38232422 C317.57570558 149.83046788 330.29567705 160.5852488 342.62890625 171.8359375 C343.59570312 172.70992187 344.5625 173.58390625 345.55859375 174.484375 C351.3096623 179.69966966 356.8757757 185.03969981 362.328125 190.5703125 C364.3838083 192.59458468 366.48810754 194.47595358 368.69140625 196.3359375 C372.55732869 199.64516711 375.84538057 203.34036773 379.203125 207.15625 C381.79628247 210.02083297 384.50249443 212.75038823 387.25390625 215.4609375 C391.59573579 219.76653481 395.69694621 224.15717498 399.62890625 228.8359375 C400.36753906 229.650625 401.10617187 230.4653125 401.8671875 231.3046875 C407.46804426 237.72777712 407.46804426 237.72777712 408.19140625 242.7109375 C405.87348922 247.34677156 402.40662107 248.21656265 397.62890625 249.8359375 C393.57347126 250.76504217 389.48387449 251.41574494 385.37890625 252.0859375 C374.98513759 253.95569597 368.22631593 256.67815697 359.62890625 262.8359375 C358.08886462 263.57237098 356.52675011 264.26539141 354.94140625 264.8984375 C339.39169377 271.45758895 327.61577887 285.70485848 316.390625 297.8203125 C310.93515599 303.66910718 305.67712743 309.10605267 299.06640625 313.6484375 C297.99261719 314.39738281 296.91882812 315.14632813 295.8125 315.91796875 C290.49025261 319.12437792 285.84498116 320.49026118 279.62890625 319.8359375 C271.49955843 316.52398098 266.42808034 309.34601692 261.06640625 302.6484375 C258.54599181 299.74026699 255.88553791 297.3431825 252.95703125 294.859375 C251.30696164 293.42525409 249.69556707 291.94607685 248.11328125 290.4375 C233.28795854 276.31617307 216.23373251 265.17580223 198.62890625 254.8359375 C197.98066895 254.45244141 197.33243164 254.06894531 196.66455078 253.67382812 C177.69834058 242.59244688 156.66964049 234.89804021 135.62890625 228.8359375 C134.84032227 228.60181152 134.05173828 228.36768555 133.23925781 228.12646484 C120.51182157 224.37034514 107.64076115 222.09169026 94.50927734 220.24267578 C92.76332724 219.99612951 91.01844973 219.74156313 89.27587891 219.47216797 C63.45741816 215.49599465 35.28427113 216.43848783 9.62890625 220.8359375 C8.61119141 221.00754395 7.59347656 221.17915039 6.54492188 221.35595703 C-22.21389076 226.34373002 -49.61584687 235.04910199 -75.37109375 248.8359375 C-77.03591797 249.72152344 -77.03591797 249.72152344 -78.734375 250.625 C-94.45086442 259.30508229 -109.39729444 269.57605789 -123.37109375 280.8359375 C-124.28632812 281.55910156 -125.2015625 282.28226562 -126.14453125 283.02734375 C-132.45329093 288.0797745 -138.39422227 293.46331234 -144.29296875 298.98046875 C-146.8939571 301.40907347 -149.55539238 303.75674193 -152.24609375 306.0859375 C-155.6014951 309.05230681 -158.55424057 312.17438788 -161.44140625 315.59375 C-163.31398058 317.76957523 -165.25552934 319.86771375 -167.21923828 321.96118164 C-173.72184863 328.9179102 -179.62600764 336.24654817 -185.37109375 343.8359375 C-185.82484375 344.43277344 -186.27859375 345.02960938 -186.74609375 345.64453125 C-229.89293864 402.64249397 -256.38558632 470.45935338 -267.37109375 540.8359375 C-267.60070801 542.27839844 -267.60070801 542.27839844 -267.83496094 543.75 C-274.70601522 587.60122282 -274.59072014 633.27887872 -267.78759766 677.12744141 C-267.36183291 679.8961601 -266.965933 682.66823572 -266.5703125 685.44140625 C-260.4503925 726.74562058 -247.21707549 770.08670622 -229.37109375 807.8359375 C-229.02143555 808.5784375 -228.67177734 809.3209375 -228.31152344 810.0859375 C-226.39500622 814.10936633 -224.39797659 818.08241958 -222.32128906 822.02539062 C-221.37168449 823.83481187 -220.44430965 825.65434868 -219.51953125 827.4765625 C-206.85345219 852.16027531 -190.2791343 874.9006906 -171.61328125 895.375 C-170.12790314 897.00529305 -168.65372647 898.6458683 -167.19140625 900.296875 C-159.13543105 909.38493243 -150.67391965 918.01814986 -141.37109375 925.8359375 C-140.51386719 926.57070313 -139.65664062 927.30546875 -138.7734375 928.0625 C-120.95676634 943.16950246 -101.94074849 956.14789943 -81.59033203 967.58691406 C-80.21825491 968.3591414 -78.848855 969.13617411 -77.48388672 969.92089844 C-24.53029221 1000.35399873 45.27229514 1014.40895166 105.62890625 1001.8359375 C107.39210205 1001.47338867 107.39210205 1001.47338867 109.19091797 1001.10351562 C118.06441035 999.23682559 126.85867965 997.14486628 135.62890625 994.8359375 C136.44488281 994.62163086 137.26085938 994.40732422 138.1015625 994.18652344 C170.74166184 985.17236516 205.40437814 963.91513402 231.59619141 942.88208008 C235.42460945 939.8359375 235.42460945 939.8359375 237.62890625 939.8359375 C235.74085431 946.30614096 233.69728522 952.69098851 231.43359375 959.0390625 C231.12936493 959.89750763 230.82513611 960.75595276 230.51168823 961.64041138 C229.51213612 964.45667894 228.50836091 967.27141504 227.50390625 970.0859375 C226.97802917 971.56287079 226.97802917 971.56287079 226.44152832 973.06964111 C220.50983748 989.72128329 214.42323403 1006.31266742 208.2734375 1022.88476562 C194.09782902 1061.09463931 180.27135797 1099.43275026 166.62890625 1137.8359375 C212.17616616 1135.10259806 256.54419317 1128.98426481 301.4375 1120.90234375 C317.27846607 1118.05513054 333.08433891 1115.33527328 349.06640625 1113.3984375 C349.75072723 1113.31444702 350.43504822 1113.23045654 351.1401062 1113.1439209 C358.34218484 1112.27144729 365.37310964 1111.63855457 372.62890625 1111.8359375 C352.35301964 1128.58898667 327.73942654 1141.43685061 304.62890625 1153.8359375 C303.79601074 1154.28324219 302.96311523 1154.73054688 302.10498047 1155.19140625 C229.58024407 1193.95622966 152.54241272 1220.22801078 72.72631836 1239.33325195 C70.81485586 1239.79137106 68.90443952 1240.25384964 66.99414062 1240.71679688 C-18.9553848 1261.39983775 -109.76628584 1269.59909965 -243.43359375 1271.0859375 C-244.52505329 1271.08667393 -245.61651283 1271.08741035 -246.74104691 1271.0881691 C-283.5698863 1271.10833037 -320.2155556 1270.35889845 -356.97576904 1268.0480957 C-360.36776534 1267.83614548 -363.76017149 1267.63265627 -367.15283203 1267.43164062 C-394.54169009 1265.80222942 -421.27737719 1263.15876212 -448.37109375 1258.7734375 C-449.59118134 1258.57652313 -450.81126892 1258.37960876 -452.06832886 1258.17672729 C-548.89364549 1242.51037739 -644.84122719 1222.13354492 -909.59765625 1070.390625 C-912.03365853 1068.14675811 -914.50646052 1065.95717723 -916.99609375 1063.7734375 C-922.01244842 1059.27095331 -926.7849245 1054.53117843 -931.55859375 1049.7734375 C-932.31930176 1049.01732178 -933.08000977 1048.26120605 -933.86376953 1047.48217773 C-938.57205272 1042.76105284 -943.0279482 1037.89263237 -947.37109375 1032.8359375 C-948.39270569 1031.67937446 -949.41609739 1030.52438068 -950.44140625 1029.37109375 C-958.54469564 1020.18920504 -966.06895041 1010.66355168 -973.37109375 1000.8359375 C-973.90734375 1000.12066895 -974.44359375 999.40540039 -974.99609375 998.66845703 C-987.96290951 981.33391276 -999.23324961 962.954265 -1009.37109375 943.8359375 C-1009.80631348 943.02141113 -1010.2415332 942.20688477 -1010.68994141 941.36767578 C-1022.27108077 919.52645541 -1031.05321054 896.42371055 -1038.37109375 872.8359375 C-1038.5865686 872.14461731 -1038.80204346 871.45329712 -1039.02404785 870.74102783 C-1047.57181309 843.30001695 -1055.2893271 816.24410077 -1059.18359375 787.7109375 C-1059.28936737 786.93674469 -1059.39514099 786.16255188 -1059.50411987 785.36489868 C-1059.80819768 783.10366442 -1060.10175089 780.84134819 -1060.390625 778.578125 C-1060.55667236 777.2772998 -1060.72271973 775.97647461 -1060.89379883 774.63623047 C-1062.18404605 762.75192159 -1062.52856962 750.83702692 -1062.5390625 738.890625 C-1062.5422979 737.50562511 -1062.54566339 736.12062551 -1062.54914856 734.73562622 C-1062.5550746 731.84994725 -1062.55699568 728.96429789 -1062.55639648 726.07861328 C-1062.55631595 723.19182979 -1062.56315395 720.30520745 -1062.5769043 717.41845703 C-1062.69443485 692.32196288 -1061.78635656 667.40350177 -1058.74609375 642.4609375 C-1058.61203125 641.30851563 -1058.47796875 640.15609375 -1058.33984375 638.96875 C-1058.02346853 636.25696243 -1057.70086262 633.54612215 -1057.37109375 630.8359375 C-1055.25449814 632.95253311 -1054.82337152 634.02444214 -1053.92578125 636.80859375 C-1053.65797852 637.61699707 -1053.39017578 638.42540039 -1053.11425781 639.25830078 C-1052.82776367 640.1295459 -1052.54126953 641.00079102 -1052.24609375 641.8984375 C-1043.36107265 667.92418398 -1029.31502853 690.8918571 -1010.37109375 710.8359375 C-1009.63729492 711.61855957 -1009.63729492 711.61855957 -1008.88867188 712.41699219 C-982.54287924 740.35901094 -948.40632921 758.4972704 -912.37109375 770.8359375 C-911.5217627 771.12694336 -910.67243164 771.41794922 -909.79736328 771.71777344 C-904.35892161 773.5554797 -898.88883839 775.25268743 -893.37109375 776.8359375 C-892.63665039 777.04669922 -891.90220703 777.25746094 -891.14550781 777.47460938 C-865.86439267 784.5652498 -839.48721339 788.56711144 -813.37109375 790.8359375 C-812.25879395 790.93890137 -811.14649414 791.04186523 -810.00048828 791.14794922 C-773.97219888 794.38696458 -737.71876812 793.54485617 -701.68359375 790.9609375 C-700.47012268 790.87398621 -699.25665161 790.78703491 -698.00640869 790.69744873 C-685.4083375 789.77614044 -672.86088582 788.75903677 -660.37109375 786.8359375 C-661.02649643 786.79914886 -661.68189911 786.76236023 -662.35716248 786.72445679 C-752.18329786 781.64102548 -841.37394448 771.6025538 -959.37109375 696.8359375 C-960.00402344 696.25585938 -960.63695312 695.67578125 -961.2890625 695.078125 C-987.24035581 670.54459831 -1002.56500548 634.99735387 -1010.37109375 600.8359375 C-1010.58137207 599.93423828 -1010.79165039 599.03253906 -1011.00830078 598.10351562 C-1015.18819912 579.45117436 -1014.79680223 560.82908517 -1014.37109375 541.8359375 C-1010.71250743 543.23887394 -1007.96749101 544.7384083 -1004.87109375 547.1484375 C-971.73433999 571.66963528 -933.58951817 588.93939729 -895.37109375 603.8359375 C-894.35418457 604.23296875 -893.33727539 604.63 -892.28955078 605.0390625 C-855.34988689 619.31576088 -816.26737086 628.7115549 -777.37109375 635.8359375 C-775.63158447 636.16005615 -775.63158447 636.16005615 -773.85693359 636.49072266 C-757.7006281 639.46812789 -741.49417426 641.66452712 -725.18359375 643.5859375 C-724.2866983 643.69293976 -723.38980286 643.79994202 -722.46572876 643.91018677 C-710.11068473 645.37183482 -697.80192231 646.32902697 -685.37109375 646.8359375 C-693.32858911 643.37567461 -701.28716133 639.91789357 -709.24609375 636.4609375 C-710.44423706 635.94039795 -711.64238037 635.4198584 -712.87683105 634.88354492 C-727.91292728 628.35239589 -742.96484528 621.86062945 -758.04595947 615.43395996 C-776.61931439 607.51438813 -795.05844088 599.34099972 -813.37109375 590.8359375 C-814.08734924 590.50337952 -814.80360474 590.17082153 -815.54156494 589.82818604 C-839.53732147 578.67805021 -863.30365016 567.28275582 -886.45556641 554.44970703 C-889.45814671 552.78775294 -892.46724471 551.13799907 -895.4765625 549.48828125 C-937.749168 526.19784455 -979.47696997 498.94577568 -1014.984375 466.0390625 C-1017.13998365 464.0492699 -1019.33334463 462.12198316 -1021.55859375 460.2109375 C-1025.69760114 456.61475075 -1029.52945127 452.74439115 -1033.37109375 448.8359375 C-1034.17546875 448.0521875 -1034.97984375 447.2684375 -1035.80859375 446.4609375 C-1036.65421875 445.5946875 -1037.49984375 444.7284375 -1038.37109375 443.8359375 C-1039.02722656 443.16433594 -1039.68335938 442.49273438 -1040.359375 441.80078125 C-1053.89419845 427.42441438 -1063.67443055 409.01785405 -1068.37109375 389.8359375 C-1068.54552002 389.12373047 -1068.71994629 388.41152344 -1068.8996582 387.67773438 C-1073.6038377 366.71414251 -1070.88037391 346.4492011 -1060.3515625 327.83203125 C-1057.18298955 323.03854909 -1053.41716955 318.90036285 -1049.37109375 314.8359375 C-1045.45964173 318.54374121 -1042.30691262 322.45354488 -1039.18359375 326.8359375 C-1038.2120505 328.17788983 -1037.23937249 329.51902126 -1036.265625 330.859375 C-1035.7804541 331.52807617 -1035.2952832 332.19677734 -1034.79541016 332.88574219 C-1028.64009308 341.31369433 -1022.15624997 349.44311793 -1015.35058594 357.35375977 C-1013.46139295 359.55464581 -1011.58870348 361.76748248 -1009.73291016 363.99658203 C-1002.58919704 372.52945839 -994.99270132 380.49614827 -987.08789062 388.32495117 C-985.10348262 390.29088468 -983.12741235 392.2649223 -981.15234375 394.24023438 C-975.06269961 400.31304563 -968.97025494 406.31158725 -962.37109375 411.8359375 C-961.36095269 412.71235998 -960.35179213 413.58991419 -959.34375 414.46875 C-950.61440839 421.94434724 -941.56573269 428.94371691 -932.37109375 435.8359375 C-931.73413574 436.31562988 -931.09717773 436.79532227 -930.44091797 437.28955078 C-880.53128805 474.79731425 -821.51096545 505.56233449 -760.37109375 519.8359375 C-761.12132812 519.2790625 -761.8715625 518.7221875 -762.64453125 518.1484375 C-769.32530426 513.16730699 -775.90068225 508.08923149 -782.37109375 502.8359375 C-782.96970215 502.3507666 -783.56831055 501.8655957 -784.18505859 501.36572266 C-788.29509496 498.03449407 -792.40026263 494.69734387 -796.50244141 491.35644531 C-798.11700175 490.04269018 -799.73405139 488.7319954 -801.3515625 487.421875 C-807.58072228 482.36125775 -813.69124361 477.17338306 -819.76953125 471.93359375 C-822.11892351 469.90849631 -824.47784515 467.8956902 -826.84765625 465.89453125 C-833.69260421 460.10138917 -840.35321528 454.15487098 -846.87084961 447.99462891 C-850.1973707 444.85117182 -853.56475303 441.76729694 -856.98657227 438.72753906 C-862.25205711 433.99350312 -867.28912738 429.06269212 -872.2890625 424.05078125 C-873.1905452 423.15025528 -874.09202789 422.24972931 -875.02082825 421.32191467 C-876.9102269 419.43319146 -878.79860791 417.543517 -880.68530273 415.65209961 C-883.08207164 413.24961804 -885.48332699 410.85167869 -887.88593578 408.45503902 C-890.21025855 406.13523173 -892.53073256 403.81158211 -894.8515625 401.48828125 C-895.70276169 400.63910629 -896.55396088 399.78993134 -897.43095398 398.9150238 C-901.75425872 394.57485441 -905.93675614 390.17111503 -909.92503357 385.52011108 C-911.9738176 383.13396701 -914.11216906 380.83339301 -916.24609375 378.5234375 C-920.33547162 374.03930822 -924.21728396 369.43326512 -928.02734375 364.7109375 C-930.12125564 362.14240558 -932.25280061 359.61562143 -934.40771484 357.09863281 C-940.31185072 350.19641192 -945.91832028 343.09931384 -951.37109375 335.8359375 C-951.87979004 335.16385254 -952.38848633 334.49176758 -952.91259766 333.79931641 C-971.50734357 309.19336193 -988.53270513 283.23623835 -1003.16064453 256.07177734 C-1004.40038591 253.7818315 -1005.66410453 251.50621791 -1006.9296875 249.23046875 C-1013.20584251 237.80510579 -1018.08303006 226.13808863 -1022.37109375 213.8359375 C-1022.61166504 213.16062988 -1022.85223633 212.48532227 -1023.10009766 211.78955078 C-1026.26165835 202.82445021 -1028.44798914 193.65617138 -1030.55859375 184.3984375 C-1030.80883301 183.31546387 -1031.05907227 182.23249023 -1031.31689453 181.11669922 C-1034.71730819 165.68723602 -1035.75586531 150.47463932 -1035.68359375 134.7109375 C-1035.6814386 133.85943115 -1035.67928345 133.0079248 -1035.67706299 132.13061523 C-1035.58786809 110.09070972 -1032.47804518 90.03099989 -1026.37109375 68.8359375 C-1023.72184988 71.180143 -1022.44689205 73.46511393 -1021.015625 76.68359375 C-1020.56638672 77.66851807 -1020.11714844 78.65344238 -1019.65429688 79.66821289 C-1019.16896484 80.73418701 -1018.68363281 81.80016113 -1018.18359375 82.8984375 C-1008.82588425 102.88262439 -997.1901727 121.62710395 -983.37109375 138.8359375 C-982.82291992 139.52397461 -982.27474609 140.21201172 -981.70996094 140.92089844 C-975.76510438 148.36967219 -969.75373133 155.75590959 -963.37109375 162.8359375 C-962.73558594 163.55136719 -962.10007812 164.26679688 -961.4453125 165.00390625 C-944.9116471 183.61086201 -944.9116471 183.61086201 -926.82421875 200.6640625 C-923.49997942 203.60717885 -920.28801021 206.66455349 -917.05859375 209.7109375 C-911.83387069 214.62638692 -906.5189177 219.28280197 -900.9140625 223.76171875 C-898.32098028 225.87681346 -895.84324475 228.08111846 -893.37109375 230.3359375 C-888.19921581 235.04210132 -882.80899405 239.44260562 -877.37109375 243.8359375 C-875.64099849 245.25146998 -873.9118432 246.66815203 -872.18359375 248.0859375 C-870.24652996 249.66980447 -868.30898339 251.25308108 -866.37109375 252.8359375 C-865.77135742 253.32610352 -865.17162109 253.81626953 -864.55371094 254.32128906 C-857.53829313 260.05154729 -850.50912957 265.75880397 -843.37109375 271.3359375 C-838.37062886 275.24346296 -833.41816484 279.20508577 -828.49609375 283.2109375 C-827.82763428 283.75492187 -827.1591748 284.29890625 -826.47045898 284.859375 C-823.10840104 287.59844082 -819.75140814 290.34356989 -816.3984375 293.09375 C-808.9730709 299.17187888 -801.45689425 305.09246063 -793.8059082 310.8840332 C-787.89931177 315.37834425 -782.1739898 320.06980571 -776.46728516 324.81396484 C-771.29650003 329.1031892 -766.02336848 333.21388315 -760.67578125 337.28125 C-756.16672547 340.73773592 -751.78445499 344.35079589 -747.38696289 347.94726562 C-743.04986084 351.48894618 -738.66802339 354.96352346 -734.24609375 358.3984375 C-728.83309647 362.61341338 -723.59912939 367.00523076 -718.41186523 371.49414062 C-714.05056263 375.2672715 -709.61187153 378.93261521 -705.13671875 382.5703125 C-700.40193153 386.44909299 -695.73983536 390.41297717 -691.08007812 394.38134766 C-689.92870517 395.36133052 -688.77634021 396.34014895 -687.62304688 397.31787109 C-680.28950622 403.53517393 -673.08921468 409.86218536 -666.03125 416.390625 C-663.85888129 418.38754543 -661.66570212 420.34422484 -659.43359375 422.2734375 C-654.89023331 426.21849533 -650.48095366 430.30741222 -646.07250977 434.40161133 C-643.71035415 436.59481775 -641.34430445 438.78367389 -638.97485352 440.96899414 C-630.25823956 449.03095644 -621.76144596 457.28855242 -613.37939453 465.69726562 C-611.34783175 467.73426171 -609.31087539 469.76575701 -607.2734375 471.796875 C-605.95150168 473.11947067 -604.62987558 474.44237599 -603.30859375 475.765625 C-602.71369141 476.35850311 -602.11878906 476.95138123 -601.50585938 477.56222534 C-597.83975732 481.24854107 -594.36431079 485.05699463 -590.97201538 488.99690247 C-588.39500575 491.95720415 -585.68878952 494.79380915 -582.99609375 497.6484375 C-578.34470197 502.61912705 -573.91959325 507.69814942 -569.6640625 513.015625 C-567.53650965 515.63247876 -565.35134367 518.18040682 -563.13525391 520.72167969 C-508.75090061 583.1909046 -467.40373376 660.33668409 -451.37109375 741.8359375 C-450.74582101 723.42512912 -453.23701247 704.9429649 -456.37109375 686.8359375 C-456.6647583 685.13219971 -456.6647583 685.13219971 -456.96435547 683.39404297 C-470.83431745 604.39646592 -506.75020474 520.61605222 -560.5859375 460.15234375 C-561.08899414 459.58588135 -561.59205078 459.01941895 -562.11035156 458.43579102 C-563.44046233 456.96643568 -564.80091748 455.52469927 -566.1640625 454.0859375 C-571.77280372 445.8266938 -572.24516542 435.0134868 -573.43359375 425.3359375 C-573.51758423 424.65732666 -573.60157471 423.97871582 -573.68811035 423.27954102 C-574.28020744 418.46829723 -574.83400253 413.65362786 -575.37109375 408.8359375 C-575.49403809 407.7428125 -575.61698242 406.6496875 -575.74365234 405.5234375 C-580.20625268 363.68572551 -577.6505295 321.305024 -571.37109375 279.8359375 C-571.21914551 278.80791016 -571.06719727 277.77988281 -570.91064453 276.72070312 C-567.34417322 252.80761151 -561.83792333 229.37244952 -555.18359375 206.1484375 C-554.86850861 205.04875137 -554.86850861 205.04875137 -554.54705811 203.92684937 C-552.0232736 195.16102635 -549.33928232 186.46329432 -546.37109375 177.8359375 C-545.38109375 177.8359375 -544.39109375 177.8359375 -543.37109375 177.8359375 C-543.21181396 177.18834473 -543.05253418 176.54075195 -542.88842773 175.87353516 C-540.96004226 168.39514602 -538.37658624 161.34497316 -535.43359375 154.2109375 C-534.95341797 153.04232178 -534.47324219 151.87370605 -533.97851562 150.66967773 C-518.60369996 113.73680473 -498.55432261 79.79430649 -474.93359375 47.5859375 C-474.36664795 46.81193604 -473.79970215 46.03793457 -473.21557617 45.24047852 C-471.62212003 43.08833608 -470.00405981 40.95820845 -468.37109375 38.8359375 C-467.64442505 37.86515259 -467.64442505 37.86515259 -466.90307617 36.87475586 C-463.33996612 32.36626984 -459.84581111 30.06451614 -454.55859375 27.8984375 C-453.39831665 27.40657959 -453.39831665 27.40657959 -452.21459961 26.90478516 C-432.87051554 18.94124628 -412.81159335 14.02807589 -392.37109375 9.8359375 C-390.75104505 9.49209421 -389.13122316 9.14717907 -387.51171875 8.80078125 C-382.40503823 7.72815327 -377.60904878 6.77320091 -372.37109375 6.8359375 C-373.66591668 14.31890983 -375.69116159 21.38564851 -378.08203125 28.5859375 C-378.83457087 30.88891213 -379.58683845 33.19197567 -380.33886719 35.49511719 C-380.73199097 36.6927771 -381.12511475 37.89043701 -381.53015137 39.12438965 C-397.02048456 86.40715048 -410.11648978 132.59931577 -415.10681152 182.24035645 C-415.35342245 184.66238333 -415.61255447 187.08268262 -415.87597656 189.50292969 C-418.58825996 214.85548952 -418.65618504 240.26632139 -418.68072128 265.73458862 C-418.68354546 268.41510655 -418.68906949 271.09560982 -418.69473267 273.77612305 C-418.72903591 296.20997624 -418.14779428 318.46714602 -416.37109375 340.8359375 C-416.29321625 341.83012695 -416.21533875 342.82431641 -416.13510132 343.84863281 C-415.67059135 349.66333066 -415.13901351 355.46923992 -414.55859375 361.2734375 C-414.47461334 362.12403748 -414.39063293 362.97463745 -414.30410767 363.85101318 C-412.67204942 380.23502788 -410.45606391 396.4726519 -407.7253418 412.70733643 C-407.36132996 414.89460604 -407.00844904 417.08343539 -406.65820312 419.27294922 C-396.74490424 481.01084063 -378.58591983 541.2399013 -354.37109375 598.8359375 C-353.63066966 596.12163477 -353.18993454 593.5540666 -352.9855957 590.74975586 C-352.92469757 589.94619156 -352.86379944 589.14262726 -352.80105591 588.31471252 C-352.70617386 587.00844154 -352.70617386 587.00844154 -352.609375 585.67578125 C-352.46272054 583.769951 -352.31513602 581.86419215 -352.16674805 579.95849609 C-352.08870941 578.95163757 -352.01067078 577.94477905 -351.93026733 576.90740967 C-345.11692128 490.34428214 -325.60267378 404.4782996 -166.37109375 124.8359375 C-162.10302949 120.14852195 -158.13380158 115.27957409 -154.24609375 110.2734375 C-140.29055174 92.35880816 -124.89166446 74.6801451 -107.66015625 59.84375 C-105.43579348 57.89268777 -103.26015732 55.8949882 -101.09155273 53.88232422 C-95.99671916 49.1583043 -90.80814239 44.62133998 -85.390625 40.265625 C-83.16442215 38.47429489 -80.95621259 36.66855447 -78.7578125 34.84375 C-70.46107114 27.98093601 -62.01631623 21.4133318 -53.16015625 15.28515625 C-49.7188493 12.88248026 -46.55618263 10.30190494 -43.39453125 7.54296875 C-28.80746401 -4.61406277 -18.07174422 -4.18893763 0 0 Z " fill="#EEB6BF" transform="translate(1562.37109375,90.1640625)"/>
<path d="M0 0 C0.78944 -0.00570007 1.57888 -0.01140015 2.39224243 -0.01727295 C4.05786832 -0.02666461 5.7235123 -0.03323352 7.38916016 -0.03710938 C9.87307522 -0.04671647 12.35612559 -0.07775416 14.83984375 -0.109375 C29.73957931 -0.2088911 44.00108457 1.84323567 58.3515625 5.890625 C59.26550781 6.14626221 60.17945313 6.40189941 61.12109375 6.6652832 C96.65669818 16.90068438 128.87335451 35.38990265 155.83203125 60.6796875 C158.0695682 62.76547231 160.33835598 64.7801521 162.6640625 66.765625 C170.21872716 73.33080136 177.07002466 80.5798605 183.5390625 88.203125 C184.32539062 89.1003125 185.11171875 89.9975 185.921875 90.921875 C203.23573356 110.80505336 217.9363424 133.04206027 231.5390625 155.578125 C232.04969238 156.42238037 232.56032227 157.26663574 233.08642578 158.13647461 C233.5451709 158.90870361 234.00391602 159.68093262 234.4765625 160.4765625 C234.87746094 161.15122559 235.27835938 161.82588867 235.69140625 162.52099609 C236.5390625 164.203125 236.5390625 164.203125 236.5390625 166.203125 C237.1990625 166.203125 237.8590625 166.203125 238.5390625 166.203125 C238.74144531 165.4296875 238.94382812 164.65625 239.15234375 163.859375 C241.08616679 158.76061905 243.86982911 154.33463703 246.7265625 149.703125 C247.65227051 148.19419678 247.65227051 148.19419678 248.59667969 146.65478516 C258.10669962 131.29262954 268.21153571 116.28916868 279.5390625 102.203125 C280.29574219 101.254375 281.05242188 100.305625 281.83203125 99.328125 C286.20702153 93.9064503 290.74212122 88.66605131 295.44140625 83.5234375 C297.25613691 81.5160818 298.99297937 79.46744891 300.7265625 77.390625 C325.51080895 49.14679266 364.35901 23.27683075 402.5390625 20.203125 C418.60477078 19.4315953 434.87281889 19.15908905 450.5390625 23.203125 C451.59480469 23.45835937 452.65054688 23.71359375 453.73828125 23.9765625 C494.18029652 35.0384939 532.15751642 65.75698526 556.5390625 99.203125 C557.0232666 99.85893555 557.5074707 100.51474609 558.00634766 101.19042969 C569.13619017 116.31844035 578.5309806 132.2213045 586.5390625 149.203125 C586.86616211 149.8945459 587.19326172 150.5859668 587.53027344 151.29833984 C606.05276938 190.80998606 616.05780231 233.91909359 620.5390625 277.203125 C620.6703656 278.46526321 620.6703656 278.46526321 620.80432129 279.75289917 C622.31761947 294.75347571 622.85568234 309.6386719 622.79980469 324.71166992 C622.78907876 328.13543433 622.79978413 331.55867307 622.8125 334.98242188 C622.82933261 356.12607482 622.00849432 376.99188737 616.9140625 397.578125 C616.5565725 399.07481838 616.19965196 400.57164788 615.84326172 402.06860352 C608.55561157 432.31606672 599.04444415 462.13254831 585.5390625 490.203125 C585.15814453 491.01120605 584.77722656 491.81928711 584.38476562 492.65185547 C575.70730365 511.0210751 565.47922034 528.50046156 552.5390625 544.203125 C551.72566406 545.21890625 550.91226563 546.2346875 550.07421875 547.28125 C528.41219292 573.97018869 503.12415737 591.55814171 472.24487305 605.91503906 C469.5939495 607.17699635 466.99018118 608.51017393 464.3828125 609.859375 C459.97612567 612.07733321 455.59887978 613.64200308 450.8515625 614.953125 C450.14451172 615.16066406 449.43746094 615.36820313 448.70898438 615.58203125 C439.39401665 618.2434506 430.23555474 618.44476536 420.6015625 618.453125 C419.55702911 618.45413712 419.55702911 618.45413712 418.49139404 618.45516968 C408.18848394 618.43929165 398.55008645 617.94450295 388.5390625 615.203125 C387.19801621 614.87069194 385.85686602 614.53867778 384.515625 614.20703125 C354.56125504 606.42739968 327.99026629 589.21883415 306.5390625 567.203125 C305.9821875 566.69136719 305.4253125 566.17960938 304.8515625 565.65234375 C299.75825193 560.85682755 295.78836004 555.5737782 291.74755859 549.90258789 C288.89507629 545.93786317 285.91365368 542.31162398 282.5390625 538.765625 C273.2105561 528.77500064 266.25728865 516.84670809 259.03759766 505.30224609 C255.64755422 499.899606 252.15351605 494.58328579 248.5390625 489.328125 C248.09433594 488.68037109 247.64960937 488.03261719 247.19140625 487.36523438 C243.16967503 480.90650251 243.16967503 480.90650251 237.5390625 476.203125 C237.12285645 477.30624023 237.12285645 477.30624023 236.69824219 478.43164062 C235.63059822 480.98427212 234.44425495 483.19791144 232.9921875 485.546875 C232.22998901 486.78232056 232.22998901 486.78232056 231.45239258 488.04272461 C230.62904419 489.3596228 230.62904419 489.3596228 229.7890625 490.703125 C229.21631592 491.62295166 228.64356934 492.54277832 228.0534668 493.49047852 C212.76776682 517.89243641 196.39690339 541.42498354 177.5390625 563.203125 C176.87003906 563.98558594 176.20101563 564.76804687 175.51171875 565.57421875 C163.46584219 579.33752722 150.46356517 592.57566255 135.5390625 603.203125 C134.98428223 603.60756836 134.42950195 604.01201172 133.85791016 604.42871094 C116.33883342 617.11787903 97.21113206 626.05531337 76.5390625 632.203125 C74.40814442 632.86379857 72.28010374 633.5330953 70.15234375 634.20385742 C68.83990175 634.6159294 67.52611213 635.02373653 66.2109375 635.42700195 C61.79742139 636.78150645 57.4539709 638.29036557 53.1015625 639.828125 C45.06173066 642.53645818 36.92393758 644.00498957 28.5390625 645.203125 C27.24871094 645.38875 25.95835937 645.574375 24.62890625 645.765625 C-27.46938992 652.02984754 -82.20122348 630.39807696 -122.62890625 598.75390625 C-127.95428094 594.45004207 -133.0700349 589.92914091 -138.12890625 585.31640625 C-140.21128486 583.42935963 -142.32596814 581.59254267 -144.4609375 579.765625 C-152.03649458 573.15422973 -159.01866666 565.91640478 -165.4609375 558.203125 C-166.13116943 557.41156006 -166.13116943 557.41156006 -166.81494141 556.60400391 C-179.56653054 541.50094087 -190.62741843 525.33919129 -200.4609375 508.203125 C-200.85877441 507.51959961 -201.25661133 506.83607422 -201.66650391 506.13183594 C-249.29648934 424.10344901 -259.38544824 322.154158 -236.39282227 223.68212891 C-221.05957821 166.21385939 -192.34871111 115.6738415 -151.6328125 72.60546875 C-149.14440532 69.9624435 -146.78675226 67.2411209 -144.4609375 64.453125 C-139.72229409 59.08065031 -134.04337715 54.88943206 -128.33300781 50.61035156 C-126.5065203 49.23738938 -124.69798672 47.84331027 -122.890625 46.4453125 C-89.07473948 20.61232901 -43.07947908 0.24961952 0 0 Z " fill="#FEFEFE" transform="translate(1609.4609375,377.796875)"/>
<path d="M0 0 C5.33512933 3.73459053 10.08349586 7.85529981 14.8125 12.3125 C19.80086472 17.00934121 24.88406208 21.47911699 30.234375 25.765625 C33.30810599 28.24892179 36.30955497 30.80714714 39.3125 33.375 C45.50906103 38.64959093 51.86595874 43.69872648 58.29882812 48.68115234 C59.91635606 49.93515434 61.52863917 51.19591298 63.140625 52.45703125 C86.35274157 70.50765959 110.80571796 86.85255263 136 102 C137.68222656 103.02287109 137.68222656 103.02287109 139.3984375 104.06640625 C161.5688837 116.95258996 189.74721534 107.16331479 212.86328125 101.52099609 C225.953617 98.32917977 240.78795214 96.08568263 253 103 C254.02480469 103.57105469 255.04960938 104.14210938 256.10546875 104.73046875 C273.11509878 114.72088451 288.27287422 128.98060279 301.1171875 143.8984375 C303.16722274 146.18665111 305.31295092 148.34260582 307.5 150.5 C310.26560408 153.22829407 312.91287031 155.98516834 315.4375 158.9375 C326.59110797 171.82271834 339.39741271 182.26219167 354 191 C354.74378906 191.54785156 355.48757813 192.09570312 356.25390625 192.66015625 C360.15392146 194.56300862 363.59000303 194.47563509 367.875 194.4375 C368.63296875 194.45748047 369.3909375 194.47746094 370.171875 194.49804688 C384.08960501 194.4866389 397.72097547 188.47727653 410.59863281 183.70629883 C440.12140944 172.80889948 461.53371087 176.482397 489.69042969 189.21679688 C500.44786622 194.1947479 511.0409499 199.5029522 521.609375 204.8671875 C546.40251328 217.438102 570.82446287 229.42576877 598 236 C599.08152344 236.26554687 600.16304687 236.53109375 601.27734375 236.8046875 C617.68316628 240.01978829 636.90347002 239.48966939 653 235 C653.70640625 234.81147461 654.4128125 234.62294922 655.140625 234.42871094 C668.57100862 230.72956648 681.01585868 224.92160275 693.6005249 219.05914307 C703.11194203 214.62998001 712.60313759 210.36278436 722.4375 206.6875 C723.34604736 206.34541504 724.25459473 206.00333008 725.19067383 205.65087891 C753.79481334 195.25276869 778.62409561 199.09410223 807 208 C808.29067383 208.40412109 808.29067383 208.40412109 809.60742188 208.81640625 C842.6982558 219.36096342 874.6353736 236.11701695 904.9375 252.9375 C928.72601827 266.12757591 952.95295634 278.52951803 977.875 289.4375 C979.04650101 289.95478165 979.04650101 289.95478165 980.2416687 290.48251343 C995.26084075 297.08466004 1010.7681121 302.93041961 1027.0625 305.375 C1028.62411865 305.61295288 1028.62411865 305.61295288 1030.21728516 305.85571289 C1062.46144325 310.33071762 1095.42478465 304.68071124 1126.8125 297.1875 C1127.58861633 297.00379852 1128.36473267 296.82009705 1129.16436768 296.63082886 C1150.27943088 291.61727782 1171.20789453 285.86677859 1192.13600159 280.13119507 C1208.12230224 275.75889897 1208.12230224 275.75889897 1214.1875 276 C1257.27188087 276.51088199 1300.57490759 267.6695289 1342.80859375 260.06640625 C1358.64955982 257.21919304 1374.45543266 254.49933578 1390.4375 252.5625 C1391.12182098 252.47850952 1391.80614197 252.39451904 1392.51119995 252.3079834 C1399.71327859 251.43550979 1406.74420339 250.80261707 1414 251 C1393.72411339 267.75304917 1369.11052029 280.60091311 1346 293 C1345.16710449 293.44730469 1344.33420898 293.89460938 1343.47607422 294.35546875 C1270.95133782 333.12029216 1193.91350647 359.39207328 1114.09741211 378.49731445 C1112.18594961 378.95543356 1110.27553327 379.41791214 1108.36523438 379.88085938 C1022.41570895 400.56390025 931.60480791 408.76316215 797.9375 410.25 C796.84604046 410.25073643 795.75458092 410.25147285 794.63004684 410.2522316 C757.80120745 410.27239287 721.15553815 409.52296095 684.39532471 407.2121582 C681.00332841 407.00020798 677.61092226 406.79671877 674.21826172 406.59570312 C646.82940366 404.96629192 620.09371656 402.32282462 593 397.9375 C591.77991241 397.74058563 590.55982483 397.54367126 589.30276489 397.34078979 C492.47744826 381.67443989 396.52986656 361.29760742 131.7734375 209.5546875 C129.33743522 207.31082061 126.86463323 205.12123973 124.375 202.9375 C119.35864533 198.43501581 114.58616925 193.69524093 109.8125 188.9375 C109.05179199 188.18138428 108.29108398 187.42526855 107.50732422 186.64624023 C102.79904103 181.92511534 98.34314555 177.05669487 94 172 C92.97838806 170.84343696 91.95499636 169.68844318 90.9296875 168.53515625 C82.82639811 159.35326754 75.30214334 149.82761418 68 140 C67.46375 139.28473145 66.9275 138.56946289 66.375 137.83251953 C53.40818424 120.49797526 42.13784414 102.1183275 32 83 C31.56478027 82.18547363 31.12956055 81.37094727 30.68115234 80.53173828 C17.36575536 55.4198291 6.05787099 27.86620654 0 0 Z " fill="#DA5B86" transform="translate(521,951)"/>
<path d="M0 0 C3.3051179 0.76135116 6.6016767 1.40507581 9.94140625 1.9921875 C67.24106101 12.24317095 122.21247289 31.78415256 174.62890625 56.8359375 C175.57813965 57.28791504 176.52737305 57.73989258 177.50537109 58.20556641 C191.20835679 64.77063162 204.35404236 72.12662976 217.39477539 79.91772461 C219.77745593 81.33092919 222.16599457 82.72915767 224.56420898 84.11547852 C234.63893801 89.95429669 244.40540747 96.150432 254.06640625 102.6484375 C255.13817612 103.36635971 255.13817612 103.36635971 256.2315979 104.0987854 C272.15640702 114.76763288 287.69409924 125.81354074 302.62890625 137.8359375 C303.26538086 138.34624512 303.90185547 138.85655273 304.55761719 139.38232422 C317.57570558 149.83046788 330.29567705 160.5852488 342.62890625 171.8359375 C343.59570312 172.70992187 344.5625 173.58390625 345.55859375 174.484375 C351.3096623 179.69966966 356.8757757 185.03969981 362.328125 190.5703125 C364.3838083 192.59458468 366.48810754 194.47595358 368.69140625 196.3359375 C372.55732869 199.64516711 375.84538057 203.34036773 379.203125 207.15625 C381.79628247 210.02083297 384.50249443 212.75038823 387.25390625 215.4609375 C391.59573579 219.76653481 395.69694621 224.15717498 399.62890625 228.8359375 C400.73685547 230.05796875 400.73685547 230.05796875 401.8671875 231.3046875 C407.46804426 237.72777712 407.46804426 237.72777712 408.19140625 242.7109375 C405.87010665 247.3535367 402.3943799 248.17012096 397.62890625 249.8359375 C393.4324997 250.96496006 389.20775328 251.82847134 384.94140625 252.6484375 C383.83990234 252.87724609 382.73839844 253.10605469 381.60351562 253.34179688 C380.53552734 253.55255859 379.46753906 253.76332031 378.3671875 253.98046875 C377.40852783 254.16971924 376.44986816 254.35896973 375.4621582 254.55395508 C369.04620288 255.19250987 364.88153872 253.06388203 359.69140625 249.5859375 C342.01588839 238.1698462 323.3503221 228.4058142 304.62890625 218.8359375 C303.72317871 218.36945801 302.81745117 217.90297852 301.88427734 217.42236328 C255.38042392 193.50489987 205.81191178 175.34979613 155.62890625 160.8359375 C154.83035217 160.60412781 154.0317981 160.37231812 153.20904541 160.13348389 C129.30211443 153.20356852 105.31208845 147.20873857 80.9107666 142.29559326 C78.61281593 141.83269628 76.31564816 141.3660561 74.01855469 140.89892578 C64.24501756 138.91743694 54.45787574 137.01842877 44.65100098 135.20904541 C42.77051442 134.86206641 40.89060373 134.51197046 39.01074219 134.16162109 C-2.15937778 126.62218862 -44.31404652 122.45728085 -86.07714844 119.97271729 C-88.41882107 119.83309169 -90.76019544 119.68908633 -93.1015625 119.54443359 C-114.84658681 118.21190394 -136.59246107 117.37153119 -158.37109375 116.8359375 C-155.51569192 111.45008272 -152.23512544 107.06202887 -148.18359375 102.5234375 C-147.60625488 101.86754639 -147.02891602 101.21165527 -146.43408203 100.53588867 C-144.75297361 98.62996182 -143.0635951 96.731747 -141.37109375 94.8359375 C-140.15099609 93.46308594 -140.15099609 93.46308594 -138.90625 92.0625 C-136.74033812 89.64200535 -134.55881832 87.23672742 -132.37109375 84.8359375 C-131.466142 83.83724306 -130.56119429 82.83854495 -129.65625 81.83984375 C-122.64060865 74.11768662 -115.54628361 66.61376695 -107.625 59.80859375 C-105.41168234 57.87146131 -103.24944184 55.88537878 -101.09375 53.88452148 C-95.99842007 49.15951054 -90.80894352 44.6219841 -85.390625 40.265625 C-83.16442215 38.47429489 -80.95621259 36.66855447 -78.7578125 34.84375 C-70.46107114 27.98093601 -62.01631623 21.4133318 -53.16015625 15.28515625 C-49.7188493 12.88248026 -46.55618263 10.30190494 -43.39453125 7.54296875 C-28.80746401 -4.61406277 -18.07174422 -4.18893763 0 0 Z " fill="#FAD5DA" transform="translate(1562.37109375,90.1640625)"/>
<path d="M0 0 C-0.5261792 0.2902002 -1.0523584 0.58040039 -1.59448242 0.87939453 C-20.31378729 11.25677399 -38.31703855 22.55711784 -55 36 C-55.91523437 36.72316406 -56.83046875 37.44632812 -57.7734375 38.19140625 C-64.08219718 43.243837 -70.02312852 48.62737484 -75.921875 54.14453125 C-78.52286335 56.57313597 -81.18429863 58.92080443 -83.875 61.25 C-87.23040135 64.21636931 -90.18314682 67.33845038 -93.0703125 70.7578125 C-94.94288683 72.93363773 -96.88443559 75.03177625 -98.84814453 77.12524414 C-105.35075488 84.0819727 -111.25491389 91.41061067 -117 99 C-117.45375 99.59683594 -117.9075 100.19367188 -118.375 100.80859375 C-161.52184489 157.80655647 -188.01449257 225.62341588 -199 296 C-199.15307617 296.96164062 -199.30615234 297.92328125 -199.46386719 298.9140625 C-206.33492147 342.76528532 -206.21962639 388.44294122 -199.41650391 432.29150391 C-198.99073916 435.0602226 -198.59483925 437.83229822 -198.19921875 440.60546875 C-192.07929875 481.90968308 -178.84598174 525.25076872 -161 563 C-160.6503418 563.7425 -160.30068359 564.485 -159.94042969 565.25 C-158.02391247 569.27342883 -156.02688284 573.24648208 -153.95019531 577.18945312 C-153.00059074 578.99887437 -152.0732159 580.81841118 -151.1484375 582.640625 C-138.48235844 607.32433781 -121.90804055 630.0647531 -103.2421875 650.5390625 C-101.75680939 652.16935555 -100.28263272 653.8099308 -98.8203125 655.4609375 C-90.7643373 664.54899493 -82.3028259 673.18221236 -73 681 C-72.14277344 681.73476563 -71.28554687 682.46953125 -70.40234375 683.2265625 C-52.58567259 698.33356496 -33.56965474 711.31196193 -13.21923828 722.75097656 C-11.84716116 723.5232039 -10.47776125 724.30023661 -9.11279297 725.08496094 C54.68035746 761.74769107 130.10695266 768.54188018 200.57568359 750.94189453 C205.02232883 749.71879762 209.35153142 748.23211127 213.68286133 746.65209961 C216 746 216 746 218 747 C185.29841813 783.69228339 129.87932704 803.00635787 82 806 C30.30485801 808.48052867 -22.69687541 797.13840776 -65 766 C-65.8353125 765.39357666 -65.8353125 765.39357666 -66.6875 764.77490234 C-74.41544763 759.13323224 -81.49186922 752.9673047 -88.45776367 746.41479492 C-90.21402556 744.80366026 -92.01480823 743.25103205 -93.8203125 741.6953125 C-98.25473382 737.83297299 -102.41686168 733.73064858 -106.5625 729.5625 C-107.27857422 728.85029297 -107.99464844 728.13808594 -108.73242188 727.40429688 C-113.36095439 722.76734119 -117.75876791 717.99282729 -122 713 C-122.55969482 712.34169189 -123.11938965 711.68338379 -123.69604492 711.00512695 C-131.14151144 702.18122707 -138.30661273 693.23305632 -144.83203125 683.70507812 C-145.60582766 682.57543888 -146.38442709 681.44907355 -147.16796875 680.32617188 C-155.52815229 668.34139049 -162.8034797 655.70766768 -170 643 C-170.43731445 642.22897949 -170.87462891 641.45795898 -171.32519531 640.66357422 C-201.50726422 586.94148543 -216.7644666 524.76292029 -224 464 C-224.22864746 462.13166504 -224.22864746 462.13166504 -224.46191406 460.22558594 C-226.68419703 441.41537651 -227.26725958 422.74867865 -227.25 403.8125 C-227.24931519 402.7485199 -227.24863037 401.68453979 -227.2479248 400.58831787 C-227.20280033 379.35561218 -226.51739508 358.2367362 -224.1875 337.125 C-224.09974304 336.31371643 -224.01198608 335.50243286 -223.92156982 334.66656494 C-218.04126879 280.50993045 -204.473954 227.67475834 -182 178 C-181.29472168 176.43693115 -181.29472168 176.43693115 -180.57519531 174.84228516 C-164.43128329 139.40109712 -143.2386521 105.85717338 -117 77 C-116.40622559 76.34451172 -115.81245117 75.68902344 -115.20068359 75.01367188 C-103.24083718 61.86068915 -103.24083718 61.86068915 -96.95703125 56.6484375 C-94.55259046 54.62314007 -92.29143388 52.46475049 -90 50.3125 C-74.34162461 36.05991798 -22.04490906 -7.34830302 0 0 Z " fill="#DA5C86" transform="translate(1494,335)"/>
<path d="M0 0 C0 3.26938142 -0.61844069 4.64925852 -2.01953125 7.55859375 C-2.67912842 8.9513855 -2.67912842 8.9513855 -3.35205078 10.37231445 C-3.83399902 11.38382568 -4.31594727 12.39533691 -4.8125 13.4375 C-29.46075636 66.29360299 -45.4106055 123.6633957 -49 182 C-49.05494629 182.80888672 -49.10989258 183.61777344 -49.16650391 184.45117188 C-50.09396714 198.29472337 -50.22082759 212.13014813 -50 226 C-49.98743164 226.85078125 -49.97486328 227.7015625 -49.96191406 228.578125 C-48.93646311 281.14818217 -35.88547353 334.33976697 -14 382 C-13.52046875 383.04800781 -13.0409375 384.09601563 -12.546875 385.17578125 C-0.02303759 412.34238815 14.79203255 437.96689128 34 461 C34.63292969 461.804375 35.26585937 462.60875 35.91796875 463.4375 C58.93321146 492.45484166 87.74426275 516.84530388 120 535 C120.70286133 535.39928711 121.40572266 535.79857422 122.12988281 536.20996094 C134.95068792 543.42906043 148.19627873 548.94863823 162 554 C162.69544922 554.26151855 163.39089844 554.52303711 164.10742188 554.79248047 C180.35482958 560.88314501 197.77888278 564.17722772 215 566 C188.51156422 583.65895718 148.48559665 581.15540673 118.82421875 575.38183594 C76.18408547 566.43990323 40.44085952 547.39046482 8.33203125 518.11328125 C6.24965264 516.22623463 4.13496936 514.38941767 2 512.5625 C-5.57555708 505.95110473 -12.55772916 498.71327978 -19 491 C-19.67023193 490.20843506 -19.67023193 490.20843506 -20.35400391 489.40087891 C-33.10559304 474.29781587 -44.16648093 458.13606629 -54 441 C-54.39783691 440.31647461 -54.79567383 439.63294922 -55.20556641 438.92871094 C-102.83555184 356.90032401 -112.92451074 254.951033 -89.93188477 156.47900391 C-74.02935418 96.87707552 -43.57077375 43.57077375 0 0 Z " fill="#CFD1D2" transform="translate(1463,445)"/>
<path d="M0 0 C13.4121107 -0.77610767 25.36161575 6.00574897 35.28515625 14.375 C44.43781934 22.93855918 51.63335709 35.45875106 52.59765625 48.1875 C52.39867894 59.25787402 42.57179463 68.59670076 35.61083984 76.47265625 C33.48659288 78.87999905 31.38677301 81.30793421 29.29174805 83.74072266 C28.27996082 84.91544745 27.26474521 86.0872323 26.24536133 87.25537109 C22.94093998 91.07580671 19.98416138 95.041429 17.09765625 99.1875 C26.64611111 100.88881942 36.22420199 102.13822232 45.84765625 103.3125 C47.33466415 103.49586086 48.82164353 103.67945319 50.30859375 103.86328125 C53.90462399 104.30734867 57.5010267 104.74830972 61.09765625 105.1875 C68.86277507 126.92402337 60.47846361 156.47981281 51.0625 176.65625 C43.67553177 191.71678558 33.59132027 205.34573055 17.47265625 211.6875 C7.38558573 214.64269644 -6.39276487 215.18002891 -15.90234375 210.1875 C-38.37260564 194.97326018 -49.86357357 163.77375618 -54.87890625 138.4375 C-62.09317268 98.3995331 -53.68120512 53.9288587 -31.90234375 19.5 C-24.94781586 9.67861545 -16.49524606 3.4216546 -4.77734375 0.375 C-3.1833836 0.27104608 -1.58964364 0.15667946 0 0 Z " fill="#000000" transform="translate(1740.90234375,604.8125)"/>
<path d="M0 0 C-1.29482293 7.48297233 -3.32006784 14.54971101 -5.7109375 21.75 C-6.46347712 24.05297463 -7.2157447 26.35603817 -7.96777344 28.65917969 C-8.36089722 29.8568396 -8.754021 31.05449951 -9.15905762 32.28845215 C-20.113978 65.72729906 -30.96117895 99.24661628 -37.52612305 133.86914062 C-38 136 -38 136 -39 138 C-41.7199707 138.78686523 -41.7199707 138.78686523 -45.42578125 139.55859375 C-46.83334438 139.85899771 -48.24089586 140.15945629 -49.6484375 140.45996094 C-50.40479492 140.61815308 -51.16115234 140.77634521 -51.94042969 140.93933105 C-56.05547234 141.80354931 -60.1626378 142.70342858 -64.26953125 143.60546875 C-65.14131012 143.7969046 -66.01308899 143.98834045 -66.9112854 144.18557739 C-76.81453618 146.37689328 -86.66138163 148.78650391 -96.5 151.25 C-97.85822876 151.58966293 -97.85822876 151.58966293 -99.24389648 151.93618774 C-115.88842496 156.11223762 -132.44808451 160.59141902 -148.9765625 165.20410156 C-149.86615158 165.45084625 -150.75574066 165.69759094 -151.67228699 165.95181274 C-153.32318136 166.41005583 -154.9731022 166.87182859 -156.6217804 167.33798218 C-161.07669802 168.57250408 -165.4085817 169.44947023 -170 170 C-169.46477668 162.99160412 -166.88923456 156.86558544 -164.3125 150.375 C-163.82918213 149.15312988 -163.34586426 147.93125977 -162.84790039 146.67236328 C-154.74754222 126.45675875 -145.06088846 106.75657467 -134 88 C-133.57686523 87.27876953 -133.15373047 86.55753906 -132.71777344 85.81445312 C-123.51309709 70.21215199 -113.27149303 55.35239441 -102.5625 40.75 C-101.9955542 39.97599854 -101.4286084 39.20199707 -100.84448242 38.40454102 C-99.25102628 36.25239858 -97.63296606 34.12227095 -96 32 C-95.5155542 31.35281006 -95.0311084 30.70562012 -94.53198242 30.03881836 C-90.96887237 25.53033234 -87.47471736 23.22857864 -82.1875 21.0625 C-81.41398193 20.73459473 -80.64046387 20.40668945 -79.84350586 20.06884766 C-60.49942179 12.10530878 -40.4404996 7.19213839 -20 3 C-18.3799513 2.65615671 -16.76012941 2.31124157 -15.140625 1.96484375 C-10.03394448 0.89221577 -5.23795503 -0.06273659 0 0 Z " fill="#FAD5DA" transform="translate(1190,97)"/>
<path d="M0 0 C6.36466861 0.59188277 11.91613743 2.58775899 17.88671875 4.8046875 C18.95596085 5.1954245 20.02520294 5.5861615 21.12684631 5.98873901 C24.64946011 7.27772563 28.16844738 8.57632597 31.6875 9.875 C34.16089623 10.78222078 36.6345327 11.68878683 39.10839844 12.59472656 C43.57774181 14.23197485 48.0461496 15.8717331 52.51338768 17.5147171 C60.23436942 20.3543743 67.96116581 23.17783016 75.69140625 25.9921875 C100.15807086 34.90275098 124.59115778 43.8987897 148.98249817 53.01348877 C154.67440979 55.13829145 160.37229008 57.24641976 166.07374573 59.34547424 C170.10019145 60.82803303 174.12518253 62.31451928 178.15011597 63.80117798 C180.07821344 64.51208475 182.00701802 65.22107689 183.93655396 65.92807007 C186.59627577 66.90282884 189.25344581 67.88425663 191.91015625 68.8671875 C192.70373535 69.15599289 193.49731445 69.44479828 194.31494141 69.74235535 C199.77225527 71.77225527 199.77225527 71.77225527 202 74 C176.98366858 78.31492087 151.90426728 82.2049231 126.81079102 86.04003906 C123.95196502 86.47707854 121.09316229 86.91426989 118.234375 87.3515625 C117.52096388 87.46065948 116.80755276 87.56975647 116.07252312 87.68215942 C105.56996132 89.28911423 95.07241862 90.92588705 84.578125 92.5859375 C-20.8633056 109.25213585 -20.8633056 109.25213585 -37 109 C-35.46983615 99.68996694 -32.46207069 91.00396559 -29.375 82.125 C-28.80450152 80.46984399 -28.23411012 78.81465107 -27.66381836 77.15942383 C-21.55585577 59.49962961 -15.12951251 41.95457824 -8.69830322 24.4105835 C-5.73069459 16.29763804 -2.85283636 8.15390808 0 0 Z " fill="#EE5927" transform="translate(1874,1033)"/>
<path d="M0 0 C11.19442024 8.16710302 17.15456233 18.52413506 20 32 C21.29251676 42.37970094 19.04355522 52.19271587 12.9375 60.75 C9.35297493 65.04056789 5.04427202 67.98931386 0.47265625 71.15234375 C-2.71421976 73.53369028 -4.35872888 75.38920354 -6 79 C-6.1860521 81.26033623 -6.1860521 81.26033623 -5 83 C-1.74333662 85.02783216 1.38889406 85.51163256 5.15625 86.03515625 C6.93708984 86.28942383 6.93708984 86.28942383 8.75390625 86.54882812 C10.60822266 86.8030957 10.60822266 86.8030957 12.5 87.0625 C14.94815536 87.40585443 17.39608308 87.750837 19.84375 88.09765625 C20.92849609 88.24726807 22.01324219 88.39687988 23.13085938 88.55102539 C25.47623618 88.91803934 27.71366786 89.37208805 30 90 C30.37650881 118.7705976 26.27374734 153.14073277 6.3125 175.375 C0.00434588 181.28205762 -7.5796344 184.23682959 -16.1875 184.5 C-22.74637006 184.13229281 -28.33620045 183.80079496 -33.05078125 178.84375 C-35.21659195 175.98403879 -37.12383734 173.05758786 -39 170 C-39.68191406 168.90816406 -40.36382813 167.81632813 -41.06640625 166.69140625 C-61.35576758 133.27194334 -65.9232332 91.18018669 -56.80029297 53.51000977 C-51.96258246 34.87310299 -43.54043558 8.02695706 -26.8125 -3.125 C-17.4864682 -5.26540074 -8.32442639 -5.00544925 0 0 Z " fill="#010101" transform="translate(2141,619)"/>
<path d="M0 0 C0.00808685 0.72566666 0.01617371 1.45133331 0.02450562 2.19898987 C0.10355619 9.15269233 0.19114212 16.10622829 0.28752708 23.0597086 C0.33675924 26.63164734 0.38307191 30.2035663 0.421875 33.77563477 C0.7013632 59.10761668 1.90228228 83.30580263 8 108 C8.25060181 109.02228699 8.50120361 110.04457397 8.75939941 111.09783936 C10.64285549 118.73018062 12.6158863 126.33737274 14.625 133.9375 C14.92758728 135.08633667 15.23017456 136.23517334 15.54193115 137.41882324 C23.9323439 169.56902536 23.9323439 169.56902536 36.39404297 200.30175781 C36.59400879 200.86217773 36.79397461 201.42259766 37 202 C36.67 202.66 36.34 203.32 36 204 C35.0821875 203.14277344 34.164375 202.28554688 33.21875 201.40234375 C26.4007898 195.0449308 19.55876564 188.74818622 12.46972656 182.69287109 C10.68779847 181.17065928 8.90624821 179.64800735 7.125 178.125 C6.51833496 177.60647461 5.91166992 177.08794922 5.28662109 176.55371094 C0.87276375 172.77175957 -3.46826916 168.91722163 -7.7734375 165.01171875 C-9.83104391 163.15265331 -11.90846763 161.32071642 -14 159.5 C-17.89929326 156.10384136 -21.736291 152.64098157 -25.57421875 149.17578125 C-27.63702788 147.32556437 -29.7171237 145.50055191 -31.8125 143.6875 C-35.4949819 140.47848006 -39.09576776 137.1847513 -42.6875 133.875 C-43.507948 133.12029419 -43.507948 133.12029419 -44.3449707 132.3503418 C-46.84143345 130.04232001 -49.24863816 127.7359395 -51.58203125 125.2578125 C-53.83448979 122.87807897 -53.83448979 122.87807897 -56.65234375 121.953125 C-60.45710752 120.40842889 -61.17662999 117.60721755 -62.796875 114.0078125 C-69.8962179 96.25945525 -70.63798059 77.82077591 -63.15429688 59.984375 C-54.06914686 39.46080893 -25.9721055 0 0 0 Z " fill="#FAD5DA" transform="translate(861,235)"/>
<path d="M0 0 C3.44665705 2.60282032 6.13493208 5.1941203 8.75 8.625 C12.27429737 13.1382245 15.99187504 17.40133979 19.84765625 21.6328125 C21.75817947 23.7340413 23.63668448 25.85697199 25.5 28 C26.66610111 29.33382798 27.83279216 30.66714039 29 32 C29.97839844 33.11955078 29.97839844 33.11955078 30.9765625 34.26171875 C39.76464633 44.18426431 48.93099098 53.66996414 59.34375 61.8984375 C61.09940656 63.28747166 62.82965543 64.70930418 64.53125 66.1640625 C86.4623701 84.85836066 112.00061607 96.76747494 140 103 C141.48113281 103.33837891 141.48113281 103.33837891 142.9921875 103.68359375 C144.99193195 104.13524943 146.99539279 104.57044131 149 105 C145.25919101 108.29276533 141.49068746 110.3003504 136.875 112.0625 C136.21628906 112.31926514 135.55757812 112.57603027 134.87890625 112.84057617 C121.95997601 117.77767706 109.85405078 119.23803275 96.0625 119.25 C95.01796661 119.25101212 95.01796661 119.25101212 93.95233154 119.25204468 C83.64942144 119.23616665 74.01102395 118.74137795 64 116 C62.65895371 115.66756694 61.31780352 115.33555278 59.9765625 115.00390625 C30.02219254 107.22427468 3.45120379 90.01570915 -18 68 C-18.85271484 67.21496094 -18.85271484 67.21496094 -19.72265625 66.4140625 C-26.17239915 60.33617357 -31.01316783 53.27586989 -36 46 C-26.39910796 29.61351509 -13.7232015 13.17243756 0 0 Z " fill="#CFD1D2" transform="translate(1934,877)"/>
<path d="M0 0 C0.42286202 26.81595758 0.42286202 26.81595758 -2 36 C-2.31839844 37.22203125 -2.63679688 38.4440625 -2.96484375 39.703125 C-9.83503389 64.34613291 -24.40953988 88.025146 -46.91845703 101.11572266 C-58.37856024 107.22719759 -69.71402208 110.58350298 -82.75 110.5 C-83.79841064 110.49427979 -84.84682129 110.48855957 -85.92700195 110.48266602 C-100.91373181 110.13993415 -113.66172648 104.22551568 -126 96 C-126 82.85375243 -117.59998257 70.38334731 -109 61 C-108.42121094 60.34128906 -107.84242187 59.68257812 -107.24609375 59.00390625 C-84.67410283 34.77436092 -49.29298811 21.87204387 -19.73608398 8.53735352 C-14.41716096 6.13593395 -9.19079115 3.61549613 -4.01147461 0.92456055 C-2 0 -2 0 0 0 Z " fill="#010000" transform="translate(1333,1019)"/>
<path d="M0 0 C-2.40536027 6.38004296 -6.56261179 10.88848436 -11 16 C-11.80244141 16.93199219 -11.80244141 16.93199219 -12.62109375 17.8828125 C-34.73138431 41.65855352 -70.49548832 52.64850226 -102.03125 54.29296875 C-113.21971887 54.69203865 -120.91949035 53.99953016 -129.8125 46.6875 C-135.82961474 39.29504475 -139.57853451 32.02967221 -139.3125 22.26953125 C-138.45817888 16.06502411 -135.47715311 12.00688128 -130.63330078 8.14208984 C-98.9809199 -13.99092028 -35.89064124 -1.46043186 0 0 Z " fill="#010101" transform="translate(1299,972)"/>
<path d="M0 0 C0.33 0 0.66 0 1 0 C1.1451001 0.59150345 1.2902002 1.1830069 1.43969727 1.79243469 C9.7142214 35.49391553 17.96521851 68.7734745 30.03759766 101.34863281 C31.43826696 105.20740211 32.72484704 109.09811241 34 113 C29.19605513 109.55647062 24.87448143 106.00603794 20.75390625 101.765625 C17.18623775 98.17411907 13.28567965 94.95251521 9.43896484 91.66650391 C7.66730026 90.15306994 5.89599917 88.63921257 4.125 87.125 C3.51889893 86.60695801 2.91279785 86.08891602 2.28833008 85.55517578 C-2.12609725 81.77273476 -6.46771233 77.91772676 -10.7734375 74.01171875 C-12.83104391 72.15265331 -14.90846763 70.32071642 -17 68.5 C-20.89929326 65.10384136 -24.736291 61.64098157 -28.57421875 58.17578125 C-30.63702788 56.32556437 -32.7171237 54.50055191 -34.8125 52.6875 C-39.04798634 49.00297123 -43.14883646 45.17692807 -47.26367188 41.35913086 C-51.09862888 37.80931126 -54.99244488 34.35516242 -59 31 C-54.23215917 27.2232934 -48.86224572 24.76176385 -43.4375 22.0625 C-42.30248047 21.49635986 -41.16746094 20.93021973 -39.99804688 20.34692383 C-31.4140862 16.10609449 -22.74568956 12.08305524 -14 8.1875 C-12.83138428 7.66615479 -11.66276855 7.14480957 -10.45874023 6.60766602 C-2.26150148 3 -2.26150148 3 0 3 C0 2.01 0 1.02 0 0 Z " fill="#EDB5BE" transform="translate(864,326)"/>
<path d="M0 0 C3.50265958 1.75132979 4.37820428 6.02903068 5.875 9.5 C10.0496134 18.99682968 14.48331308 28.35152707 19.01318359 37.68359375 C19.50254395 38.69421875 19.9919043 39.70484375 20.49609375 40.74609375 C21.14856079 42.08692017 21.14856079 42.08692017 21.81420898 43.45483398 C22.97156386 45.93896505 24.00794194 48.4459171 25 51 C17.27312777 57.1194572 9.37024009 62.94867968 1.3125 68.625 C0.42723633 69.25293457 -0.45802734 69.88086914 -1.37011719 70.52783203 C-2.61583496 71.39964111 -2.61583496 71.39964111 -3.88671875 72.2890625 C-4.63139404 72.81193848 -5.37606934 73.33481445 -6.14331055 73.87353516 C-8 75 -8 75 -10 75 C-10.69663197 49.99865247 -7.94727761 23.84183283 0 0 Z " fill="#E9B3BB" transform="translate(766,146)"/>
<path d="M0 0 C0.99 0.495 0.99 0.495 2 1 C1.46632813 1.40089844 0.93265625 1.80179687 0.3828125 2.21484375 C-9.62960619 9.8540767 -19.09118373 18.25282992 -27.3125 27.8125 C-36.61503372 38.49700658 -48.4914056 51.97244693 -63.5 53.3125 C-67.32002878 52.971426 -69.71328037 51.92393344 -73 50 C-53.03336915 29.62814232 -26.9876143 9.84477761 0 0 Z " fill="#D85C87" transform="translate(1909,357)"/>
<path d="M0 0 C0.33 0 0.66 0 1 0 C1 5.28 1 10.56 1 16 C-1.29633824 12.55549263 -1.54016485 10.06187717 -2 6 C-1.34 6 -0.68 6 0 6 C0 4.02 0 2.04 0 0 Z " fill="#21191A" transform="translate(1111,819)"/>
</svg>
