<?xml version="1.0" encoding="UTF-8"?>
<svg version="1.1" xmlns="http://www.w3.org/2000/svg" width="1103" height="750">
<path d="M0 0 C12.95071463 7.42909212 23.0324922 17.31316988 28.0234375 31.734375 C28.24773438 32.36988281 28.47203125 33.00539062 28.703125 33.66015625 C34.61782843 54.52366492 26.64175238 75.96632445 18.0234375 94.734375 C19.09980469 95.20746094 20.17617188 95.68054688 21.28515625 96.16796875 C36.21557396 102.86802161 48.2544659 111.40759019 60.0234375 122.734375 C61.08304688 123.68183594 61.08304688 123.68183594 62.1640625 124.6484375 C82.32129215 143.24880795 94.89082934 173.77100318 97.0234375 200.734375 C97.13412744 204.16700107 97.1176996 207.59339387 97.0859375 211.02734375 C97.08215088 211.97700516 97.07836426 212.92666656 97.07446289 213.90510559 C97.06234805 216.91074388 97.04371783 219.91628142 97.0234375 222.921875 C96.99677326 226.89452875 96.97682606 230.86713392 96.9609375 234.83984375 C96.95263916 235.74308884 96.94434082 236.64633392 96.93579102 237.57695007 C96.9183007 242.0851049 97.09908888 246.29686479 98.0234375 250.734375 C98.82136719 250.95996094 99.61929688 251.18554688 100.44140625 251.41796875 C105.02328994 253.1018235 109.08788392 255.40903909 113.3359375 257.796875 C123.03543568 263.17109071 132.84398039 268.30134635 142.7109375 273.359375 C145.57165803 274.82673823 148.43232214 276.29421142 151.29296875 277.76171875 C151.97550217 278.1117395 152.65803558 278.46176025 153.36125183 278.8223877 C158.55773646 281.48947143 163.73575365 284.1898801 168.8984375 286.921875 C176.33665226 290.85683283 183.80107891 294.73964895 191.2734375 298.609375 C200.67413486 303.47773391 210.06749906 308.35965315 219.45117188 313.26074219 C226.55370188 316.96973166 233.66284819 320.66586388 240.7734375 324.359375 C248.79164061 328.52528786 256.7986418 332.7112584 264.78881836 336.93066406 C269.17690459 339.24511623 273.57401855 341.5409932 277.98046875 343.8203125 C288.91329791 349.4766568 299.78924702 355.2091189 310.57348633 361.14404297 C317.83196266 365.12237773 325.16562207 368.94341933 332.5234375 372.734375 C341.19943338 377.20600209 349.83196208 381.74348338 358.3984375 386.421875 C359.30142578 386.91494141 360.20441406 387.40800781 361.13476562 387.91601562 C363.43640848 389.17935 365.73107011 390.45431441 368.0234375 391.734375 C369.04695313 392.29769531 370.07046875 392.86101562 371.125 393.44140625 C371.75148438 393.86808594 372.37796875 394.29476563 373.0234375 394.734375 C373.0234375 395.394375 373.0234375 396.054375 373.0234375 396.734375 C281.9434375 396.734375 190.8634375 396.734375 97.0234375 396.734375 C97.0234375 415.874375 97.0234375 435.014375 97.0234375 454.734375 C101.36653076 454.72913818 105.70962402 454.72390137 110.18432617 454.71850586 C124.60109555 454.70186922 139.01786534 454.69081245 153.43464184 454.68256283 C162.16777731 454.67743148 170.90090362 454.67044988 179.6340332 454.65893555 C187.25593377 454.64889122 194.87782769 454.64249866 202.4997347 454.64028651 C206.52626674 454.63899576 210.55277977 454.63601581 214.57930565 454.62864494 C231.41819599 454.59897118 248.20996243 454.66682756 265.0234375 455.734375 C265.0234375 456.394375 265.0234375 457.054375 265.0234375 457.734375 C248.44409221 466.56452455 231.85640691 475.3751971 215.19140625 484.04296875 C210.29354092 486.59065971 205.40687299 489.15915584 200.5234375 491.734375 C190.68259028 496.92170961 180.8190463 502.06521963 170.95410156 507.20654297 C168.07829106 508.7057784 165.20308656 510.20616861 162.328125 511.70703125 C161.39186279 512.19574707 160.45560059 512.68446289 159.4909668 513.18798828 C157.59129761 514.17967335 155.69172122 515.17153621 153.79223633 516.16357422 C148.79731849 518.77083248 143.79837458 521.36995883 138.79296875 523.95703125 C127.550614 529.77290959 116.36074423 535.66334202 105.27709961 541.77734375 C104.43928955 542.23882813 103.60147949 542.7003125 102.73828125 543.17578125 C101.94341309 543.61865479 101.14854492 544.06152832 100.32958984 544.51782227 C98.0234375 545.734375 98.0234375 545.734375 95.75244141 546.69897461 C91.73482262 548.4150915 90.29954244 549.26765146 87.9921875 553.16796875 C87.47895669 554.49369032 86.99020864 555.82909124 86.5234375 557.171875 C85.95691446 558.61372459 85.38254056 560.05251152 84.80078125 561.48828125 C84.51187012 562.20387207 84.22295898 562.91946289 83.92529297 563.65673828 C79.89881638 572.93267649 73.56049089 581.10367009 67.0234375 588.734375 C66.32476563 589.56710937 65.62609375 590.39984375 64.90625 591.2578125 C44.59792507 614.74608866 13.67959772 630.64624521 -17.35562634 632.90773368 C-23.41532512 633.18658828 -29.47645615 633.17235824 -35.54125977 633.16674805 C-37.54374792 633.17578776 -39.54623058 633.1861203 -41.54870605 633.19763184 C-46.92977419 633.22496866 -52.31073669 633.23445431 -57.69186521 633.24048591 C-63.33595461 633.24993091 -68.97996696 633.27613878 -74.62400818 633.30049133 C-85.28717433 633.34399264 -95.95032539 633.37263981 -106.61355299 633.39581472 C-118.76370039 633.42295461 -130.91376964 633.46686037 -143.06386101 633.51210344 C-168.03471901 633.60471503 -193.00560151 633.67650278 -217.9765625 633.734375 C-219.72461741 637.16957649 -221.46268802 640.60974172 -223.19921875 644.05078125 C-223.93041931 645.48726013 -223.93041931 645.48726013 -224.6763916 646.95275879 C-229.53943818 656.61178945 -233.48664582 666.50583339 -236.9765625 676.734375 C-237.39679688 677.95511719 -237.81703125 679.17585937 -238.25 680.43359375 C-242.00880624 692.82634966 -242.76226163 705.89608115 -243.9765625 718.734375 C-260.40176764 717.1590676 -273.26845688 704.82333171 -283.33740234 692.65942383 C-288.63613191 686.03182131 -293.07273061 678.97004206 -297.296875 671.62109375 C-298.70149986 668.92425378 -298.70149986 668.92425378 -299.9765625 667.734375 C-303.93430951 673.90846033 -302.87931776 678.52993444 -301.41796875 685.3359375 C-298.37334882 699.90811841 -301.76545653 713.03860737 -309.0703125 725.859375 C-313.99121463 733.28106345 -319.8384716 740.37757984 -326.9765625 745.734375 C-330.23485621 744.3511371 -331.91318633 742.88639019 -333.9921875 740.0390625 C-334.52070313 739.32363281 -335.04921875 738.60820313 -335.59375 737.87109375 C-336.40199219 736.75154297 -336.40199219 736.75154297 -337.2265625 735.609375 C-337.78085937 734.85527344 -338.33515625 734.10117187 -338.90625 733.32421875 C-340.27040353 731.46614756 -341.62676428 729.60288684 -342.9765625 727.734375 C-341.25501462 723.96949458 -338.98422136 721.58373603 -335.9765625 718.734375 C-338.85736381 716.85601922 -341.75824829 715.01125315 -344.6640625 713.171875 C-345.48068359 712.63884766 -346.29730469 712.10582031 -347.13867188 711.55664062 C-347.93466797 711.05712891 -348.73066406 710.55761719 -349.55078125 710.04296875 C-350.27869873 709.57689209 -351.00661621 709.11081543 -351.7565918 708.63061523 C-356.92940539 706.5422617 -363.08502464 710.11891309 -368.0390625 711.89453125 C-370.85942969 712.70088623 -373.06544901 712.90026566 -375.9765625 712.734375 C-379.15506534 705.31786838 -380.52755807 697.62682467 -381.9765625 689.734375 C-378.60558867 688.23616441 -376.77214131 687.734375 -372.9765625 687.734375 C-373.97236328 686.02894531 -373.97236328 686.02894531 -374.98828125 684.2890625 C-384.63883172 667.5137486 -390.52950371 652.33306896 -389.9765625 632.734375 C-392.2865625 633.064375 -394.5965625 633.394375 -396.9765625 633.734375 C-397.1621875 634.518125 -397.3478125 635.301875 -397.5390625 636.109375 C-400.55873514 643.72420166 -405.84974082 649.76094133 -411.3515625 655.734375 C-412.0489856 656.50309937 -412.0489856 656.50309937 -412.76049805 657.28735352 C-414.99092747 659.71609478 -417.19224191 661.91656573 -419.71875 664.05078125 C-424.30014292 668.10949897 -424.30014292 668.10949897 -426.20800781 673.76220703 C-426.19923655 677.81716056 -425.75330509 681.81055017 -425.3359375 685.83984375 C-423.84776256 701.49335332 -430.72758651 717.44439329 -439.9765625 729.734375 C-446.6642619 737.51417346 -454.49721019 745.08364517 -464.9765625 746.734375 C-467.64322917 741.40104167 -470.30989583 736.06770833 -472.9765625 730.734375 C-473.34934326 730.03570313 -473.72212402 729.33703125 -474.10620117 728.6171875 C-474.9765625 726.734375 -474.9765625 726.734375 -474.84765625 724.71875 C-473.70672833 722.1196855 -472.19881992 720.81216248 -470.0390625 718.984375 C-469.32878906 718.37078125 -468.61851562 717.7571875 -467.88671875 717.125 C-465.9765625 715.734375 -465.9765625 715.734375 -463.9765625 715.734375 C-463.7084375 715.16332031 -463.4403125 714.59226562 -463.1640625 714.00390625 C-461.93310872 711.65132682 -460.51353283 709.58516074 -458.9765625 707.421875 C-455.06706042 701.60529874 -453.87907583 696.70467188 -453.9765625 689.734375 C-455.17667969 690.24226562 -456.37679688 690.75015625 -457.61328125 691.2734375 C-475.43944375 698.69030722 -492.69765546 704.0579483 -511.9765625 705.734375 C-512.6365625 696.824375 -513.2965625 687.914375 -513.9765625 678.734375 C-510.4084375 678.05375 -506.8403125 677.373125 -503.1640625 676.671875 C-474.22771514 670.81322105 -448.99453539 657.8456202 -429.9765625 634.734375 C-431.89383786 632.81709964 -434.78516623 633.16943721 -437.36279297 632.8347168 C-465.15990281 629.19588697 -489.36722772 617.67042144 -509.9765625 598.734375 C-510.84796875 597.94546875 -511.719375 597.1565625 -512.6171875 596.34375 C-534.23259289 575.81591218 -548.96598108 545.81914378 -550.0827961 515.88718987 C-550.13854382 512.609426 -550.16555186 509.33264212 -550.18188477 506.05444336 C-550.19178436 504.81442566 -550.20168396 503.57440796 -550.21188354 502.29681396 C-550.23791175 498.92349289 -550.25983858 495.55019346 -550.27988553 492.17683482 C-550.30188407 488.64142977 -550.32920434 485.10606578 -550.35594177 481.57069397 C-550.40568248 474.88802323 -550.45068969 468.20532947 -550.49396414 461.52261406 C-550.54349658 453.90946384 -550.59835489 446.29635484 -550.65364373 438.68324459 C-550.76717757 423.03365957 -550.87407788 407.38403651 -550.9765625 391.734375 C-551.51894058 392.21299484 -552.06131866 392.69161469 -552.62013245 393.18473816 C-553.3353154 393.8136647 -554.05049835 394.44259125 -554.78735352 395.09057617 C-555.84842064 396.02506844 -555.84842064 396.02506844 -556.93092346 396.97843933 C-583.9150741 420.14109497 -619.42680715 433.93311709 -654.9765625 431.734375 C-675.06088988 429.60580194 -690.80388531 419.90253677 -704.3515625 405.234375 C-710.37777557 397.70160867 -711.72729001 390.76785047 -711.41015625 381.12890625 C-710.9721413 377.69976222 -710.35905747 375.35839285 -707.703125 372.984375 C-707.13335938 372.571875 -706.56359375 372.159375 -705.9765625 371.734375 C-704.93628906 370.8990625 -704.93628906 370.8990625 -703.875 370.046875 C-684.81090336 355.64013096 -660.82889178 353.48749477 -637.9765625 349.734375 C-639.1625 349.321875 -640.3484375 348.909375 -641.5703125 348.484375 C-652.47240957 344.62338084 -662.80705606 340.24251062 -672.9765625 334.734375 C-674.06839844 334.1465625 -675.16023437 333.55875 -676.28515625 332.953125 C-683.07469815 329.1475219 -689.07652904 324.79967704 -694.9765625 319.734375 C-696.21019531 318.70183594 -696.21019531 318.70183594 -697.46875 317.6484375 C-714.46247207 302.98407297 -728.49284148 281.76378169 -730.19555664 258.77807617 C-730.31616006 255.49005929 -730.34774341 252.21201712 -730.3515625 248.921875 C-730.37605469 247.82294922 -730.40054688 246.72402344 -730.42578125 245.59179688 C-730.46293345 235.08391537 -727.88895745 223.0394392 -720.9765625 214.734375 C-713.52428933 209.01135859 -704.80427628 208.06755674 -695.69921875 209.109375 C-665.01834374 214.73244488 -635.81036625 235.68206127 -611.69042969 254.41308594 C-609.14866799 256.37263213 -606.5597232 258.26739995 -603.9765625 260.171875 C-597.09545485 265.33036523 -590.45574285 270.78030394 -583.80859375 276.234375 C-582.22365944 277.53206108 -580.63197188 278.82149082 -579.0390625 280.109375 C-572.97539143 285.01806111 -567.06196508 290.08449317 -561.18920898 295.21875 C-560.28344116 296.00958984 -560.28344116 296.00958984 -559.359375 296.81640625 C-558.82715332 297.28280518 -558.29493164 297.7492041 -557.74658203 298.22973633 C-555.52917607 300.11468432 -553.25159246 301.9196249 -550.9765625 303.734375 C-550.97291687 302.45081116 -550.96927124 301.16724731 -550.96551514 299.8447876 C-550.92835016 287.66590173 -550.87034602 275.48726369 -550.79265976 263.30856705 C-550.75338395 257.0494517 -550.72109874 250.79047287 -550.70556641 244.53125 C-550.69026773 238.475056 -550.65559206 232.41923783 -550.60825348 226.36321259 C-550.59357461 224.06875654 -550.58552938 221.7742468 -550.58467865 219.47974396 C-550.55655586 181.61366961 -538.97223415 149.41254297 -512.390625 122.0546875 C-487.18507316 97.02266786 -454.71616226 85.59970885 -419.6448822 85.57615662 C-418.197558 85.57158421 -416.75023511 85.5665832 -415.30291373 85.56119305 C-411.34410145 85.54767982 -407.38529772 85.54021346 -403.42646849 85.53376639 C-399.15050299 85.52573232 -394.87455508 85.51204497 -390.59860229 85.49905396 C-383.1962788 85.47733372 -375.79395348 85.45917303 -368.39161491 85.44344902 C-357.6891545 85.42070973 -346.98671359 85.3925726 -336.28426976 85.36312974 C-318.91909537 85.31550351 -301.55391298 85.27222591 -284.1887207 85.23168945 C-267.32282896 85.19230921 -250.45694431 85.15087695 -233.59106445 85.10668945 C-232.55096751 85.10396518 -231.51087056 85.10124091 -230.43925553 85.09843408 C-225.22125028 85.08475419 -220.00324514 85.071034 -214.78524005 85.05729377 C-171.51569568 84.94340708 -128.24613594 84.83658051 -84.9765625 84.734375 C-85.68577347 84.39769806 -86.39498444 84.06102112 -87.12568665 83.71414185 C-90.38608694 82.16415385 -93.64422003 80.60945488 -96.90234375 79.0546875 C-98.01774536 78.52528564 -99.13314697 77.99588379 -100.28234863 77.45043945 C-144.96438361 56.09680234 -144.96438361 56.09680234 -150.9765625 41.734375 C-152.16301775 37.23104122 -152.50003301 33.04836856 -150.9140625 28.609375 C-146.36674883 20.81841438 -134.76780799 17.72629041 -126.6015625 15.296875 C-103.86832454 9.74224955 -80.47781156 14.35138187 -59.9765625 24.734375 C-59.36296875 25.04391113 -58.749375 25.35344727 -58.1171875 25.67236328 C-49.08226186 30.3225507 -41.53561663 35.97829731 -33.9765625 42.734375 C-34.25371094 41.62320313 -34.53085937 40.51203125 -34.81640625 39.3671875 C-41.39718802 12.56754185 -41.39718802 12.56754185 -35.0390625 0.609375 C-28.88404376 -7.97034809 -8.18350772 -3.7446385 0 0 Z M-326.9765625 692.734375 C-328.2747751 698.49519341 -329.23363222 703.82177155 -328.9765625 709.734375 C-325.40424952 704.37590553 -325.85432279 698.9686 -325.9765625 692.734375 C-326.3065625 692.734375 -326.6365625 692.734375 -326.9765625 692.734375 Z M-329.9765625 710.734375 C-328.9765625 712.734375 -328.9765625 712.734375 -328.9765625 712.734375 Z " fill="#00ACED" transform="translate(729.9765625,3.265625)"/>
<path d="M0 0 C12.95071463 7.42909212 23.0324922 17.31316988 28.0234375 31.734375 C28.24773438 32.36988281 28.47203125 33.00539062 28.703125 33.66015625 C34.61782843 54.52366492 26.64175238 75.96632445 18.0234375 94.734375 C19.09980469 95.20746094 20.17617188 95.68054688 21.28515625 96.16796875 C36.21557396 102.86802161 48.2544659 111.40759019 60.0234375 122.734375 C61.08304688 123.68183594 61.08304688 123.68183594 62.1640625 124.6484375 C82.32129215 143.24880795 94.89082934 173.77100318 97.0234375 200.734375 C97.13412744 204.16700107 97.1176996 207.59339387 97.0859375 211.02734375 C97.08215088 211.97700516 97.07836426 212.92666656 97.07446289 213.90510559 C97.06234805 216.91074388 97.04371783 219.91628142 97.0234375 222.921875 C96.99677326 226.89452875 96.97682606 230.86713392 96.9609375 234.83984375 C96.95263916 235.74308884 96.94434082 236.64633392 96.93579102 237.57695007 C96.9183007 242.0851049 97.09908888 246.29686479 98.0234375 250.734375 C98.82136719 250.95996094 99.61929688 251.18554688 100.44140625 251.41796875 C105.02328994 253.1018235 109.08788392 255.40903909 113.3359375 257.796875 C123.03543568 263.17109071 132.84398039 268.30134635 142.7109375 273.359375 C145.57165803 274.82673823 148.43232214 276.29421142 151.29296875 277.76171875 C151.97550217 278.1117395 152.65803558 278.46176025 153.36125183 278.8223877 C158.55773646 281.48947143 163.73575365 284.1898801 168.8984375 286.921875 C176.33665226 290.85683283 183.80107891 294.73964895 191.2734375 298.609375 C200.67413486 303.47773391 210.06749906 308.35965315 219.45117188 313.26074219 C226.55370188 316.96973166 233.66284819 320.66586388 240.7734375 324.359375 C248.79164061 328.52528786 256.7986418 332.7112584 264.78881836 336.93066406 C269.17690459 339.24511623 273.57401855 341.5409932 277.98046875 343.8203125 C288.91329791 349.4766568 299.78924702 355.2091189 310.57348633 361.14404297 C317.83196266 365.12237773 325.16562207 368.94341933 332.5234375 372.734375 C341.19943338 377.20600209 349.83196208 381.74348338 358.3984375 386.421875 C359.30142578 386.91494141 360.20441406 387.40800781 361.13476562 387.91601562 C363.43640848 389.17935 365.73107011 390.45431441 368.0234375 391.734375 C369.04695313 392.29769531 370.07046875 392.86101562 371.125 393.44140625 C371.75148438 393.86808594 372.37796875 394.29476563 373.0234375 394.734375 C373.0234375 395.394375 373.0234375 396.054375 373.0234375 396.734375 C281.9434375 396.734375 190.8634375 396.734375 97.0234375 396.734375 C97.0234375 415.874375 97.0234375 435.014375 97.0234375 454.734375 C101.36653076 454.72913818 105.70962402 454.72390137 110.18432617 454.71850586 C124.60109555 454.70186922 139.01786534 454.69081245 153.43464184 454.68256283 C162.16777731 454.67743148 170.90090362 454.67044988 179.6340332 454.65893555 C187.25593377 454.64889122 194.87782769 454.64249866 202.4997347 454.64028651 C206.52626674 454.63899576 210.55277977 454.63601581 214.57930565 454.62864494 C231.41819599 454.59897118 248.20996243 454.66682756 265.0234375 455.734375 C265.0234375 456.394375 265.0234375 457.054375 265.0234375 457.734375 C248.44409221 466.56452455 231.85640691 475.3751971 215.19140625 484.04296875 C210.29354092 486.59065971 205.40687299 489.15915584 200.5234375 491.734375 C190.68259028 496.92170961 180.8190463 502.06521963 170.95410156 507.20654297 C168.07829106 508.7057784 165.20308656 510.20616861 162.328125 511.70703125 C161.39186279 512.19574707 160.45560059 512.68446289 159.4909668 513.18798828 C157.59129761 514.17967335 155.69172122 515.17153621 153.79223633 516.16357422 C148.79731849 518.77083248 143.79837458 521.36995883 138.79296875 523.95703125 C127.550614 529.77290959 116.36074423 535.66334202 105.27709961 541.77734375 C104.43928955 542.23882813 103.60147949 542.7003125 102.73828125 543.17578125 C101.94341309 543.61865479 101.14854492 544.06152832 100.32958984 544.51782227 C98.0234375 545.734375 98.0234375 545.734375 95.75244141 546.69897461 C91.73482262 548.4150915 90.29954244 549.26765146 87.9921875 553.16796875 C87.47895669 554.49369032 86.99020864 555.82909124 86.5234375 557.171875 C85.95691446 558.61372459 85.38254056 560.05251152 84.80078125 561.48828125 C84.51187012 562.20387207 84.22295898 562.91946289 83.92529297 563.65673828 C79.89881638 572.93267649 73.56049089 581.10367009 67.0234375 588.734375 C66.32476563 589.56710937 65.62609375 590.39984375 64.90625 591.2578125 C44.59792507 614.74608866 13.67959772 630.64624521 -17.35562634 632.90773368 C-23.41532512 633.18658828 -29.47645615 633.17235824 -35.54125977 633.16674805 C-37.54374792 633.17578776 -39.54623058 633.1861203 -41.54870605 633.19763184 C-46.92977419 633.22496866 -52.31073669 633.23445431 -57.69186521 633.24048591 C-63.33595461 633.24993091 -68.97996696 633.27613878 -74.62400818 633.30049133 C-85.28717433 633.34399264 -95.95032539 633.37263981 -106.61355299 633.39581472 C-118.76370039 633.42295461 -130.91376964 633.46686037 -143.06386101 633.51210344 C-168.03471901 633.60471503 -193.00560151 633.67650278 -217.9765625 633.734375 C-219.72461741 637.16957649 -221.46268802 640.60974172 -223.19921875 644.05078125 C-223.93041931 645.48726013 -223.93041931 645.48726013 -224.6763916 646.95275879 C-229.53943818 656.61178945 -233.48664582 666.50583339 -236.9765625 676.734375 C-237.39679688 677.95511719 -237.81703125 679.17585937 -238.25 680.43359375 C-242.00880624 692.82634966 -242.76226163 705.89608115 -243.9765625 718.734375 C-260.40176764 717.1590676 -273.26845688 704.82333171 -283.33740234 692.65942383 C-288.63613191 686.03182131 -293.07273061 678.97004206 -297.296875 671.62109375 C-298.70149986 668.92425378 -298.70149986 668.92425378 -299.9765625 667.734375 C-303.93430951 673.90846033 -302.87931776 678.52993444 -301.41796875 685.3359375 C-298.37334882 699.90811841 -301.76545653 713.03860737 -309.0703125 725.859375 C-313.99121463 733.28106345 -319.8384716 740.37757984 -326.9765625 745.734375 C-330.23485621 744.3511371 -331.91318633 742.88639019 -333.9921875 740.0390625 C-334.52070313 739.32363281 -335.04921875 738.60820313 -335.59375 737.87109375 C-336.40199219 736.75154297 -336.40199219 736.75154297 -337.2265625 735.609375 C-337.78085937 734.85527344 -338.33515625 734.10117187 -338.90625 733.32421875 C-340.27040353 731.46614756 -341.62676428 729.60288684 -342.9765625 727.734375 C-341.25501462 723.96949458 -338.98422136 721.58373603 -335.9765625 718.734375 C-338.85736381 716.85601922 -341.75824829 715.01125315 -344.6640625 713.171875 C-345.48068359 712.63884766 -346.29730469 712.10582031 -347.13867188 711.55664062 C-347.93466797 711.05712891 -348.73066406 710.55761719 -349.55078125 710.04296875 C-350.27869873 709.57689209 -351.00661621 709.11081543 -351.7565918 708.63061523 C-356.92940539 706.5422617 -363.08502464 710.11891309 -368.0390625 711.89453125 C-370.85942969 712.70088623 -373.06544901 712.90026566 -375.9765625 712.734375 C-379.15506534 705.31786838 -380.52755807 697.62682467 -381.9765625 689.734375 C-378.60558867 688.23616441 -376.77214131 687.734375 -372.9765625 687.734375 C-373.97236328 686.02894531 -373.97236328 686.02894531 -374.98828125 684.2890625 C-384.63883172 667.5137486 -390.52950371 652.33306896 -389.9765625 632.734375 C-392.2865625 633.064375 -394.5965625 633.394375 -396.9765625 633.734375 C-397.1621875 634.518125 -397.3478125 635.301875 -397.5390625 636.109375 C-400.55873514 643.72420166 -405.84974082 649.76094133 -411.3515625 655.734375 C-412.0489856 656.50309937 -412.0489856 656.50309937 -412.76049805 657.28735352 C-414.99092747 659.71609478 -417.19224191 661.91656573 -419.71875 664.05078125 C-424.30014292 668.10949897 -424.30014292 668.10949897 -426.20800781 673.76220703 C-426.19923655 677.81716056 -425.75330509 681.81055017 -425.3359375 685.83984375 C-423.84776256 701.49335332 -430.72758651 717.44439329 -439.9765625 729.734375 C-446.6642619 737.51417346 -454.49721019 745.08364517 -464.9765625 746.734375 C-467.64322917 741.40104167 -470.30989583 736.06770833 -472.9765625 730.734375 C-473.34934326 730.03570313 -473.72212402 729.33703125 -474.10620117 728.6171875 C-474.9765625 726.734375 -474.9765625 726.734375 -474.84765625 724.71875 C-473.70672833 722.1196855 -472.19881992 720.81216248 -470.0390625 718.984375 C-469.32878906 718.37078125 -468.61851562 717.7571875 -467.88671875 717.125 C-465.9765625 715.734375 -465.9765625 715.734375 -463.9765625 715.734375 C-463.7084375 715.16332031 -463.4403125 714.59226562 -463.1640625 714.00390625 C-461.93310872 711.65132682 -460.51353283 709.58516074 -458.9765625 707.421875 C-455.06706042 701.60529874 -453.87907583 696.70467188 -453.9765625 689.734375 C-455.17667969 690.24226562 -456.37679688 690.75015625 -457.61328125 691.2734375 C-475.43944375 698.69030722 -492.69765546 704.0579483 -511.9765625 705.734375 C-512.6365625 696.824375 -513.2965625 687.914375 -513.9765625 678.734375 C-510.4084375 678.05375 -506.8403125 677.373125 -503.1640625 676.671875 C-474.22771514 670.81322105 -448.99453539 657.8456202 -429.9765625 634.734375 C-431.89383786 632.81709964 -434.78516623 633.16943721 -437.36279297 632.8347168 C-465.15990281 629.19588697 -489.36722772 617.67042144 -509.9765625 598.734375 C-510.84796875 597.94546875 -511.719375 597.1565625 -512.6171875 596.34375 C-534.23259289 575.81591218 -548.96598108 545.81914378 -550.0827961 515.88718987 C-550.13854382 512.609426 -550.16555186 509.33264212 -550.18188477 506.05444336 C-550.19178436 504.81442566 -550.20168396 503.57440796 -550.21188354 502.29681396 C-550.23791175 498.92349289 -550.25983858 495.55019346 -550.27988553 492.17683482 C-550.30188407 488.64142977 -550.32920434 485.10606578 -550.35594177 481.57069397 C-550.40568248 474.88802323 -550.45068969 468.20532947 -550.49396414 461.52261406 C-550.54349658 453.90946384 -550.59835489 446.29635484 -550.65364373 438.68324459 C-550.76717757 423.03365957 -550.87407788 407.38403651 -550.9765625 391.734375 C-551.51894058 392.21299484 -552.06131866 392.69161469 -552.62013245 393.18473816 C-553.3353154 393.8136647 -554.05049835 394.44259125 -554.78735352 395.09057617 C-555.84842064 396.02506844 -555.84842064 396.02506844 -556.93092346 396.97843933 C-583.9150741 420.14109497 -619.42680715 433.93311709 -654.9765625 431.734375 C-675.06088988 429.60580194 -690.80388531 419.90253677 -704.3515625 405.234375 C-710.37777557 397.70160867 -711.72729001 390.76785047 -711.41015625 381.12890625 C-710.9721413 377.69976222 -710.35905747 375.35839285 -707.703125 372.984375 C-707.13335938 372.571875 -706.56359375 372.159375 -705.9765625 371.734375 C-704.93628906 370.8990625 -704.93628906 370.8990625 -703.875 370.046875 C-684.81090336 355.64013096 -660.82889178 353.48749477 -637.9765625 349.734375 C-639.1625 349.321875 -640.3484375 348.909375 -641.5703125 348.484375 C-652.47240957 344.62338084 -662.80705606 340.24251062 -672.9765625 334.734375 C-674.06839844 334.1465625 -675.16023437 333.55875 -676.28515625 332.953125 C-683.07469815 329.1475219 -689.07652904 324.79967704 -694.9765625 319.734375 C-696.21019531 318.70183594 -696.21019531 318.70183594 -697.46875 317.6484375 C-714.46247207 302.98407297 -728.49284148 281.76378169 -730.19555664 258.77807617 C-730.31616006 255.49005929 -730.34774341 252.21201712 -730.3515625 248.921875 C-730.37605469 247.82294922 -730.40054688 246.72402344 -730.42578125 245.59179688 C-730.46293345 235.08391537 -727.88895745 223.0394392 -720.9765625 214.734375 C-713.52428933 209.01135859 -704.80427628 208.06755674 -695.69921875 209.109375 C-665.01834374 214.73244488 -635.81036625 235.68206127 -611.69042969 254.41308594 C-609.14866799 256.37263213 -606.5597232 258.26739995 -603.9765625 260.171875 C-597.09545485 265.33036523 -590.45574285 270.78030394 -583.80859375 276.234375 C-582.22365944 277.53206108 -580.63197188 278.82149082 -579.0390625 280.109375 C-572.97539143 285.01806111 -567.06196508 290.08449317 -561.18920898 295.21875 C-560.28344116 296.00958984 -560.28344116 296.00958984 -559.359375 296.81640625 C-558.82715332 297.28280518 -558.29493164 297.7492041 -557.74658203 298.22973633 C-555.52917607 300.11468432 -553.25159246 301.9196249 -550.9765625 303.734375 C-550.97291687 302.45081116 -550.96927124 301.16724731 -550.96551514 299.8447876 C-550.92835016 287.66590173 -550.87034602 275.48726369 -550.79265976 263.30856705 C-550.75338395 257.0494517 -550.72109874 250.79047287 -550.70556641 244.53125 C-550.69026773 238.475056 -550.65559206 232.41923783 -550.60825348 226.36321259 C-550.59357461 224.06875654 -550.58552938 221.7742468 -550.58467865 219.47974396 C-550.55655586 181.61366961 -538.97223415 149.41254297 -512.390625 122.0546875 C-487.18507316 97.02266786 -454.71616226 85.59970885 -419.6448822 85.57615662 C-418.197558 85.57158421 -416.75023511 85.5665832 -415.30291373 85.56119305 C-411.34410145 85.54767982 -407.38529772 85.54021346 -403.42646849 85.53376639 C-399.15050299 85.52573232 -394.87455508 85.51204497 -390.59860229 85.49905396 C-383.1962788 85.47733372 -375.79395348 85.45917303 -368.39161491 85.44344902 C-357.6891545 85.42070973 -346.98671359 85.3925726 -336.28426976 85.36312974 C-318.91909537 85.31550351 -301.55391298 85.27222591 -284.1887207 85.23168945 C-267.32282896 85.19230921 -250.45694431 85.15087695 -233.59106445 85.10668945 C-232.55096751 85.10396518 -231.51087056 85.10124091 -230.43925553 85.09843408 C-225.22125028 85.08475419 -220.00324514 85.071034 -214.78524005 85.05729377 C-171.51569568 84.94340708 -128.24613594 84.83658051 -84.9765625 84.734375 C-85.68577347 84.39769806 -86.39498444 84.06102112 -87.12568665 83.71414185 C-90.38608694 82.16415385 -93.64422003 80.60945488 -96.90234375 79.0546875 C-98.01774536 78.52528564 -99.13314697 77.99588379 -100.28234863 77.45043945 C-144.96438361 56.09680234 -144.96438361 56.09680234 -150.9765625 41.734375 C-152.16301775 37.23104122 -152.50003301 33.04836856 -150.9140625 28.609375 C-146.36674883 20.81841438 -134.76780799 17.72629041 -126.6015625 15.296875 C-103.86832454 9.74224955 -80.47781156 14.35138187 -59.9765625 24.734375 C-59.36296875 25.04391113 -58.749375 25.35344727 -58.1171875 25.67236328 C-49.08226186 30.3225507 -41.53561663 35.97829731 -33.9765625 42.734375 C-34.25371094 41.62320313 -34.53085937 40.51203125 -34.81640625 39.3671875 C-41.39718802 12.56754185 -41.39718802 12.56754185 -35.0390625 0.609375 C-28.88404376 -7.97034809 -8.18350772 -3.7446385 0 0 Z M-461.7265625 127.421875 C-462.42918213 127.7629126 -463.13180176 128.1039502 -463.85571289 128.45532227 C-470.52070352 131.80568313 -476.26126046 135.9288895 -481.9765625 140.734375 C-482.83636719 141.43175781 -483.69617188 142.12914062 -484.58203125 142.84765625 C-502.14138818 157.73907988 -513.35979547 178.95549831 -515.9765625 201.734375 C-516.2324009 206.21922022 -516.25577592 210.68852881 -516.24398804 215.17987061 C-516.24851915 216.46938606 -516.25305026 217.75890151 -516.25771868 219.08749318 C-516.26983128 222.62822492 -516.26970228 226.16886136 -516.26732993 229.70960903 C-516.26691876 233.54343015 -516.27798917 237.37722192 -516.28744507 241.21102905 C-516.30399072 248.70738488 -516.30955166 256.20370923 -516.31066982 263.7000818 C-516.31162324 269.7985052 -516.31574809 275.8969183 -516.32207108 281.99533844 C-516.33966487 299.31908045 -516.34891271 316.64279777 -516.34741013 333.96654877 C-516.34733022 334.89862283 -516.3472503 335.83069689 -516.34716797 336.79101562 C-516.34708621 337.7242391 -516.34700445 338.65746257 -516.34692021 339.61896554 C-516.34610754 354.73836919 -516.36524535 369.85767317 -516.3934447 384.97704801 C-516.42223006 400.53442946 -516.43598194 416.09176238 -516.43425715 431.64917111 C-516.43359526 440.37029057 -516.43899901 449.09130548 -516.46061325 457.81240082 C-516.4788995 465.23770597 -516.48311158 472.66285916 -516.4695944 480.08817717 C-516.46310244 483.86962755 -516.46280928 487.65078703 -516.4803009 491.43220901 C-516.62004272 523.67139566 -510.64450501 549.59891751 -487.6015625 573.421875 C-475.02460727 585.68871353 -460.00684472 593.70986238 -442.9765625 597.734375 C-442.34999756 597.91162109 -441.72343262 598.08886719 -441.07788086 598.27148438 C-438.79578508 598.7741977 -436.76491934 598.84780984 -434.4296875 598.83203125 C-433.16318359 598.82719727 -433.16318359 598.82719727 -431.87109375 598.82226562 C-430.99839844 598.81388672 -430.12570312 598.80550781 -429.2265625 598.796875 C-428.33839844 598.79236328 -427.45023437 598.78785156 -426.53515625 598.78320312 C-424.34888921 598.771449 -422.16276071 598.75501749 -419.9765625 598.734375 C-420.1216626 598.14043945 -420.2667627 597.54650391 -420.41625977 596.93457031 C-422.47341245 587.3742848 -422.08788854 577.89361162 -421.86010742 568.18457031 C-421.81157738 565.94597267 -421.78190784 563.70768498 -421.75390625 561.46875 C-421.72546631 560.15100586 -421.69702637 558.83326172 -421.66772461 557.47558594 C-422.02346418 553.16621584 -423.10511111 550.59689078 -424.9765625 546.734375 C-428.73788609 534.80675527 -429.57317944 516.58467928 -424.28515625 505.09375 C-423.85332031 504.31515625 -423.42148437 503.5365625 -422.9765625 502.734375 C-422.51378906 501.85265625 -422.05101562 500.9709375 -421.57421875 500.0625 C-412.15282601 483.75358543 -396.75661679 474.23394887 -380.96728516 464.91796875 C-378.94422022 463.71514574 -376.93371105 462.49352709 -374.92578125 461.265625 C-374.26408936 460.86263184 -373.60239746 460.45963867 -372.9206543 460.04443359 C-371.66622925 459.27977465 -370.41364239 458.51208808 -369.16333008 457.74072266 C-365.8412309 455.72567129 -362.51278846 454.07187222 -358.92382812 452.59277344 C-339.80142024 444.16318641 -320.72579751 432.47551083 -304.9765625 418.734375 C-303.4296875 417.55875 -303.4296875 417.55875 -301.8515625 416.359375 C-297.36937619 412.26694402 -293.72697655 407.49323372 -289.9765625 402.734375 C-297.22275204 423.07771458 -311.29676793 440.33421424 -328.29638672 453.43408203 C-330.23473488 454.93417536 -332.15418122 456.45701328 -334.07421875 457.98046875 C-341.48661938 463.83450213 -348.97537665 469.52304789 -356.7265625 474.921875 C-368.08326432 482.83481361 -378.87725134 491.25233922 -388.9765625 500.734375 C-389.74613281 501.41628906 -390.51570313 502.09820312 -391.30859375 502.80078125 C-397.94022257 508.93532035 -405.59289546 518.46570125 -406.9765625 527.734375 C-407.04280757 529.48324481 -407.06208845 531.23440248 -407.0390625 532.984375 C-407.03003906 533.87640625 -407.02101563 534.7684375 -407.01171875 535.6875 C-407.00011719 536.36296875 -406.98851562 537.0384375 -406.9765625 537.734375 C-403.71776762 535.17389331 -400.87839313 532.72292556 -398.2890625 529.484375 C-380.52650891 508.22453107 -349.25410986 493.8667918 -323.3359375 485.8046875 C-319.49020049 484.5794178 -315.74663293 483.1749041 -311.9765625 481.734375 C-313.39848782 482.85160204 -314.82042817 483.96880994 -316.24243164 485.0859375 C-317.49967801 486.07390366 -318.75666986 487.06219377 -320.01342773 488.05078125 C-323.19202347 490.55041915 -326.37362695 493.04584031 -329.56640625 495.52734375 C-367.01062477 523.6603504 -367.01062477 523.6603504 -390.9765625 562.734375 C-391.23039915 565.93810122 -391.20791088 569.14663322 -391.2265625 572.359375 C-391.2471875 573.22433594 -391.2678125 574.08929687 -391.2890625 574.98046875 C-391.33616955 582.83556964 -389.93059654 589.97332996 -384.9140625 596.234375 C-384.40746094 596.8840625 -383.90085937 597.53375 -383.37890625 598.203125 C-382.03438815 599.85444935 -382.03438815 599.85444935 -379.9765625 600.734375 C-379.80640625 599.98414063 -379.63625 599.23390625 -379.4609375 598.4609375 C-377.83294866 591.5852825 -375.89820776 585.16735539 -372.9765625 578.734375 C-372.71246582 578.15171875 -372.44836914 577.5690625 -372.17626953 576.96875 C-365.07997728 561.5287244 -355.74179225 548.91730522 -343.9765625 536.734375 C-343.24953125 535.95578125 -342.5225 535.1771875 -341.7734375 534.375 C-322.33104666 514.0685029 -296.42025278 500.05416368 -271.9765625 486.734375 C-275.34370664 491.09578752 -279.0222853 495.09685084 -282.7890625 499.109375 C-283.38009766 499.74359375 -283.97113281 500.3778125 -284.58007812 501.03125 C-288.10773227 504.80126206 -291.69948161 508.49066115 -295.38061523 512.11108398 C-297.6965111 514.46665866 -299.83299453 516.96358697 -301.984375 519.46875 C-304.29537947 522.09695117 -306.70102701 524.62521996 -309.1015625 527.171875 C-340.87016394 561.43354051 -360.48435878 600.40703171 -359.17333984 647.55712891 C-358.66322539 655.79364198 -356.08796118 663.13807733 -352.9765625 670.734375 C-352.3165625 670.734375 -351.6565625 670.734375 -350.9765625 670.734375 C-350.75742187 669.6928125 -350.53828125 668.65125 -350.3125 667.578125 C-344.13012454 639.21330627 -330.32435745 613.84056551 -312.9765625 590.734375 C-312.39100586 589.95046387 -311.80544922 589.16655273 -311.20214844 588.35888672 C-303.63818158 578.25501132 -295.91155401 568.32053474 -287.84033203 558.61694336 C-283.22867553 553.06831748 -278.79653497 547.4145783 -274.44189453 541.66064453 C-272.7021906 539.37369617 -270.94682781 537.09912388 -269.19140625 534.82421875 C-248.17303318 507.52733809 -228.5958286 479.19785122 -218.9765625 445.734375 C-218.76628418 445.03054688 -218.55600586 444.32671875 -218.33935547 443.6015625 C-213.4418135 426.78783172 -213.32020215 408.81492143 -216.9765625 391.734375 C-216.32826688 394.44213994 -215.68285648 397.15053945 -215.0390625 399.859375 C-214.85666016 400.61992187 -214.67425781 401.38046875 -214.48632812 402.1640625 C-207.93246953 429.80942964 -213.37471005 459.15410134 -222.31396484 485.70947266 C-223.26178637 488.60602083 -224.03949134 491.5473247 -224.8515625 494.484375 C-227.31896931 502.3622401 -231.12404868 509.47155132 -234.9765625 516.734375 C-235.51249023 517.75547363 -236.04841797 518.77657227 -236.60058594 519.82861328 C-248.12449335 541.76970172 -260.47508259 563.06284628 -273.8828125 583.9140625 C-274.40359375 584.72584961 -274.924375 585.53763672 -275.4609375 586.37402344 C-276.46780475 587.94206347 -277.47820156 589.50784296 -278.4921875 591.07128906 C-278.95109375 591.78768555 -279.41 592.50408203 -279.8828125 593.2421875 C-280.28822266 593.87012207 -280.69363281 594.49805664 -281.11132812 595.14501953 C-282.13594036 596.72553603 -282.13594036 596.72553603 -281.9765625 598.734375 C-248.36210501 598.82607561 -214.74767882 598.8964872 -181.13312387 598.93863632 C-177.15808498 598.94363871 -173.18304634 598.94881604 -169.20800781 598.95410156 C-168.41670125 598.9551508 -167.62539469 598.95620005 -166.81010914 598.95728108 C-154.02362388 598.97465194 -141.23721108 599.00617118 -128.45076871 599.04298618 C-115.31543183 599.08048827 -102.18013271 599.10263037 -89.04474449 599.11072898 C-80.94968656 599.11619761 -72.85483351 599.13342384 -64.7598387 599.16604087 C-58.53621072 599.18982916 -52.31273659 599.1921716 -46.08906937 599.18680573 C-43.5479367 599.18790054 -41.00679583 599.19578146 -38.46570969 599.2111969 C-25.04074728 599.28860154 -12.79527295 599.03551763 0.0234375 594.734375 C1.25815041 594.3218643 1.25815041 594.3218643 2.51780701 593.90102005 C26.43677145 585.15289388 45.27798937 566.52709458 56.05297852 543.67138672 C61.57051014 531.52065157 63.47811317 519.31243007 63.41111755 506.01676941 C63.41650309 504.71006532 63.42188863 503.40336124 63.42743737 502.05706006 C63.44174904 498.47293425 63.43769265 494.88904117 63.43027055 491.30490339 C63.42550532 487.42269449 63.43807818 483.54053355 63.44828796 479.65834045 C63.46541645 472.06919198 63.46632834 464.48012652 63.46107506 456.89096376 C63.45702075 450.71723609 63.45849184 444.54353281 63.46382332 438.36980629 C63.46457174 437.48849584 63.46532016 436.60718539 63.46609126 435.69916857 C63.46762287 433.90832747 63.46916122 432.11748638 63.47070623 430.32664529 C63.48440992 413.56135571 63.47900875 396.7961129 63.46752102 380.0308244 C63.45759238 364.72395135 63.47052672 349.41719925 63.49445521 334.11034485 C63.51889196 318.35856414 63.52844276 302.60683965 63.52180248 286.85504037 C63.51832022 278.02551367 63.52047633 269.19607989 63.53805351 260.36656761 C63.55283294 252.8497848 63.5533365 245.33316036 63.5359826 237.81638046 C63.52751689 233.98834926 63.52521314 230.16060027 63.54063416 226.33258438 C63.65718522 195.13597032 58.79133897 169.84493719 36.0234375 146.734375 C25.51489115 136.20825583 13.08431836 128.61937228 -0.9765625 123.734375 C-1.91106393 123.40569569 -2.84556536 123.07701638 -3.80838501 122.73837709 C-13.58746144 119.60970233 -22.39173166 119.16706065 -32.57321167 119.22644043 C-34.3145624 119.22182242 -36.05590922 119.2154635 -37.79724801 119.20753145 C-42.54629926 119.19093825 -47.29502618 119.19903865 -52.04407811 119.21147633 C-57.17985865 119.22056589 -62.31558532 119.2065377 -67.45135498 119.19555664 C-77.49866768 119.17780764 -87.54586058 119.18159549 -97.5931779 119.1932072 C-105.76300671 119.20225652 -113.93280204 119.20345904 -122.10263443 119.19911194 C-123.84966346 119.19819254 -123.84966346 119.19819254 -125.631986 119.19725457 C-127.99836683 119.19597561 -130.36474766 119.19467875 -132.73112847 119.1933642 C-154.90054903 119.18196874 -177.06990333 119.19505537 -199.23931302 119.21656567 C-218.23981608 119.23443098 -237.24022136 119.23133518 -256.24072266 119.21289062 C-278.33003953 119.19145753 -300.41929837 119.18307223 -322.5086242 119.19533968 C-324.86670247 119.19661381 -327.22478075 119.19787129 -329.58285904 119.19911194 C-330.74293235 119.19972904 -331.90300566 119.20034614 -333.09823271 119.20098194 C-341.25220798 119.20442788 -349.40614627 119.19862274 -357.56011581 119.18919373 C-367.50591643 119.17794504 -377.45159086 119.1810738 -387.39737712 119.2023167 C-392.4667442 119.21278926 -397.53590131 119.21701407 -402.60526657 119.20372009 C-407.25518739 119.19171105 -411.90470565 119.19849755 -416.55459048 119.2196303 C-418.22738912 119.22406064 -419.9002225 119.22191154 -421.57299839 119.21212715 C-435.64001038 119.136225 -448.95595398 121.06842783 -461.7265625 127.421875 Z M-326.9765625 692.734375 C-328.2747751 698.49519341 -329.23363222 703.82177155 -328.9765625 709.734375 C-325.40424952 704.37590553 -325.85432279 698.9686 -325.9765625 692.734375 C-326.3065625 692.734375 -326.6365625 692.734375 -326.9765625 692.734375 Z M-329.9765625 710.734375 C-328.9765625 712.734375 -328.9765625 712.734375 -328.9765625 712.734375 Z " fill="#000000" transform="translate(729.9765625,3.265625)"/>
<path d="M0 0 C1.74236481 -0.00533818 3.484725 -0.01241112 5.22707659 -0.02104706 C9.96967161 -0.03953269 14.71195137 -0.03341846 19.45455873 -0.02289402 C24.58692028 -0.01586173 29.71921965 -0.03193031 34.8515625 -0.04489136 C44.88823606 -0.06646917 54.92479597 -0.0664205 64.96148508 -0.05826581 C73.12315411 -0.05195144 81.28479013 -0.053116 89.44645882 -0.05953789 C91.19264829 -0.06089037 91.19264829 -0.06089037 92.97411432 -0.06227018 C95.33944635 -0.06412148 97.70477837 -0.06598404 100.07011039 -0.06785773 C122.22144499 -0.08441443 144.37271579 -0.07573501 166.52404655 -0.05887216 C186.76476146 -0.04417607 207.00532791 -0.05880616 227.24602371 -0.08764232 C248.06032692 -0.11707349 268.8745617 -0.12799781 289.68888479 -0.11846012 C292.04554561 -0.11743763 294.40220643 -0.11644302 296.75886726 -0.11547661 C297.91820989 -0.11500022 299.07755251 -0.11452383 300.27202673 -0.114033 C308.41755259 -0.11187385 316.56301328 -0.12164632 324.7085247 -0.13624763 C334.64438549 -0.15381081 344.58005707 -0.1535964 354.51591056 -0.13089598 C359.57938493 -0.11979024 364.64252644 -0.11650783 369.70598602 -0.13519669 C374.35163533 -0.15212204 378.99666455 -0.14548899 383.64227457 -0.1209799 C385.3123408 -0.11613551 386.98245823 -0.11950451 388.65248119 -0.13246734 C403.13943583 -0.23669779 416.70930539 2.45309533 429.60707092 9.3896637 C430.26481506 9.73279602 430.9225592 10.07592834 431.60023499 10.42945862 C454.42455392 22.5790623 471.62976497 42.29235198 479.20472717 67.05763245 C481.81640864 76.41527658 482.42237399 84.76770085 482.16957092 94.5146637 C478.93643777 91.38582516 475.91008942 88.127033 472.91957092 84.7646637 C465.59135562 76.61278122 458.45040685 69.42689992 449.16957092 63.5146637 C448.28914124 62.93974182 447.40871155 62.36481995 446.50160217 61.7724762 C440.66395186 58.14910704 434.66205741 55.30192042 428.29457092 52.7646637 C427.60041077 52.48300354 426.90625061 52.20134338 426.1910553 51.91114807 C413.3808285 47.00933526 401.02007384 46.07484969 387.49699402 46.13371277 C385.74739601 46.13024932 383.9978002 46.12548017 382.24820888 46.11953104 C377.47640197 46.10708549 372.70477662 46.11316189 367.93296933 46.12248969 C362.77265818 46.12930653 357.6123772 46.11878587 352.45207214 46.11054993 C342.35664941 46.09723786 332.26129374 46.10007923 322.16586842 46.10878785 C313.95695169 46.11557469 305.74805371 46.11647679 297.53913498 46.1132164 C296.36889824 46.1127567 295.1986615 46.112297 293.99296304 46.11182337 C291.61530821 46.11086415 289.23765339 46.10989151 286.85999857 46.1089056 C264.58471908 46.10035891 242.30947668 46.11017413 220.03420328 46.1263067 C200.94275126 46.1397057 181.85135398 46.13738382 162.75990295 46.12355042 C140.56511786 46.1074758 118.37036524 46.10118651 96.17557514 46.11038721 C93.8062629 46.1113428 91.43695065 46.11228592 89.0676384 46.1132164 C87.90203687 46.11367923 86.73643533 46.11414205 85.53551254 46.1146189 C77.34247021 46.11720341 69.14944858 46.11284937 60.95640945 46.10577774 C50.96305232 46.09734147 40.96976582 46.09968735 30.97641672 46.11561997 C25.88277752 46.12347464 20.78925586 46.12664242 15.69561768 46.11667252 C11.02355612 46.10766649 6.35171995 46.11275475 1.67967854 46.12860517 C-0.00119717 46.13192819 -1.68209233 46.13031554 -3.36295532 46.12297781 C-34.40504867 45.99796906 -60.75085812 57.32476433 -82.70542908 79.0771637 C-87.04947216 83.46244362 -91.02845672 87.998083 -94.65855408 93.00294495 C-95.2386322 93.75124573 -95.2386322 93.75124573 -95.83042908 94.5146637 C-96.16042908 94.5146637 -96.49042908 94.5146637 -96.83042908 94.5146637 C-98.136554 68.97266513 -87.72910007 47.253784 -70.83042908 28.5146637 C-51.70071398 8.80133017 -27.06759861 -0.14689456 0 0 Z " fill="#83D8F3" transform="translate(310.83042907714844,122.48533630371094)"/>
<path d="M0 0 C1.61877806 1.27330713 3.22489975 2.5630248 4.8125 3.875 C5.451875 4.36484375 6.09125 4.8546875 6.75 5.359375 C20.25532014 16.09128118 29.36444049 33.00266278 32.33984375 49.86328125 C32.64441746 52.87981269 32.76214961 55.84318742 32.8125 58.875 C32.83151367 59.55997559 32.85052734 60.24495117 32.87011719 60.95068359 C33.40820079 81.26113426 30.02204491 99.74249196 16.8125 115.875 C16.22726562 116.65617188 15.64203125 117.43734375 15.0390625 118.2421875 C5.04617529 130.60492939 -10.26391627 139.8149151 -25.1875 144.875 C-26.15429688 145.21015625 -27.12109375 145.5453125 -28.1171875 145.890625 C-48.39057968 151.93418364 -70.40407218 146.70197812 -88.68310547 137.15576172 C-109.03731653 125.92214064 -121.5719516 106.8929021 -128.1875 84.875 C-132.51689533 62.12484105 -128.8718705 39.92077224 -116.015625 20.61328125 C-102.76234669 2.40144881 -84.95215517 -10.68652808 -62.50927734 -14.79980469 C-40.48868557 -17.88407685 -18.14318943 -12.96653181 0 0 Z " fill="#FDFDFD" transform="translate(716.1875,307.125)"/>
<path d="M0 0 C2.81600676 -0.00906291 5.63198354 -0.0155991 8.44799805 -0.02075195 C9.62476734 -0.02492504 9.62476734 -0.02492504 10.82530975 -0.02918243 C17.64918725 -0.03850003 24.45197896 0.17974601 31.26513672 0.55834961 C32.00697205 0.59942841 32.74880737 0.6405072 33.51312256 0.68283081 C34.27191711 0.72562164 35.03071167 0.76841248 35.8125 0.8125 C36.60448792 0.85601593 37.39647583 0.89953186 38.21246338 0.94436646 C52.47721846 1.73780272 66.6584144 2.96122002 80.84960938 4.63525391 C83.69469904 4.96465285 86.54068802 5.25935852 89.390625 5.54296875 C103.00742717 7.00000472 116.35466743 9.77959242 129.75 12.5625 C130.72753235 12.76417786 131.7050647 12.96585571 132.71221924 13.17364502 C135.51309909 13.75459311 138.31156468 14.34586921 141.109375 14.94140625 C141.96145538 15.11844589 142.81353577 15.29548553 143.69143677 15.47789001 C144.47872162 15.64833328 145.26600647 15.81877655 146.07714844 15.99438477 C147.10893219 16.21397606 147.10893219 16.21397606 148.16156006 16.43800354 C150 17 150 17 153 19 C147.08626149 23.05302951 141.06120186 26.74130817 134.8125 30.25 C115.62964071 41.24457341 97.74811517 53.67423624 89.8046875 75.24609375 C88.75789665 80.12942388 88.70127609 84.77041667 88.75 89.75 C88.75604248 90.728479 88.76208496 91.70695801 88.76831055 92.71508789 C88.87588205 100.53781773 89.07143634 108.01960937 92.53173828 115.16137695 C94.21706957 119.07668444 94.31495139 122.45794641 94.22265625 126.734375 C94.21366806 127.45304749 94.20467987 128.17171997 94.19541931 128.91217041 C94.16565133 131.19196239 94.11597519 133.47065021 94.0625 135.75 C93.85759999 145.35867771 93.69905801 154.58159671 96 164 C71.43043552 164.95210368 50.45215301 158.0260847 31.875 141.5625 C30.24575124 140.04621918 28.62040733 138.52572577 27 137 C26.07380859 136.18789063 26.07380859 136.18789063 25.12890625 135.359375 C11.04986304 122.48339091 2.5595112 101.48971238 0 83 C-0.08620065 80.22410055 -0.12674793 77.47471888 -0.11352539 74.69970703 C-0.11367142 73.88928452 -0.11381744 73.078862 -0.1139679 72.24388123 C-0.11327471 69.5818305 -0.10551023 66.91985091 -0.09765625 64.2578125 C-0.09578996 62.40550779 -0.09436705 60.55320259 -0.09336853 58.70089722 C-0.08955997 53.8380394 -0.07974392 48.97521169 -0.06866455 44.11236572 C-0.05841466 39.14522712 -0.05386325 34.17808364 -0.04882812 29.2109375 C-0.03812012 19.47394514 -0.02106371 9.73697508 0 0 Z " fill="#FDFDFD" transform="translate(214,438)"/>
<path d="M0 0 C4.01025027 3.37833945 7.80579607 6.97487485 11.56640625 10.62646484 C12.7667396 11.77651175 14.00432772 12.88750488 15.25 13.98828125 C25.76769319 23.55174824 31.89013527 36.64293963 36 50 C36.56168998 51.50030351 37.12409211 53.00034077 37.6875 54.5 C45.4005275 78.29644281 41.1191824 105.58842351 30.25390625 127.61328125 C19.47823449 147.75325819 3.07546783 161.6958257 -17 172 C-18.39992188 172.75603516 -18.39992188 172.75603516 -19.828125 173.52734375 C-39.31196856 183.35891511 -65.29065875 184.81135029 -85.875 178.3125 C-114.06299616 168.15127308 -135.49280215 151.94669182 -148.6875 124.48828125 C-160.01306624 99.20395463 -162.25293653 70.03090596 -152.4921875 43.8671875 C-142.54160526 18.73418186 -123.32262884 0.26395013 -98.80078125 -10.41796875 C-94.58067566 -12.19318206 -90.4327239 -13.83349371 -86 -15 C-85.12085938 -15.27585937 -84.24171875 -15.55171875 -83.3359375 -15.8359375 C-55.08269822 -23.47763249 -23.3093584 -17.58947329 0 0 Z M-120.8125 27.875 C-137.90223086 47.72417364 -141.22606218 68.74895751 -140 94 C-138.50017408 111.53258044 -127.10970059 129.97394918 -114.57421875 141.875 C-106.29580205 148.70877646 -96.97653261 154.0623046 -87 158 C-86.26652344 158.29519531 -85.53304687 158.59039062 -84.77734375 158.89453125 C-65.96232164 165.8263815 -45.16105087 164.6796844 -27.07080078 156.46728516 C-5.42326025 146.04088647 10.78564135 130.03189328 19 107.19921875 C25.35754669 86.86003616 23.48639769 61.99373666 14 43 C11.56786841 38.80173635 8.91560658 34.87597404 6 31 C5.48050781 30.29617188 4.96101562 29.59234375 4.42578125 28.8671875 C-6.36331561 15.4419637 -22.48054164 6.3120645 -39 2 C-39.7425 1.79632813 -40.485 1.59265625 -41.25 1.3828125 C-72.10643693 -5.65631217 -99.66214173 5.64185889 -120.8125 27.875 Z " fill="#020304" transform="translate(727,292)"/>
<path d="M0 0 C4.30514431 1.72205772 8.36908417 3.65539908 12.4765625 5.78125 C13.19494293 6.1508786 13.91332336 6.5205072 14.6534729 6.90133667 C16.97852944 8.09855208 19.30182019 9.29914744 21.625 10.5 C23.23009291 11.32773429 24.83523631 12.1553707 26.44042969 12.98291016 C35.83207414 17.82834713 45.20645372 22.70488499 54.546875 27.6484375 C59.85238184 30.45567338 65.17670536 33.22668737 70.5 36 C78.27533811 40.05206339 86.04092004 44.12191362 93.796875 48.2109375 C100.02246641 51.49086318 106.25985485 54.74786086 112.5 58 C119.50770881 61.6521657 126.50967606 65.31466556 133.5 69 C141.40924611 73.16942965 149.33354187 77.30954669 157.26196289 81.44238281 C167.18209981 86.61402611 177.09193672 91.805271 187 97 C187 97.66 187 98.32 187 99 C125.29 99 63.58 99 0 99 C0 66.33 0 33.66 0 0 Z " fill="#F2901E" transform="translate(826,279)"/>
<path d="M0 0 C3.71403123 0.58536362 6.50700249 1.61483931 9.78125 3.44921875 C10.69543701 3.9606543 11.60962402 4.47208984 12.55151367 4.99902344 C13.52451416 5.5562207 14.49751465 6.11341797 15.5 6.6875 C16.51231689 7.2640332 17.52463379 7.84056641 18.56762695 8.43457031 C33.33694118 16.95687466 47.60980134 26.43195083 61 37 C61.89332031 37.70125 62.78664063 38.4025 63.70703125 39.125 C71.13026301 45.07208124 78.09635976 51.46619763 85 58 C86.2065625 59.12535156 86.2065625 59.12535156 87.4375 60.2734375 C97.6431585 70.07815942 106.53889865 81.98854794 114 94 C114 94.66 114 95.32 114 96 C58.56 96 3.12 96 -54 96 C-52.48801641 92.22004103 -51.12478621 89.39769651 -48.98046875 86.03515625 C-48.37678467 85.08141113 -47.77310059 84.12766602 -47.15112305 83.14501953 C-46.50312744 82.12778809 -45.85513184 81.11055664 -45.1875 80.0625 C-28.81680448 54.10823732 -13.66587324 27.4816608 0 0 Z " fill="#FDFDFD" transform="translate(502,506)"/>
<path d="M0 0 C0.66 0.33 1.32 0.66 2 1 C1.12988281 2.27230469 1.12988281 2.27230469 0.2421875 3.5703125 C-15.53779894 27.06932256 -21.30721355 53.82870325 -15.80859375 81.890625 C-11.05094886 100.18572321 -3.96782125 116.9647749 9 131 C9.68449219 131.77601563 10.36898437 132.55203125 11.07421875 133.3515625 C19.87817937 142.8227364 31.12209913 149.14414083 43 154 C43.80695313 154.35707031 44.61390625 154.71414063 45.4453125 155.08203125 C64.49157002 163.25783633 83.11738646 162.94069818 103 159 C103.84433594 158.86851562 104.68867187 158.73703125 105.55859375 158.6015625 C127.61091668 154.84974953 149.58710796 137.3901772 162.51953125 119.73828125 C167.75887331 112.14092983 171.68657556 103.58852804 175 95 C175.33 95 175.66 95 176 95 C177.40109445 112.24124561 167.99754246 129.85808853 157.53125 143.06640625 C144.14749627 158.5775159 129.76254482 168.88575571 111 177 C109.845 177.52335938 108.69 178.04671875 107.5 178.5859375 C86.92594125 186.89822463 59.83115721 187.51073131 39 180 C38.13890625 179.72285156 37.2778125 179.44570313 36.390625 179.16015625 C11.89244434 170.47370984 -9.70631644 151.96231245 -21.29443359 128.76464844 C-35.01268457 99.93329316 -37.43440492 67.50418696 -26.8125 37.1875 C-21.37559699 24.29757798 -13.83640171 13.8673825 -4 4 C-3.23300781 3.23042969 -2.46601562 2.46085937 -1.67578125 1.66796875 C-1.12277344 1.11753906 -0.56976562 0.56710937 0 0 Z " fill="#0492BF" transform="translate(587,311)"/>
<path d="M0 0 C1.32857574 3.98572722 0.01160556 6.51580718 -1.3125 10.3125 C-8.3635283 31.96767049 -9.6201974 58.52879275 0.62109375 79.34765625 C1.30365234 80.66056641 1.30365234 80.66056641 2 82 C2.46535156 82.92683594 2.93070313 83.85367188 3.41015625 84.80859375 C14.09911094 105.35989063 32.27593577 121.05210345 54.40625 128.08203125 C63.80917339 130.87722802 72.67267423 132.13366316 82.4375 132.5625 C83.82098633 132.62727539 83.82098633 132.62727539 85.23242188 132.69335938 C87.48816163 132.79854931 89.74399499 132.90069107 92 133 C83.67745069 142.4392458 67.11437149 148.10125845 54.90087891 149.18652344 C32.30894068 150.42094409 9.57881706 143.99803309 -7.78564453 129.1262207 C-22.22643489 116.11011337 -33.93906681 96.96176089 -35.17700195 77.17016602 C-35.73029619 50.83909155 -31.01342632 30.85541599 -12.89453125 10.65234375 C-8.92233327 6.54184874 -4.75255826 3.16837218 0 0 Z " fill="#CED0D1" transform="translate(622,306)"/>
<path d="M0 0 C1.45231956 0.05025327 2.90480754 0.09586448 4.35742188 0.13671875 C7.8876612 0.24600453 11.41148304 0.41798067 14.9375 0.625 C13.2870058 9.75159701 7.24104067 16.55844074 1.0625 23.1875 C0.55074219 23.7429248 0.03898437 24.29834961 -0.48828125 24.87060547 C-2.86058169 27.41139315 -5.21301627 29.75248875 -7.87109375 32.00390625 C-12.4141681 36.03422646 -12.4141681 36.03422646 -14.28955078 41.6484375 C-14.28165521 45.70500846 -13.83984178 49.69959553 -13.421875 53.73046875 C-11.93370006 69.38397832 -18.81352401 85.33501829 -28.0625 97.625 C-34.7501994 105.40479846 -42.58314769 112.97427017 -53.0625 114.625 C-55.72916667 109.29166667 -58.39583333 103.95833333 -61.0625 98.625 C-61.62167114 97.57699219 -61.62167114 97.57699219 -62.19213867 96.5078125 C-63.0625 94.625 -63.0625 94.625 -62.93359375 92.609375 C-61.79266583 90.0103105 -60.28475742 88.70278748 -58.125 86.875 C-57.41472656 86.26140625 -56.70445312 85.6478125 -55.97265625 85.015625 C-54.0625 83.625 -54.0625 83.625 -52.0625 83.625 C-51.794375 83.05394531 -51.52625 82.48289062 -51.25 81.89453125 C-50.01904622 79.54195182 -48.59947033 77.47578574 -47.0625 75.3125 C-43.15299792 69.49592374 -41.96501333 64.59529688 -42.0625 57.625 C-43.26261719 58.13289062 -44.46273437 58.64078125 -45.69921875 59.1640625 C-63.52538125 66.58093222 -80.78359296 71.9485733 -100.0625 73.625 C-100.7225 64.715 -101.3825 55.805 -102.0625 46.625 C-98.494375 45.944375 -94.92625 45.26375 -91.25 44.5625 C-66.83813508 39.61990421 -38.32823254 29.091258 -23.18237305 8.0078125 C-16.68661946 -0.89649748 -10.07063932 -0.60922712 0 0 Z " fill="#F5911D" transform="translate(318.0625,635.375)"/>
<path d="M0 0 C8.68786567 3.88081449 16.1227746 8.92136233 23.1875 15.25 C23.69216797 15.69682129 24.19683594 16.14364258 24.71679688 16.60400391 C28.73451732 20.33688596 31.29970593 23.98054534 32.0859375 29.46875 C32.00021091 39.41303431 32.00021091 39.41303431 28.6875 43.6875 C16.63673853 49.9280729 -1.57487579 49.88864503 -14.4609375 45.859375 C-29.14012383 39.82683267 -47.901866 30.98266734 -55.59765625 16.22265625 C-57.0636493 11.02358799 -57.72374817 4.6280689 -55.33203125 -0.35546875 C-43.94310388 -14.54782439 -14.19323823 -5.4672933 0 0 Z " fill="#000102" transform="translate(596.3125,485.3125)"/>
<path d="M0 0 C-0.88636136 5.23769361 -2.96853721 9.28137082 -5.4375 13.9375 C-5.87763428 14.77780762 -6.31776855 15.61811523 -6.77124023 16.48388672 C-9.66047845 21.86900471 -12.86419741 26.76869098 -16.5625 31.625 C-20.33664552 36.68315527 -22.89592482 40.53880099 -22 47 C-21.27032806 50.49652043 -20.46313297 53.97067147 -19.65234375 57.44921875 C-17.17633301 70.92642688 -22.61786274 84.86628478 -30 96 C-34.72333127 102.26861866 -39.69477911 108.26823387 -46 113 C-49.25829371 111.6167621 -50.93662383 110.15201519 -53.015625 107.3046875 C-53.54414063 106.58925781 -54.07265625 105.87382813 -54.6171875 105.13671875 C-55.15601563 104.39035156 -55.69484375 103.64398437 -56.25 102.875 C-56.80429687 102.12089844 -57.35859375 101.36679687 -57.9296875 100.58984375 C-59.29384103 98.73177256 -60.65020178 96.86851184 -62 95 C-60.23218154 91.21412393 -58.19377148 88.74812895 -55 86 C-52.33203125 85.35546875 -52.33203125 85.35546875 -50 85 C-47.62471127 77.0258164 -45.7207421 69.89755861 -46.25 61.5 C-46.70196407 45.08401937 -38.37647746 28.15982934 -30.88671875 13.85009766 C-29.82745048 11.73603791 -29.82745048 11.73603791 -28.75 8.29296875 C-23.90068205 -4.10454352 -11.26583612 -1.0725439 0 0 Z " fill="#F3901D" transform="translate(449,636)"/>
<path d="M0 0 C-1.15642132 3.46926395 -2.01694644 3.97198451 -4.9375 6 C-7.7269604 7.94401596 -9.06784883 9.10177325 -11 12 C-11.72647249 18.12312525 -10.69723112 21.34127163 -7.2890625 26.43359375 C-6.06559576 28.13655963 -6.06559576 28.13655963 -4 29 C2.17877357 29.52499383 7.79823328 29.77128087 13 26 C14.88131569 23.45211147 14.88131569 23.45211147 16 21 C16.66 21.33 17.32 21.66 18 22 C18.99858356 32.03021711 16.03597486 40.66633148 9.6875 48.5 C3.3093548 55.19844507 -4.11881436 57.13236229 -13.125 57.4375 C-21.68565951 57.50379746 -26.90179983 54.8493531 -33.05859375 49.06640625 C-39.17574416 42.54229365 -41.56290014 36.3918544 -41.4375 27.5625 C-41.42920166 26.8111377 -41.42090332 26.05977539 -41.41235352 25.28564453 C-41.24232298 19.7272797 -40.57896472 15.42857058 -37 11 C-36.51402344 10.39027344 -36.02804687 9.78054688 -35.52734375 9.15234375 C-26.53999734 -0.85484339 -12.86782763 -4.28927588 0 0 Z " fill="#040404" transform="translate(701,352)"/>
<path d="M0 0 C29.37 0 58.74 0 89 0 C87.49170039 3.01659921 84.68260697 3.78717006 81.75 5.1875 C73.67023724 9.13676279 65.67179128 13.23703017 57.6875 17.375 C57.05475159 17.70266357 56.42200317 18.03032715 55.77008057 18.36791992 C48.20917943 22.28394942 40.6570403 26.21618002 33.125 30.1875 C32.40280273 30.5680957 31.68060547 30.94869141 30.93652344 31.34082031 C27.62417631 33.08717066 24.3124796 34.83472532 21.00244141 36.58544922 C17.81617264 38.26921028 14.62705191 39.94746811 11.4375 41.625 C10.43025879 42.15891357 9.42301758 42.69282715 8.38525391 43.24291992 C7.45245605 43.73252197 6.5196582 44.22212402 5.55859375 44.7265625 C4.72642334 45.16564941 3.89425293 45.60473633 3.03686523 46.05712891 C1 47 1 47 -1 47 C-0.67 31.49 -0.34 15.98 0 0 Z " fill="#F39120" transform="translate(826,479)"/>
<path d="M0 0 C3.97240226 1.32413409 7.32179507 2.53120628 11.00683594 4.34399414 C11.95895966 4.81012115 12.91108337 5.27624817 13.89205933 5.75650024 C14.9125235 6.26095673 15.93298767 6.76541321 16.984375 7.28515625 C18.06067169 7.81362152 19.13696838 8.34208679 20.24588013 8.88656616 C23.14869788 10.31301652 26.04978269 11.74291503 28.9500351 13.17457199 C31.35889085 14.36286765 33.76920555 15.54818735 36.17951775 16.73352528 C50.79226986 23.92039662 65.37836075 31.15967128 79.92987061 38.4697876 C89.27113327 43.16200238 98.6545184 47.75268863 108.10131836 52.22949219 C117.47289647 56.67608237 126.74082334 61.32477498 136 66 C132.24194522 67.09850068 130.44311786 66.69999819 126.75 65.3125 C121.98629719 63.62643791 117.22335222 62.23925252 112.3125 61.0625 C102.34557882 58.64551864 92.51043908 55.80287774 82.7578125 52.62890625 C71.46334073 48.96008953 60.06684469 45.80883312 48.58129883 42.8034668 C42.50446139 41.21238065 36.46611504 39.56422116 30.4597168 37.72583008 C24.72959914 36.03494772 18.91755481 34.62916034 13.12695312 33.16210938 C12.15048828 32.91138672 11.17402344 32.66066406 10.16796875 32.40234375 C9.29422607 32.18054443 8.4204834 31.95874512 7.52026367 31.73022461 C4.95877224 30.98805461 2.4761021 29.99044084 0 29 C0 19.43 0 9.86 0 0 Z " fill="#FEFBF8" transform="translate(826,295)"/>
<path d="M0 0 C1.18613892 0.00785522 1.18613892 0.00785522 2.39624023 0.01586914 C3.67724609 0.02070312 3.67724609 0.02070312 4.98413086 0.02563477 C5.88196289 0.03401367 6.77979492 0.04239258 7.70483398 0.05102539 C8.6065332 0.05553711 9.50823242 0.06004883 10.43725586 0.06469727 C12.67234712 0.07652315 14.90730835 0.09300319 17.14233398 0.11352539 C15.7441047 4.50130206 14.07000062 8.69022581 12.26733398 12.92602539 C8.88227618 21.09775027 6.9399124 29.47457501 5.14233398 38.11352539 C3.14233398 37.11352539 3.14233398 37.11352539 2.36450195 35.31030273 C1.56002189 32.70852274 0.77096625 30.10557386 0.01733398 27.48852539 C-0.25473877 26.54460938 -0.52681152 25.60069336 -0.80712891 24.62817383 C-2.95898638 16.68802827 -3.81650815 9.3183011 -2.85766602 1.11352539 C-1.85766602 0.11352539 -1.85766602 0.11352539 0 0 Z " fill="#00A5E3" transform="translate(458.857666015625,635.886474609375)"/>
<path d="M0 0 C1.4990539 1.67608503 2.92799326 3.41561832 4.3125 5.1875 C6.93435852 8.48624356 9.51746941 11.64797072 12.5625 14.5625 C13.366875 15.366875 14.17125 16.17125 15 17 C15 17.66 15 18.32 15 19 C12.44114774 20.01031065 9.87859624 21.00840145 7.3125 22 C6.59126953 22.28617188 5.87003906 22.57234375 5.12695312 22.8671875 C1.28959679 24.3390502 -1.81566589 25.39614998 -6 25 C-9.17850284 17.58349338 -10.55099557 9.89244967 -12 2 C-10.56656 1.46809459 -9.12804633 0.94984742 -7.6875 0.4375 C-6.48673828 0.00244141 -6.48673828 0.00244141 -5.26171875 -0.44140625 C-3 -1 -3 -1 0 0 Z " fill="#F3901D" transform="translate(360,691)"/>
<path d="M0 0 C19.47 0 38.94 0 59 0 C55.79288708 1.60355646 53.94741872 2.34808008 50.57373047 2.94555664 C49.70537567 3.1023439 48.83702087 3.25913116 47.94235229 3.42066956 C46.54389572 3.66296547 46.54389572 3.66296547 45.1171875 3.91015625 C43.66301926 4.16870644 43.66301926 4.16870644 42.17947388 4.43247986 C40.12733696 4.79594243 38.07465633 5.15634654 36.02148438 5.51391602 C32.90616758 6.05706599 29.79286075 6.61072617 26.6796875 7.16601562 C24.67979869 7.51885995 22.67980187 7.87109277 20.6796875 8.22265625 C19.29944901 8.46798851 19.29944901 8.46798851 17.8913269 8.71827698 C11.93836992 9.74906294 6.01782275 10.45979986 0 11 C0 7.37 0 3.74 0 0 Z " fill="#FEFDFB" transform="translate(826,485)"/>
<path d="M0 0 C19.47 0 38.94 0 59 0 C55.52630934 1.73684533 53.92380063 2.30084112 50.25 2.625 C49.45078125 2.69976562 48.6515625 2.77453125 47.828125 2.8515625 C47.22484375 2.90054687 46.6215625 2.94953125 46 3 C46 2.34 46 1.68 46 1 C31.15 1 16.3 1 1 1 C1 3.97 1 6.94 1 10 C1.66 10.33 2.32 10.66 3 11 C2.01 11 1.02 11 0 11 C0 7.37 0 3.74 0 0 Z " fill="#FBF5EE" transform="translate(826,485)"/>
<path d="M0 0 C7.92 0 15.84 0 24 0 C20.52630934 1.73684533 18.92380063 2.30084112 15.25 2.625 C14.05117188 2.73714844 14.05117188 2.73714844 12.828125 2.8515625 C12.22484375 2.90054687 11.6215625 2.94953125 11 3 C11 2.34 11 1.68 11 1 C7.37 1 3.74 1 0 1 C0 0.67 0 0.34 0 0 Z " fill="#FDF1E2" transform="translate(861,485)"/>
</svg>
