<?xml version="1.0" encoding="UTF-8"?>
<svg version="1.1" xmlns="http://www.w3.org/2000/svg" width="2360" height="1770">
<path d="M0 0 C9.22007181 0.33760708 18.44125237 0.57136261 27.66479874 0.78738785 C28.45392643 0.80589157 29.24305412 0.82439529 30.05609477 0.84345973 C33.34534597 0.92039338 36.63460494 0.99698106 39.92387587 1.07306677 C49.45141948 1.29368761 58.97862994 1.52769204 68.50586319 1.7612648 C72.08455496 1.84886715 75.66324982 1.93634201 79.24194717 2.02371597 C80.13270173 2.04546554 81.02345629 2.06721511 81.94120342 2.08962375 C88.248106 2.24333066 94.55507039 2.39431856 100.86206436 2.54422379 C123.27502593 3.07777377 145.6867251 3.64333204 168.09670162 4.29114437 C170.02887123 4.34661963 171.96108059 4.40070479 173.89329147 4.45472336 C180.07710359 4.62885026 186.25916505 4.82266477 192.440588 5.0680294 C194.10354353 5.13149691 195.76680038 5.18763473 197.4302845 5.23527718 C210.556767 5.62304462 219.30660119 8.77195977 228.91406631 17.89603043 C238.77727075 28.87846373 237.25739573 42.63852957 237.12305069 56.50464249 C237.11129919 58.13813816 237.10006223 59.7716376 237.08929253 61.40514004 C237.06503341 64.943581 237.03756086 68.48197701 237.00760651 72.0203743 C236.95903769 77.77882735 236.91807123 83.5373192 236.87863541 89.29584122 C236.87182074 90.28854028 236.86500607 91.28123933 236.8579849 92.30402018 C236.84397161 94.34646046 236.82997886 96.38890088 236.81600595 98.43134144 C236.79416471 101.59022521 236.77164404 104.74910356 236.74899483 107.90798163 C236.63974199 123.2835639 236.55729386 138.65915359 236.49072647 154.03497696 C236.48587683 155.14804363 236.48102719 156.26111031 236.47603059 157.40790628 C236.43123585 167.73910225 236.38830481 178.07030556 236.3469162 188.40151572 C236.31849928 195.47895578 236.28912526 202.55639129 236.25879288 209.63382339 C236.2537681 210.8093041 236.24874332 211.98478481 236.24356627 213.19588615 C236.16039154 232.25090439 236.02007451 251.30511203 235.85972929 270.35961853 C235.69637565 289.93625536 235.59778303 309.51246486 235.55835724 329.08974659 C235.53194648 341.15877076 235.45470248 353.22526895 235.31196487 365.29348733 C235.21890541 373.56441086 235.18851669 381.83408822 235.2071811 390.10550819 C235.21607938 394.87625429 235.19751084 399.64267538 235.10415649 404.4126091 C233.68906872 424.04895767 233.68906872 424.04895767 240.80426407 441.15305328 C244.27483656 443.95432145 247.89933455 445.81752012 252.03429413 447.44583917 C255.28872682 448.85722998 257.78310766 450.8967103 260.55469131 453.09915543 C261.50344131 453.8184523 262.45219131 454.53774918 263.42969131 455.27884293 C275.99516085 464.95863777 288.02792421 475.19978677 299.64648819 485.99173355 C301.09056755 487.32458236 302.54908688 488.64173143 304.00781631 489.95853043 C314.21269267 499.18111921 324.37990258 508.68316878 333.25781631 519.20853043 C335.91861292 522.27180047 338.71438559 525.20467453 341.49219131 528.16165543 C346.21813848 533.20924634 350.69221091 538.38240717 355.01562881 543.78274918 C357.09720558 546.32474906 359.26757512 548.74444878 361.49219131 551.16165543 C365.53064945 555.59274143 369.21957527 560.22796531 372.88794327 564.96341324 C376.05349586 569.03600254 379.32078465 572.99748396 382.67969131 576.91165543 C395.92333323 592.38225067 395.92333323 592.38225067 399.14307022 598.20413589 C400.85043177 601.12356486 402.12062812 602.9533932 405.32666397 604.22659683 C408.12275758 604.85906548 410.90548689 605.31054089 413.74219131 605.72415543 C464.04389216 614.73944534 506.31565201 642.54059966 541.99219131 677.97415543 C542.72242508 678.69621674 542.72242508 678.69621674 543.46741104 679.43286514 C550.14577767 686.05547049 556.28874757 692.96416731 562.11719131 700.34915543 C562.9750816 701.40919909 563.83311549 702.46912658 564.69141006 703.52884293 C576.46647464 718.54694746 586.81643134 734.69654991 596.11719131 751.34915543 C596.51325577 752.05088882 596.90932022 752.75262222 597.31738663 753.47562027 C626.03582584 804.73214271 641.93567432 865.10399819 648.42969131 923.22415543 C648.55220261 924.32053329 648.55220261 924.32053329 648.67718887 925.43906021 C650.50684953 942.13182015 651.32957986 958.80906826 651.30469131 975.59915543 C651.30408707 976.36818192 651.30348282 977.1372084 651.30286026 977.92953873 C651.11379447 1067.80265201 625.98718577 1159.92929544 573.11719131 1233.34915543 C572.57981339 1234.10293472 572.04243546 1234.85671402 571.48877335 1235.63333511 C556.23556588 1256.98347372 538.77856116 1276.81389967 519.57422256 1294.72024918 C511.63625211 1303.21349896 500.11719131 1324.64943146 500.11719131 1336.34915543 C544.03983112 1354.18534319 588.50671082 1370.63989981 633.07812881 1386.77493668 C633.71746605 1387.00638067 634.35680328 1387.23782467 635.01551437 1387.47628212 C641.91624363 1389.97390172 648.81847311 1392.4673087 655.72266006 1394.9553566 C662.52518738 1397.40805773 669.32266853 1399.87437346 676.11719131 1402.34915543 C677.85676102 1402.98095718 677.85676102 1402.98095718 679.63147354 1403.62552261 C683.01773357 1404.85873127 686.40001478 1406.10225554 689.78125381 1407.34915543 C690.81124496 1407.72314468 691.84123611 1408.09713394 692.90243912 1408.48245621 C693.83907394 1408.83034195 694.77570877 1409.17822769 695.74072647 1409.53665543 C696.56513229 1409.83958511 697.38953812 1410.1425148 698.23892593 1410.45462418 C700.11719131 1411.34915543 700.11719131 1411.34915543 701.11719131 1413.34915543 C640.47352138 1424.29370067 579.70763583 1434.26924825 518.73630142 1443.21479034 C516.1309963 1443.59712949 513.52582524 1443.98037315 510.92065811 1444.36365128 C494.05285979 1446.84199472 477.18312469 1449.26285825 460.26394272 1451.36575317 C458.14088201 1451.63038492 456.01828569 1451.89845538 453.8958168 1452.16778946 C447.47585093 1452.98126571 441.05498048 1453.76974473 434.62500381 1454.50052261 C432.39046907 1454.77821154 430.15608356 1455.05710506 427.92187881 1455.33743668 C426.43891815 1455.48850624 426.43891815 1455.48850624 424.92599869 1455.64262772 C417.79937131 1456.58378096 414.02646185 1459.20203113 409.11719131 1464.34915543 C407.85772697 1465.58970635 406.59742542 1466.82940841 405.33594131 1468.06790543 C404.09453476 1469.32652641 402.85497509 1470.58697147 401.61719131 1471.84915543 C397.22129403 1476.2877156 392.83473697 1480.65558555 388.05859756 1484.68899918 C385.58274135 1486.80618005 383.20057863 1489.01697372 380.80469131 1491.22415543 C376.39365958 1495.24296136 371.87983774 1499.07780866 367.23437881 1502.82181168 C364.90481189 1504.69963459 362.60461735 1506.60939659 360.31250381 1508.53274918 C349.8912617 1517.25394978 339.13488505 1525.39880346 328.11719131 1533.34915543 C326.89041836 1534.24209553 325.66383938 1535.13530223 324.43750381 1536.02884293 C251.83628256 1588.67716005 170.18739821 1625.6921101 37.11719131 1667.34915543 C36.29339981 1667.56918228 35.46960831 1667.78920914 34.62085342 1668.01590347 C-52.8867584 1691.32781458 -143.51176885 1703.79098369 -233.88280869 1708.34915543 C-234.85520618 1708.3983601 -234.85520618 1708.3983601 -235.84724808 1708.44855881 C-310.64309079 1712.2175806 -386.1609257 1714.39970853 -460.88280869 1708.34915543 C-461.97957932 1708.26194229 -463.07634995 1708.17472916 -464.20635605 1708.0848732 C-535.84917827 1702.36249223 -607.44654868 1692.55188964 -677.59765244 1676.74759293 C-678.54476593 1676.5350386 -679.49187943 1676.32248428 -680.46769333 1676.10348892 C-684.95366708 1675.09361901 -689.43414289 1674.06592138 -693.90795517 1673.0034523 C-695.50107279 1672.63664334 -697.09424982 1672.27009229 -698.68749619 1671.90384293 C-699.38845917 1671.73041367 -700.08942215 1671.55698441 -700.81162643 1671.37829971 C-708.19135942 1669.70985762 -714.86957694 1670.64874123 -721.91015244 1673.36087418 C-723.0141539 1673.78159195 -724.11815536 1674.20230972 -725.25561142 1674.63577652 C-726.43196152 1675.09806656 -727.60831161 1675.5603566 -728.82030869 1676.03665543 C-730.08845304 1676.52748216 -731.35676812 1677.017868 -732.62524033 1677.50784683 C-765.74577551 1690.3659457 -798.28507083 1704.60905938 -830.73485947 1719.05789566 C-905.11865586 1752.17434127 -905.11865586 1752.17434127 -939.69530869 1765.97415543 C-940.61392685 1766.34677505 -941.53254501 1766.71939468 -942.47900009 1767.10330582 C-943.29932724 1767.42420181 -944.11965439 1767.74509781 -944.96483994 1768.07571793 C-945.65811386 1768.34980484 -946.35138779 1768.62389175 -947.06567001 1768.90628433 C-948.88280869 1769.34915543 -948.88280869 1769.34915543 -951.88280869 1768.34915543 C-953.05517197 1766.59134293 -953.05517197 1766.59134293 -954.20312119 1764.22415543 C-954.64760605 1763.31029068 -955.09209091 1762.39642593 -955.55004501 1761.45486832 C-956.03110703 1760.42998306 -956.51216904 1759.40509781 -957.00780869 1758.34915543 C-957.51916367 1757.27206314 -958.03051865 1756.19497086 -958.55736923 1755.08523941 C-966.62738187 1737.78861931 -973.75596123 1720.05042063 -980.88280869 1702.34915543 C-981.22471237 1701.50423538 -981.56661606 1700.65931534 -981.91888046 1699.78879166 C-982.91871534 1697.31070343 -983.90827023 1694.82876793 -984.89452744 1692.34524918 C-985.19687805 1691.59759796 -985.49922867 1690.84994675 -985.81074142 1690.07963943 C-987.1884935 1686.5753487 -987.88280869 1684.16789887 -987.88280869 1680.34915543 C-981.912379 1677.80407338 -975.94143419 1675.2602023 -969.97011948 1672.71719742 C-967.82503009 1671.80365806 -965.67999038 1670.89000207 -963.53499985 1669.97623062 C-952.55579759 1665.29980634 -941.57551055 1660.62670063 -930.56640244 1656.02103043 C-929.77474182 1655.68977661 -928.98308121 1655.3585228 -928.16743088 1655.01723099 C-927.38925507 1654.69162689 -926.61107925 1654.3660228 -925.80932236 1654.03055191 C-911.62241626 1648.09375489 -897.49702563 1642.03742246 -883.44530869 1635.78665543 C-882.34444427 1635.29727493 -882.34444427 1635.29727493 -881.22134018 1634.79800797 C-874.98820656 1632.02333388 -868.75909946 1629.24360933 -862.58935165 1626.33011246 C-861.89776459 1626.00382355 -861.20617752 1625.67753464 -860.49363327 1625.34135818 C-859.17680351 1624.71776626 -857.86165463 1624.09060848 -856.54847336 1623.45936966 C-852.10081345 1621.34915543 -852.10081345 1621.34915543 -849.88280869 1621.34915543 C-849.88280869 1620.68915543 -849.88280869 1620.02915543 -849.88280869 1619.34915543 C-850.7149791 1619.09641861 -851.54714951 1618.84368179 -852.4045372 1618.58328629 C-856.29723663 1617.20211161 -859.86150074 1615.4761558 -863.53515244 1613.60306168 C-864.26324112 1613.23625793 -864.9913298 1612.86945419 -865.74148178 1612.49153519 C-867.29676508 1611.70774332 -868.85118661 1610.92223947 -870.40481186 1610.13516617 C-874.48422278 1608.0688405 -878.56996322 1606.01513155 -882.65624619 1603.96243668 C-883.86471962 1603.35509186 -883.86471962 1603.35509186 -885.09760666 1602.73547745 C-891.34067342 1599.60479036 -897.62624779 1596.57354032 -903.94530869 1593.59915543 C-912.33773281 1589.62896704 -920.63388531 1585.4835082 -928.88280869 1581.22415543 C-930.02846298 1580.63271744 -931.17411728 1580.04127945 -932.35448837 1579.4319191 C-939.80440308 1575.54149247 -946.9763025 1571.39543614 -953.96483994 1566.72806168 C-958.30277778 1564.67813924 -961.44390948 1565.85617094 -965.87353134 1567.37381363 C-966.92073349 1567.79493423 -967.96793564 1568.21605484 -969.04687119 1568.64993668 C-970.23546738 1569.12560074 -971.42406357 1569.6012648 -972.64867783 1570.09134293 C-973.93525233 1570.61429467 -975.22162352 1571.13774684 -976.50780869 1571.66165543 C-977.86381449 1572.20991317 -979.21985349 1572.7580888 -980.57592392 1573.30618668 C-1012.26779693 1586.15501972 -1043.42098422 1600.29069193 -1074.62817001 1614.26362991 C-1154.02301721 1649.80443755 -1154.02301721 1649.80443755 -1189.88280869 1661.34915543 C-1204.01299064 1641.70784112 -1212.3162571 1617.70688422 -1220.94530869 1595.28665543 C-1221.23497513 1594.53837479 -1221.52464157 1593.79009415 -1221.82308578 1593.01913834 C-1222.65299106 1590.86988663 -1223.47441409 1588.7175973 -1224.29296494 1586.56399918 C-1224.54041458 1585.92424652 -1224.78786423 1585.28449387 -1225.04281235 1584.62535477 C-1226.44960516 1580.88583275 -1227.35755084 1577.30887905 -1227.88280869 1573.34915543 C-1222.44568213 1571.05660211 -1217.00810385 1568.76512237 -1211.57030869 1566.47415543 C-1210.72825882 1566.11935104 -1209.88620895 1565.76454666 -1209.01864243 1565.39899063 C-1198.12290112 1560.80870317 -1187.22129008 1556.23282741 -1176.31116867 1551.67682266 C-1113.85438353 1525.64616932 -1113.85438353 1525.64616932 -1052.88280869 1496.34915543 C-1052.88280869 1495.68915543 -1052.88280869 1495.02915543 -1052.88280869 1494.34915543 C-1054.51065183 1492.74038857 -1056.16462054 1491.23262896 -1057.88280869 1489.72415543 C-1064.89845504 1483.40864486 -1071.58377999 1476.77039312 -1078.25780869 1470.09915543 C-1078.7789122 1469.58036819 -1079.30001572 1469.06158096 -1079.83691025 1468.52707291 C-1085.7389695 1462.64843085 -1091.48999074 1456.70491382 -1096.88280869 1450.34915543 C-1097.83177747 1449.26576273 -1098.78224645 1448.18368185 -1099.73437119 1447.10306168 C-1156.27236736 1382.28088852 -1195.2703513 1301.11319653 -1222.88280869 1192.34915543 C-1231.57327104 1195.34308675 -1240.03633292 1198.54445499 -1248.38280869 1202.41165543 C-1249.41051376 1202.88643326 -1250.43821884 1203.36121109 -1251.4970665 1203.85037613 C-1270.14044134 1212.58427381 -1287.85146866 1223.13806451 -1305.69530869 1233.37552261 C-1311.62486142 1236.77661206 -1317.56256848 1240.16307043 -1323.50780869 1243.53665543 C-1324.41264999 1244.05284439 -1325.3174913 1244.56903336 -1326.24975204 1245.10086441 C-1330.59744455 1247.56451616 -1334.973217 1249.9679521 -1339.40624619 1252.27493668 C-1340.62320175 1252.90975967 -1340.62320175 1252.90975967 -1341.86474228 1253.55740738 C-1342.53070419 1253.81868423 -1343.19666611 1254.07996109 -1343.88280869 1254.34915543 C-1344.54280869 1254.01915543 -1345.20280869 1253.68915543 -1345.88280869 1253.34915543 C-1333.49381401 1234.60795001 -1320.82064606 1216.11183518 -1307.63378525 1197.92142105 C-1302.50895849 1190.84947166 -1297.46610207 1183.72188406 -1292.44823837 1176.5737648 C-1290.8203027 1174.26032907 -1289.18401473 1171.95295746 -1287.54687119 1169.64603043 C-1274.15896691 1150.72829842 -1261.61586365 1131.3354874 -1249.88280869 1111.34915543 C-1309.17375372 1134.49882555 -1367.46633296 1159.92272988 -1425.67470932 1185.65213394 C-1432.86652038 1188.83102481 -1440.05874886 1192.00897054 -1447.25121689 1195.18637466 C-1449.83628094 1196.32859693 -1452.42108013 1197.47141692 -1455.00585556 1198.61429214 C-1488.04182309 1213.21627947 -1521.19258081 1227.57307674 -1554.60274887 1241.30090714 C-1555.98536151 1241.86962754 -1557.36699617 1242.44073199 -1558.7475853 1243.01434708 C-1560.60843692 1243.78613589 -1562.47400124 1244.54653367 -1564.33983994 1245.30618668 C-1565.37084824 1245.72875748 -1566.40185654 1246.15132828 -1567.46410751 1246.58670425 C-1569.88280869 1247.34915543 -1569.88280869 1247.34915543 -1571.88280869 1246.34915543 C-1573.07928192 1243.49559666 -1574.16468611 1240.65793886 -1575.20702744 1237.74759293 C-1575.54079391 1236.83388428 -1575.87456039 1235.92017563 -1576.21844101 1234.97877884 C-1577.34256573 1231.89634578 -1578.45638959 1228.81028988 -1579.57030869 1225.72415543 C-1580.36855361 1223.52819433 -1581.1674788 1221.33248041 -1581.9670372 1219.13699722 C-1583.69541881 1214.38872329 -1585.41996653 1209.63907761 -1587.14257431 1204.88870621 C-1589.68199516 1197.89277257 -1592.24195946 1190.90451286 -1594.80797386 1183.91829681 C-1607.05648529 1150.56815895 -1619.06091171 1117.14159893 -1630.75201035 1083.59115982 C-1631.89544243 1080.31293441 -1633.0417343 1077.03572264 -1634.18896103 1073.75882339 C-1648.36558358 1033.26123794 -1648.36558358 1033.26123794 -1654.94530869 1013.03665543 C-1655.15608047 1012.39422897 -1655.36685226 1011.75180252 -1655.58401108 1011.0899086 C-1656.1602796 1009.32821462 -1656.72692112 1007.56337998 -1657.29296494 1005.79837418 C-1657.75908188 1004.34950821 -1657.75908188 1004.34950821 -1658.23461533 1002.87137222 C-1658.88280869 1000.34915543 -1658.88280869 1000.34915543 -1658.88280869 996.34915543 C-1657.8785434 996.22768646 -1656.87427811 996.1062175 -1655.83958054 995.98106766 C-1609.588489 990.38241173 -1563.35065058 984.69476966 -1517.19530869 978.34915543 C-1516.27229965 978.22227467 -1515.34929062 978.09539391 -1514.39831161 977.96466827 C-1486.4809075 974.12334084 -1458.57693555 970.18515678 -1430.67187119 966.25540543 C-1429.88346619 966.1443824 -1429.0950612 966.03335938 -1428.28276515 965.91897202 C-1411.66079603 963.57816965 -1395.03915088 961.23511432 -1378.41897488 958.88161087 C-1371.76646842 957.93958302 -1365.11379547 956.99873374 -1358.46103168 956.05852509 C-1357.0351214 955.85698841 -1355.60921883 955.65539722 -1354.1833241 955.45375061 C-1335.20993653 952.77076971 -1316.23184757 950.13508892 -1297.22080612 947.73062515 C-1296.51985006 947.64103027 -1295.818894 947.55143539 -1295.09669685 947.45912552 C-1293.27862155 947.22714509 -1291.46007734 946.99884737 -1289.64149094 946.77090836 C-1286.80306979 946.41658964 -1286.80306979 946.41658964 -1283.88280869 945.34915543 C-1316.18820466 936.18896253 -1348.59725654 927.45537486 -1381.07030869 918.91165543 C-1382.03287457 918.65834709 -1382.99544044 918.40503876 -1383.98717499 918.14405441 C-1397.95682375 914.4680748 -1411.92838504 910.79938962 -1425.90030289 907.13204575 C-1471.0124242 895.29037788 -1516.12085549 883.43882761 -1561.13545609 871.23060226 C-1563.62697062 870.5551811 -1566.11877456 869.88083787 -1568.61065292 869.20676041 C-1585.62433943 864.60179053 -1602.6154405 859.91628414 -1619.56317329 855.07366753 C-1621.27407858 854.58569835 -1622.98571459 854.10028348 -1624.69809532 853.61751747 C-1627.06104074 852.95029064 -1629.42083497 852.27292939 -1631.78002548 851.59256363 C-1632.84180921 851.29568995 -1632.84180921 851.29568995 -1633.92504311 850.99281883 C-1635.59623544 850.50461184 -1637.24311852 849.93451517 -1638.88280869 849.34915543 C-1639.21280869 848.68915543 -1639.54280869 848.02915543 -1639.88280869 847.34915543 C-1638.88436622 844.66071691 -1637.81547856 842.0815053 -1636.64843369 839.46634293 C-1636.29935455 838.66810608 -1635.95027542 837.86986923 -1635.59061813 837.04744339 C-1634.44594083 834.43611426 -1633.28976012 831.83006708 -1632.13280869 829.22415543 C-1631.34404937 827.43389852 -1630.55572036 825.64345196 -1629.76781845 823.85281754 C-1624.3006901 811.45151247 -1618.79985821 799.06409313 -1613.02343369 786.80325699 C-1611.91231773 784.41264535 -1610.84731059 782.00573253 -1609.78905869 779.59134293 C-1604.85705266 768.61357398 -1599.34104224 763.38387182 -1588.05858994 758.92728043 C-1580.43571711 756.04200504 -1572.67714733 754.14405968 -1564.75780869 752.28665543 C-1556.30964632 750.29367958 -1548.02796472 748.26881083 -1539.92626572 745.08572769 C-1537.88280869 744.34915543 -1537.88280869 744.34915543 -1535.88280869 744.34915543 C-1539.29649424 734.57456511 -1544.55450603 726.50175483 -1550.64037704 718.1987648 C-1557.97440871 708.15477756 -1565.19241463 698.10663287 -1563.60937119 685.10306168 C-1562.06477235 678.46576377 -1558.39904861 672.9476337 -1554.91186142 667.18899918 C-1546.49365036 653.19227409 -1540.39254749 637.98858252 -1533.89730453 623.0369606 C-1529.52359359 612.97650753 -1525.02559112 603.04532276 -1519.88280869 593.34915543 C-1519.25125381 592.14214744 -1518.61974408 590.93511582 -1517.98827744 589.72806168 C-1515.17209538 584.40992419 -1512.27293544 579.3164281 -1508.88280869 574.34915543 C-1503.60552189 575.98910909 -1499.60788101 579.31621576 -1495.25780869 582.59915543 C-1493.54697912 583.8753418 -1491.83603855 585.15137937 -1490.12499619 586.42728043 C-1489.25326767 587.08019058 -1488.38153915 587.73310074 -1487.48339462 588.40579605 C-1483.46554259 591.4082465 -1479.42379769 594.37796376 -1475.38280869 597.34915543 C-1473.79934425 598.51564415 -1472.2160113 599.68231137 -1470.63280869 600.84915543 C-1469.84905869 601.42665543 -1469.06530869 602.00415543 -1468.25780869 602.59915543 C-1465.88280869 604.34915543 -1463.50780869 606.09915543 -1461.13280869 607.84915543 C-1460.34921982 608.42649429 -1459.56563095 609.00383316 -1458.75829697 609.59866714 C-1457.17317241 610.76673941 -1455.58821174 611.93503411 -1454.00341415 613.10354996 C-1450.07379238 616.00054684 -1446.14150516 618.89376682 -1442.20312119 621.77884293 C-1432.93968087 628.57228978 -1423.76821759 635.47230499 -1414.64892197 642.45804214 C-1409.12218503 646.67884899 -1403.53926073 650.80415644 -1397.88280869 654.84915543 C-1390.39854216 660.2012472 -1383.07207903 665.74059056 -1375.76952744 671.33743668 C-1370.01933909 675.73860723 -1364.22527215 680.07136468 -1358.38280869 684.34915543 C-1350.75530828 689.93563973 -1343.22635979 695.64192129 -1335.71874619 701.38821793 C-1329.98378141 705.76979868 -1324.20521306 710.084585 -1318.38280869 714.34915543 C-1311.65783616 719.2748042 -1305.00234904 724.28272875 -1298.38280869 729.34915543 C-1290.96998506 735.02146465 -1283.50352812 740.61062784 -1275.97655869 746.13040543 C-1270.2500064 750.332418 -1264.55925082 754.57973225 -1258.88280869 758.84915543 C-1250.04341244 765.49413213 -1241.15340253 772.06770358 -1232.2416954 778.61526871 C-1228.28601257 781.52287164 -1224.33459776 784.43626385 -1220.38280869 787.34915543 C-1215.59933416 790.8748848 -1210.81508915 794.39954469 -1206.02733994 797.91946793 C-1204.41658896 799.10426331 -1202.80591131 800.28915838 -1201.19530869 801.47415543 C-1200.41397568 802.0488356 -1199.63264267 802.62351578 -1198.8276329 803.2156105 C-1194.97342722 806.05497994 -1191.13071894 808.9081251 -1187.30858994 811.79056168 C-1186.58308945 812.33760757 -1185.85758896 812.88465347 -1185.11010361 813.44827652 C-1183.75302834 814.47360826 -1182.39759808 815.50112258 -1181.04418564 816.53128433 C-1177.75687908 819.01692576 -1174.47378593 821.3078965 -1170.88280869 823.34915543 C-1158.2274737 802.42615173 -1149.24795654 780.15347735 -1140.51610947 757.3862648 C-1133.45680386 739.00350543 -1126.11499378 720.7643139 -1116.88280869 703.34915543 C-1116.52718857 702.67513687 -1116.17156845 702.00111832 -1115.80517197 701.30667496 C-1110.21934954 690.80828817 -1104.05778612 681.06162403 -1096.05858994 672.18899918 C-1095.59186874 671.66145035 -1095.12514755 671.13390152 -1094.64428329 670.59036636 C-1093.33380192 669.12181495 -1091.9957749 667.67797941 -1090.65624619 666.23587418 C-1088.59685565 663.4561313 -1088.59685565 663.4561313 -1088.91015244 660.12649918 C-1090.12045667 655.42624136 -1091.56641448 650.83735492 -1093.07030869 646.22415543 C-1099.79682534 624.7812053 -1103.68266547 602.68805974 -1105.88280869 580.34915543 C-1106.01429306 579.04849136 -1106.14577744 577.7478273 -1106.28124619 576.40774918 C-1110.33991168 527.31983541 -1102.33853578 476.91478771 -1078.88280869 433.34915543 C-1078.26921494 432.18255386 -1077.65562119 431.0159523 -1077.02343369 429.81399918 C-1069.23441141 415.53948934 -1059.1933464 402.98726198 -1047.88280869 391.34915543 C-1047.34978134 390.79566422 -1046.816754 390.242173 -1046.26757431 389.67190933 C-1034.20241434 377.18285728 -1034.20241434 377.18285728 -1026.88280869 372.34915543 C-1026.22280869 372.34915543 -1025.56280869 372.34915543 -1024.88280869 372.34915543 C-1024.38990341 373.481194 -1023.89699814 374.61323257 -1023.38915634 375.77957535 C-1007.52384335 413.5229584 -1007.52384335 413.5229584 -987.88280869 449.34915543 C-986.86711053 447.72403838 -985.85144779 446.0988992 -984.83593369 444.47366714 C-983.93807922 443.0374301 -983.03962565 441.60156744 -982.14062119 440.16604996 C-979.86117181 436.52447129 -977.58975414 432.87865708 -975.34374619 429.21634293 C-962.35202917 408.08678732 -947.25489634 385.75694375 -925.88280869 372.34915543 C-925.22280869 372.34915543 -924.56280869 372.34915543 -923.88280869 372.34915543 C-922.34308219 375.79442579 -920.80537843 379.24059221 -919.2694664 382.68756485 C-918.71941214 383.92167347 -918.16899625 385.15562097 -917.61822128 386.38940811 C-914.44064979 393.5101173 -911.31924676 400.6477052 -908.32665634 407.84866714 C-905.10053172 415.58458682 -901.61915914 423.06835699 -897.57030869 430.41165543 C-896.95711777 431.52842667 -896.95711777 431.52842667 -896.33153915 432.66775894 C-894.21073972 436.4046756 -892.14578721 439.47444895 -888.88280869 442.34915543 C-887.95661728 441.13292496 -887.95661728 441.13292496 -887.01171494 439.89212418 C-878.43771987 428.66724033 -869.4778022 417.79191381 -860.3198204 407.04056168 C-858.88881867 405.35622936 -857.46543834 403.66569263 -856.04296494 401.97415543 C-849.97535911 394.79039711 -843.70097784 387.84516438 -837.22167587 381.02957535 C-834.31525411 377.96866597 -831.46499321 374.88577593 -828.71972275 371.67898941 C-824.65324714 367.01909705 -820.32666395 362.64900801 -815.94921494 358.28274918 C-815.1124472 357.44502472 -814.27567947 356.60730026 -813.41355515 355.74419022 C-811.65412765 353.98408608 -809.89345215 352.22522865 -808.13158798 350.46756363 C-805.45311457 347.79444571 -802.78001995 345.11603291 -800.10741806 342.43704605 C-798.38833753 340.7186264 -796.66894679 339.00051701 -794.94921494 337.28274918 C-793.76447334 336.09497124 -793.76447334 336.09497124 -792.55579758 334.88319778 C-788.36144717 330.70629863 -784.09064643 326.68286609 -779.59864426 322.82687759 C-777.09262574 320.66862934 -774.68015437 318.41297094 -772.25780869 316.16165543 C-766.19646748 310.56859323 -759.95068007 305.20782692 -753.66503525 299.86966324 C-751.89388355 298.35860396 -750.13298745 296.83643375 -748.37499619 295.31009293 C-741.01447923 288.92857619 -733.50525658 282.79723962 -725.80028915 276.83694839 C-723.74990874 275.24603698 -721.70843963 273.64415542 -719.66796494 272.04056168 C-711.96278801 265.99615183 -704.19980485 260.03991585 -696.32030869 254.22415543 C-695.2796727 253.45494766 -695.2796727 253.45494766 -694.21801376 252.67020035 C-680.49760964 242.60213573 -666.48969651 232.95913429 -652.32030869 223.53665543 C-651.54111069 223.01790848 -650.76191269 222.49916153 -649.95910263 221.96469498 C-608.93475278 194.67540197 -566.19874307 170.23081149 -522.01952744 148.40774918 C-518.94466706 146.88653422 -515.89017266 145.32911012 -512.83983994 143.75931168 C-495.52166776 134.89733169 -477.79723925 127.04157323 -459.97332382 119.26321793 C-458.045874 118.42045455 -456.12034364 117.57352351 -454.19579697 116.72415543 C-380.54519547 84.25828546 -303.41168122 59.07925125 -225.52563095 39.03085709 C-222.96590326 38.37058922 -220.40756051 37.70521916 -217.84960556 37.03812027 C-174.12078074 25.65177265 -129.86816369 16.557409 -85.40771103 8.53665543 C-81.07811138 7.75387738 -76.75366388 6.94869588 -72.43212509 6.12259293 C-67.15292874 5.113553 -61.86754039 4.14607564 -56.57574081 3.20544815 C-54.65034125 2.85707287 -52.72712846 2.49624326 -50.80706406 2.11957169 C-33.82968281 -1.1910389 -17.17482008 -0.64327089 0 0 Z " fill="#000000" transform="translate(1658.8828086853027,0.6508445739746094)"/>
<path d="M0 0 C4.4503873 0.00916068 8.90024813 0.00229599 13.35058594 -0.02050781 C54.97050595 -0.23206031 96.4020993 1.83743564 137.63427734 7.75854492 C139.21841934 7.97873291 139.21841934 7.97873291 140.83456421 8.20336914 C160.27340381 10.9060473 179.51911313 14.28642224 198.69677734 18.44604492 C199.41045471 18.59984619 200.12413208 18.75364746 200.85943604 18.91210938 C235.34084736 26.34775389 235.34084736 26.34775389 248.69677734 32.32104492 C270.31842756 41.65008565 293.63572631 45.61819642 317.13427734 45.63354492 C318.0553125 45.64579102 318.97634766 45.65803711 319.92529297 45.6706543 C342.29076913 45.71408241 364.48957029 42.74590552 386.57177734 39.50854492 C389.01696901 39.15679249 391.4622816 38.80587956 393.90771484 38.45581055 C401.85155476 37.31613146 409.79299497 36.1601545 417.73440552 35.00369263 C433.35611653 32.733052 448.95286304 30.68618351 464.69677734 29.44604492 C465.89254395 29.35033203 467.08831055 29.25461914 468.3203125 29.15600586 C490.54823055 27.59776006 490.54823055 27.59776006 497.94677734 33.75854492 C499.42711224 35.12765784 500.84016334 36.53486892 502.23388672 37.99194336 C504.82724411 40.56971983 507.78565567 42.68110104 510.69677734 44.88354492 C516.45769065 49.38443267 522.04566889 54.07277123 527.60302734 58.82104492 C530.49229055 61.28520456 533.43196192 63.68265492 536.38427734 66.07104492 C540.83581543 69.69438987 545.12060189 73.46568365 549.36474609 77.32885742 C551.45501624 79.22655661 553.56663849 81.09337907 555.69677734 82.94604492 C557.03047993 84.11228945 558.3637639 85.27901276 559.69677734 86.44604492 C560.3597583 87.02217529 561.02273926 87.59830566 561.70581055 88.19189453 C569.35073998 94.9443155 576.53914536 102.13658319 583.73852539 109.35742188 C585.88689601 111.51117014 588.04058428 113.65949719 590.19482422 115.80737305 C591.58511903 117.19832847 592.9751037 118.58959395 594.36474609 119.98120117 C594.99720749 120.61163834 595.62966888 121.2420755 596.28129578 121.89161682 C600.61660973 126.24941234 604.68685599 130.78892008 608.69677734 135.44604492 C609.83606044 136.74279802 610.97651789 138.03852124 612.11865234 139.33276367 C613.22821023 140.59953058 614.33758606 141.86645699 615.44677734 143.13354492 C616.01009766 143.77098633 616.57341797 144.40842773 617.15380859 145.06518555 C617.69908203 145.68973633 618.24435547 146.31428711 618.80615234 146.95776367 C619.29051758 147.50907959 619.77488281 148.06039551 620.27392578 148.62841797 C621.96503067 150.78872611 623.32485452 153.07310588 624.69677734 155.44604492 C618.78542211 157.91545226 612.87178143 160.37841663 606.94287109 162.80541992 C596.57818278 167.06275489 586.31459902 171.43184736 576.2355957 176.33178711 C572.79110295 178.00224916 569.36077953 179.61962381 565.79833984 181.02416992 C550.41791871 187.09626677 540.53065043 198.10573585 530.38427734 210.82104492 C512.54607958 232.75635524 512.54607958 232.75635524 500.03271484 234.90307617 C497.30475449 235.07608841 495.33114403 235.19872112 492.69677734 234.44604492 C490.24755859 232.28198242 490.24755859 232.28198242 487.69677734 229.44604492 C486.82021484 228.49729492 485.94365234 227.54854492 485.04052734 226.57104492 C484.35301392 225.81549316 484.35301392 225.81549316 483.65161133 225.04467773 C473.64799314 214.05228104 463.44890394 203.59025578 451.69677734 194.44604492 C450.73771484 193.6700293 449.77865234 192.89401367 448.79052734 192.09448242 C412.20854796 162.99518064 367.45759413 144.78899493 321.69677734 136.44604492 C320.038479 136.13280273 320.038479 136.13280273 318.34667969 135.81323242 C301.59094204 132.76102715 285.12567023 132.08031024 268.13427734 132.07104492 C266.69452042 132.06805389 266.69452042 132.06805389 265.22567749 132.06500244 C246.44364464 132.06942633 227.95079085 133.4072336 209.50927734 137.07104492 C208.86300385 137.19787659 208.21673035 137.32470825 207.5508728 137.4553833 C186.8879404 141.54544221 166.99590693 148.03716682 147.69677734 156.44604492 C146.48900635 156.96569824 146.48900635 156.96569824 145.25683594 157.49584961 C133.45319516 162.62868405 123.03006448 168.79364344 112.69677734 176.44604492 C111.60581647 177.24056978 110.51467945 178.03485286 109.42333984 178.82885742 C102.66404861 183.81578952 96.14481957 189.06532569 89.69677734 194.44604492 C88.26785156 195.59459961 88.26785156 195.59459961 86.81005859 196.76635742 C78.16780223 203.82404117 70.28297577 211.64337133 62.38427734 219.50854492 C61.82465302 220.06299286 61.26502869 220.6174408 60.68844604 221.18869019 C53.54038281 228.28463227 46.95645647 235.54494249 40.69677734 243.44604492 C39.83362386 244.47379218 38.96521907 245.49719941 38.08740234 246.51245117 C-15.46804172 308.96122627 -44.69239444 388.80232588 -55.30322266 469.44604492 C-55.45162598 470.57284668 -55.6000293 471.69964844 -55.75292969 472.8605957 C-60.34148734 509.95398252 -57.09802784 548.34763902 -54.30322266 585.44604492 C-54.24757141 586.18594666 -54.19192017 586.92584839 -54.13458252 587.68817139 C-49.57953277 646.81777227 -28.03844586 705.57205342 3.69677734 755.44604492 C4.19097168 756.22399414 4.68516602 757.00194336 5.19433594 757.8034668 C16.05551771 774.75506429 27.91008587 790.9363314 41.34570312 805.9362793 C43.10576783 807.90307369 44.83924974 809.8924887 46.57177734 811.88354492 C47.09642578 812.4790918 47.62107422 813.07463867 48.16162109 813.68823242 C49.24893039 814.93324307 50.32322261 816.1896774 51.38818359 817.45385742 C54.87224233 821.55366703 58.502144 825.13170557 62.60693359 828.60620117 C64.8530909 830.58365929 66.92338082 832.67565758 69.00927734 834.82104492 C73.05768992 838.91798299 77.34762551 842.55605447 81.84521484 846.14916992 C83.70860026 847.65008858 85.54868377 849.18053316 87.36083984 850.74291992 C126.21807843 884.23676501 177.29679438 909.1592915 228.09814453 917.0402832 C229.82518971 917.30995148 231.54994846 917.59471088 233.27197266 917.89477539 C261.10189833 922.71288962 291.93424886 922.64460603 319.69677734 917.44604492 C320.65100586 917.26912109 321.60523438 917.09219727 322.58837891 916.90991211 C329.34261546 915.61967688 336.02338094 914.10120075 342.69677734 912.44604492 C343.97198242 912.13957031 343.97198242 912.13957031 345.27294922 911.8269043 C358.7893085 908.50320939 370.39902657 902.82704502 382.55761719 896.14624023 C387.0226223 893.72795624 391.54462269 891.42583686 396.06616211 889.11547852 C413.20369816 880.34321792 429.28949647 871.03085592 444.88183594 859.73999023 C447.44649625 857.91153991 450.06366104 856.17415546 452.69677734 854.44604492 C452.00262045 858.39949119 450.89040614 862.07006695 449.59277344 865.86645508 C449.38120731 866.48652813 449.16964119 867.10660118 448.95166397 867.74546432 C448.25366129 869.78513009 447.54998934 871.82277229 446.84521484 873.86010742 C446.60140453 874.56749683 446.35759422 875.27488625 446.10639572 876.0037117 C441.25479279 890.06264786 436.08756645 903.99332963 430.8097229 917.89724731 C428.19030149 924.79964148 425.59413168 931.71081168 422.99755859 938.62182617 C422.73371809 939.32383337 422.46987759 940.02584057 422.19804192 940.74912071 C408.30616342 977.72602135 394.85223594 1014.85831686 382.69677734 1052.44604492 C427.43390962 1052.0759738 469.82883948 1046.00347261 513.68457031 1037.703125 C533.02737678 1034.04325759 552.40178535 1030.41117655 571.88427734 1027.57104492 C572.69662842 1027.45092041 573.50897949 1027.3307959 574.34594727 1027.20703125 C578.84256435 1026.58138551 583.15692845 1026.33781011 587.69677734 1026.44604492 C585.50340016 1028.79010884 583.2429407 1030.51263657 580.54052734 1032.23901367 C579.6971582 1032.77848633 578.85378906 1033.31795898 577.98486328 1033.8737793 C577.06479492 1034.45450195 576.14472656 1035.03522461 575.19677734 1035.63354492 C574.22772461 1036.24649414 573.25867187 1036.85944336 572.26025391 1037.4909668 C495.46436497 1085.76545201 411.58254458 1121.62853684 275.08435059 1156.90045166 C272.86101554 1157.40851424 270.63867073 1157.92069476 268.41650391 1158.43383789 C230.43735522 1167.16402029 191.74529082 1172.78447387 153.04614258 1177.17712402 C150.72260787 1177.44308822 148.40004556 1177.71633442 146.07763672 1177.99194336 C122.50896893 1180.77985114 98.92063828 1182.48662247 75.22802734 1183.83276367 C74.39045395 1183.8805043 73.55288055 1183.92824493 72.68992615 1183.97743225 C69.69262313 1184.14244738 66.69478064 1184.29424828 63.69677734 1184.44604492 C62.58868084 1184.50586359 62.58868084 1184.50586359 61.45819855 1184.56689072 C46.29862883 1185.37939184 31.1733218 1185.62432409 15.99365234 1185.64916992 C14.19629009 1185.65341099 14.19629009 1185.65341099 12.36261749 1185.65773773 C5.98686008 1185.67262835 -0.38887541 1185.68191443 -6.76464844 1185.6862793 C-11.89265277 1185.6906072 -17.02048344 1185.70428959 -22.1484375 1185.72729492 C-129.78076012 1186.1999005 -240.4666536 1178.58456078 -549.44287109 1082.8425293 C-552.11298802 1081.53892151 -554.78942892 1080.24928024 -557.46728516 1078.96166992 C-569.86934675 1072.94208487 -581.72686831 1066.10897742 -593.5703125 1059.06225586 C-595.95601975 1057.65137664 -598.35226569 1056.26371718 -600.76025391 1054.89135742 C-635.53760276 1035.00259461 -667.7300969 1010.39461435 -697.30322266 983.44604492 C-698.18880859 982.65327148 -699.07439453 981.86049805 -699.98681641 981.04370117 C-706.19396932 975.44294583 -712.19325752 969.659824 -718.11572266 963.75854492 C-718.82092041 963.05793945 -719.52611816 962.35733398 -720.25268555 961.63549805 C-724.25185963 957.62453256 -728.07037682 953.51089883 -731.76879883 949.22119141 C-733.65060563 947.044164 -735.6008676 944.93481516 -737.55322266 942.82104492 C-742.65998431 937.15938896 -747.32310415 931.19160227 -751.97412109 925.15600586 C-753.16263929 923.62691302 -754.37588518 922.1171149 -755.59228516 920.61010742 C-769.42795171 903.25609267 -781.46525855 884.12951832 -792.08496094 864.67260742 C-793.18071467 862.66994729 -794.29782319 860.68150936 -795.42431641 858.69604492 C-841.23514207 776.88127005 -856.66011531 671.93752315 -831.44573975 491.01213074 C-823.25073963 462.23101444 -812.91926522 434.13062557 -799.30322266 407.44604492 C-795.67053367 410.98726332 -792.30933636 414.67889734 -789.05322266 418.57104492 C-788.41320312 419.32901367 -788.41320312 419.32901367 -787.76025391 420.10229492 C-786.82854587 421.20954215 -785.90857293 422.32673211 -784.99829102 423.45166016 C-783.70158643 424.97733778 -782.32729914 426.43738145 -780.92260742 427.86425781 C-776.44562847 432.66485278 -773.66995707 435.99623543 -773.86181641 442.73901367 C-774.11065312 445.04238704 -774.40619594 447.34104836 -774.74072266 449.63354492 C-775.01314949 452.21720585 -775.2758337 454.8019089 -775.52978516 457.38745117 C-775.6345089 458.38183197 -775.6345089 458.38183197 -775.74134827 459.39630127 C-778.76581617 488.84119095 -776.5289878 521.49707758 -770.30322266 550.44604492 C-770.07650879 551.52595703 -769.84979492 552.60586914 -769.61621094 553.71850586 C-761.56775042 591.56092222 -748.46018623 628.39853633 -723.30322266 658.44604492 C-722.37193291 659.59163431 -721.44095518 660.7374774 -720.51025391 661.88354492 C-703.63591387 682.3846845 -683.80657813 696.38343117 -660.30322266 708.44604492 C-659.12034668 709.06092773 -659.12034668 709.06092773 -657.91357422 709.68823242 C-636.92564772 720.50431905 -614.19764335 727.87175119 -591.30322266 733.44604492 C-590.01810791 733.76798828 -590.01810791 733.76798828 -588.70703125 734.09643555 C-518.91288774 751.37854626 -442.37520127 748.2981126 -371.30322266 741.44604492 C-382.61329727 740.10883539 -393.90910409 739.04106166 -405.26928711 738.24249268 C-489.86860457 732.22142541 -587.97121756 718.45595344 -654.30322266 660.44604492 C-655.53685547 659.37483398 -655.53685547 659.37483398 -656.79541016 658.28198242 C-659.33237555 656.03804039 -661.82390674 653.75340828 -664.30322266 651.44604492 C-665.01994141 650.79506836 -665.73666016 650.1440918 -666.47509766 649.47338867 C-677.64074215 638.89862683 -686.7589593 625.78879169 -694.30322266 612.44604492 C-694.83592773 611.51985352 -694.83592773 611.51985352 -695.37939453 610.57495117 C-715.84555984 574.75029439 -721.02331541 536.98542081 -720.30322266 496.44604492 C-717.12678283 497.63699609 -714.36833437 498.9141728 -711.58056641 500.84448242 C-710.88801758 501.31756836 -710.19546875 501.7906543 -709.48193359 502.27807617 C-708.74233398 502.78725586 -708.00273438 503.29643555 -707.24072266 503.82104492 C-674.19144137 526.16955605 -638.47043963 544.05271502 -601.30322266 558.44604492 C-600.38331543 558.80504883 -599.4634082 559.16405273 -598.515625 559.53393555 C-564.06106323 572.87447658 -527.47578185 582.79594955 -491.05273438 588.97924805 C-487.85384642 589.52233753 -484.6589446 590.08686948 -481.46337891 590.64916992 C-459.67786826 594.42904912 -437.80395331 597.46528083 -415.80322266 599.69604492 C-414.66808228 599.81629028 -414.66808228 599.81629028 -413.51000977 599.93896484 C-406.11857896 600.63319654 -398.7193632 600.5123921 -391.30322266 600.44604492 C-392.34623535 600.01485352 -393.38924805 599.58366211 -394.46386719 599.1394043 C-406.1575098 594.30369375 -417.84570278 589.45493789 -429.53057861 584.5980835 C-432.13003302 583.51800553 -434.72999455 582.43915798 -437.33007812 581.3605957 C-472.47388151 566.77204484 -507.17668163 551.31272581 -541.2869873 534.44146729 C-543.34312375 533.42634562 -545.40144872 532.41579278 -547.46044922 531.40649414 C-563.86409201 523.36235646 -579.99463516 515.03921874 -595.81005859 505.8762207 C-598.89091624 504.10892105 -602.00283864 502.40315766 -605.12036133 500.70166016 C-635.85759308 483.90120701 -664.89443283 464.10969267 -693.39208984 443.79858398 C-695.23057372 442.49745973 -697.0807252 441.21521143 -698.93603516 439.93823242 C-734.18517745 415.5353564 -767.63346482 379.46912709 -775.90844727 336.11889648 C-779.080517 314.64219923 -774.21643132 295.07730476 -762.11181641 277.21166992 C-758.42135849 272.39980215 -758.42135849 272.39980215 -756.30322266 270.44604492 C-755.31322266 270.44604492 -754.32322266 270.44604492 -753.30322266 270.44604492 C-751.35725439 272.7361359 -749.60789372 275.00722961 -747.86572266 277.44604492 C-746.78243635 278.92394398 -745.6991017 280.4018076 -744.61572266 281.87963867 C-743.51138535 283.40165029 -742.40721547 284.9237834 -741.30322266 286.44604492 C-733.43188934 297.22623956 -725.19058592 307.4852417 -716.30322266 317.44604492 C-715.53494141 318.31487305 -714.76666016 319.18370117 -713.97509766 320.07885742 C-695.52682796 340.80575936 -695.52682796 340.80575936 -675.28759766 359.74291992 C-672.95701141 361.74318685 -670.69628192 363.8127082 -668.42822266 365.88354492 C-663.53985995 370.28454821 -658.48338002 374.39524302 -653.30322266 378.44604492 C-651.99311533 379.48614316 -650.68323819 380.52653139 -649.37353516 381.56713867 C-595.73777519 423.97330675 -534.90355721 454.40388571 -469.30322266 473.44604492 C-468.97322266 473.11604492 -468.64322266 472.78604492 -468.30322266 472.44604492 C-468.75947021 472.09525879 -469.21571777 471.74447266 -469.68579102 471.38305664 C-480.44128091 463.10010858 -491.02462067 454.64384913 -501.46533203 445.96801758 C-503.96008571 443.90209111 -506.47546773 441.8619316 -508.99072266 439.82104492 C-514.91455981 434.9799635 -520.70596411 429.98863816 -526.50048828 424.99438477 C-528.27808178 423.46763802 -530.0627428 421.94962784 -531.85009766 420.43432617 C-538.80519263 414.52900229 -545.5948858 408.48446407 -552.26806641 402.26245117 C-555.01656273 399.70141149 -557.80948895 397.19380714 -560.61572266 394.69604492 C-564.25403178 391.43978764 -567.73421257 388.07750699 -571.12353516 384.56323242 C-573.00513735 382.73558298 -574.92808951 381.03326501 -576.91650391 379.32495117 C-581.95760743 374.9434095 -586.65536028 370.24020509 -591.36572266 365.50854492 C-592.22488281 364.65325195 -593.08404297 363.79795898 -593.96923828 362.91674805 C-598.42974887 358.44942232 -602.7303668 353.91204038 -606.84399414 349.12353516 C-608.57519167 347.13339659 -610.40602999 345.27781715 -612.30322266 343.44604492 C-616.18361377 339.61000114 -619.75045803 335.58428387 -623.30322266 331.44604492 C-624.24770086 330.36458656 -625.19309245 329.28392554 -626.13916016 328.20385742 C-639.90372062 312.46379803 -652.91103277 296.28963545 -665.30322266 279.44604492 C-665.86928223 278.68146973 -666.4353418 277.91689453 -667.01855469 277.12915039 C-679.05712917 260.85039705 -690.12735075 243.9492942 -700.30322266 226.44604492 C-700.66867187 225.82342773 -701.03412109 225.20081055 -701.41064453 224.55932617 C-716.33056951 199.06357916 -726.73438277 171.97197853 -734.30322266 143.44604492 C-734.51317871 142.66100586 -734.72313477 141.8759668 -734.93945312 141.06713867 C-745.06085078 102.32396588 -743.3455473 61.90854524 -733.30322266 23.44604492 C-732.64322266 23.44604492 -731.98322266 23.44604492 -731.30322266 23.44604492 C-730.78115234 24.4644043 -730.25908203 25.48276367 -729.72119141 26.53198242 C-717.49264154 50.15031095 -702.99298065 72.72146912 -686.30322266 93.44604492 C-685.81144531 94.06108887 -685.31966797 94.67613281 -684.81298828 95.30981445 C-668.60775438 115.55639051 -651.38047231 134.55538386 -633.01464844 152.86499023 C-630.90522608 154.9689823 -628.80129827 157.07836527 -626.69775391 159.18823242 C-625.32958531 160.55574114 -623.96110704 161.92294012 -622.59228516 163.28979492 C-621.97753326 163.90657104 -621.36278137 164.52334717 -620.72940063 165.15881348 C-616.96137779 168.90686999 -613.07323984 172.46638681 -609.04911804 175.93826294 C-606.82546128 177.85864696 -604.65915288 179.83869716 -602.49072266 181.82104492 C-598.12036582 185.76975937 -593.60019187 189.49231702 -589.02197266 193.19604492 C-586.38174536 195.38106061 -583.83592545 197.63775883 -581.30322266 199.94604492 C-576.65737428 204.1702044 -571.84632458 208.14497024 -566.96533203 212.09301758 C-565.07494071 213.63187609 -563.19629559 215.18439087 -561.31884766 216.73901367 C-552.41547506 224.11100618 -543.43114046 231.35448303 -534.30322266 238.44604492 C-532.89037268 239.54619034 -531.47761674 240.64645651 -530.06494141 241.74682617 C-526.25847666 244.71046058 -522.44931531 247.67061058 -518.63964844 250.63012695 C-516.29605213 252.451618 -513.95372838 254.27473269 -511.61181641 256.09838867 C-503.99502574 262.02887892 -496.36666628 267.94279527 -488.70947266 273.82104492 C-483.77595463 277.61605879 -478.86965108 281.44622015 -473.95996094 285.27197266 C-469.54943556 288.70668915 -465.12239894 292.11751712 -460.67822266 295.50854492 C-455.14170315 299.75669196 -449.72356738 304.13833145 -444.32104492 308.55517578 C-439.9606528 312.11563044 -435.55807831 315.61359809 -431.11572266 319.07104492 C-425.97054174 323.08262818 -420.95277553 327.21989265 -415.99267578 331.45776367 C-412.5728718 334.37945667 -409.11299108 337.24179406 -405.61572266 340.07104492 C-401.22595618 343.64130362 -397.02494573 347.37486997 -392.84619141 351.18823242 C-390.16545042 353.56836805 -387.40818131 355.82336333 -384.61572266 358.07104492 C-380.83487091 361.1297115 -377.34262511 364.28275968 -373.96728516 367.77807617 C-372.21288522 369.53659442 -370.37888701 371.14495427 -368.49072266 372.75854492 C-365.2798851 375.52222521 -362.280551 378.43224088 -359.30322266 381.44604492 C-355.87577727 384.90978701 -352.38118744 388.18074722 -348.68603516 391.35229492 C-338.8559807 399.98985097 -329.48488695 409.12801928 -320.30322266 418.44604492 C-317.18168977 421.57856912 -314.04441093 424.69496176 -310.90478516 427.80932617 C-309.24586568 429.45900008 -307.58701333 431.1087415 -305.92822266 432.75854492 C-305.10322266 433.57516602 -304.27822266 434.39178711 -303.42822266 435.2331543 C-299.05996147 439.58408111 -294.8441609 443.99724539 -290.82714844 448.67480469 C-288.7504977 451.08847036 -286.58865939 453.41989034 -284.42822266 455.75854492 C-280.40941673 460.16957666 -276.57456942 464.6833985 -272.83056641 469.32885742 C-270.9527435 471.65842434 -269.04298149 473.95861889 -267.11962891 476.25073242 C-254.24535691 491.63314519 -242.44428973 507.76976661 -231.30322266 524.44604492 C-230.66102783 525.40631592 -230.66102783 525.40631592 -230.00585938 526.38598633 C-195.91574583 577.6299685 -169.75008802 633.19990134 -156.30322266 693.44604492 C-158.04703748 609.56855188 -189.06631011 521.24195764 -238.078125 453.15209961 C-239.27811739 451.48100618 -240.45893912 449.79792813 -241.63525391 448.11010742 C-251.90700465 433.44474651 -262.83538419 419.19403841 -274.30322266 405.44604492 C-275.80367033 403.59224051 -277.3036594 401.73806483 -278.80322266 399.88354492 C-282.47298844 395.39543416 -286.28403055 391.06488054 -290.18603516 386.77807617 C-292.08373435 384.68780603 -293.9505568 382.57618377 -295.80322266 380.44604492 C-299.91639438 375.7304865 -304.10224982 371.08338922 -308.30322266 366.44604492 C-309.04902588 365.61339111 -309.7948291 364.7807373 -310.56323242 363.92285156 C-320.3023531 353.19223985 -330.59444797 343.00226413 -340.84960938 332.76928711 C-343.53114361 330.09348593 -346.20811061 327.41316727 -348.88380051 324.73152351 C-350.97366724 322.63802102 -353.06593702 320.54693313 -355.15891266 318.45653915 C-356.14667024 317.46944061 -357.13370803 316.48162118 -358.11995697 315.49301529 C-363.15509813 310.44846531 -368.22727941 305.51889066 -373.63708496 300.87637329 C-375.62965404 299.16581354 -377.54796761 297.38749175 -379.45166016 295.57885742 C-380.48685791 294.59876709 -380.48685791 294.59876709 -381.54296875 293.59887695 C-382.24760254 292.92969238 -382.95223633 292.26050781 -383.67822266 291.57104492 C-389.05338708 286.48900784 -394.45209981 281.44602515 -399.97509766 276.52416992 C-402.64371782 274.142113 -405.28595835 271.73229159 -407.92822266 269.32104492 C-411.67780607 265.90803001 -415.45845678 262.53883462 -419.28759766 259.21557617 C-421.5893003 257.19489536 -423.85086644 255.13291874 -426.11572266 253.07104492 C-429.51405818 249.99857719 -432.97912789 247.0616187 -436.55322266 244.19604492 C-441.62745272 240.09652572 -446.36552596 235.7123363 -451.11083984 231.24389648 C-454.57349013 228.00085661 -458.09590859 224.91189617 -461.80322266 221.94604492 C-466.80917282 217.94128479 -471.45343212 213.63005179 -476.11621094 209.23852539 C-479.53515537 206.03612344 -483.00990947 202.99027314 -486.67822266 200.07104492 C-492.21495061 195.64166256 -497.33800758 190.82137229 -502.47070312 185.93676758 C-506.41282968 182.18931394 -510.42388519 178.5493402 -514.53344727 174.98608398 C-517.18162465 172.68166918 -519.76284594 170.3031915 -522.34619141 167.92651367 C-524.28283702 166.31521221 -524.28283702 166.31521221 -526.85791016 165.48901367 C-529.74441679 164.25786787 -530.5287093 163.16040584 -532.24072266 160.57104492 C-537.97988779 152.79378847 -545.8657112 146.9458181 -553.40869141 140.99682617 C-567.04760854 130.21737856 -567.04760854 130.21737856 -569.24072266 121.88354492 C-569.27166016 120.67698242 -569.27166016 120.67698242 -569.30322266 119.44604492 C-560.12765968 115.61006391 -550.7501127 112.35071103 -541.36572266 109.07104492 C-540.4969751 108.76713837 -539.62822754 108.46323181 -538.7331543 108.15011597 C-518.02898859 100.91993719 -497.19567489 94.10980258 -476.30322266 87.44604492 C-475.36134094 87.14504883 -474.41945923 86.84405273 -473.44903564 86.53393555 C-411.83247869 66.85048784 -349.59556714 49.25297986 -286.49975586 34.94421387 C-285.03388083 34.6117566 -283.56822311 34.27833977 -282.1027832 33.94396973 C-227.4108986 21.46607714 -171.96074498 12.06187462 -116.17822266 6.13354492 C-114.54288574 5.95754257 -114.54288574 5.95754257 -112.87451172 5.77798462 C-105.38677614 4.98161784 -97.89367936 4.27095192 -90.3914032 3.62577438 C-88.95019286 3.50172957 -87.50908732 3.37646327 -86.06806946 3.25020218 C-57.36685576 0.74408529 -28.80504307 -0.06192425 0 0 Z " fill="#EBC09B" transform="translate(1350.30322265625,454.553955078125)"/>
<path d="M0 0 C0.71421112 -0.00358521 1.42842224 -0.00717041 2.16427612 -0.01086426 C58.06372252 -0.16209821 112.12123191 29.08878089 151.0625 67.8125 C152.18984848 68.97689749 153.31477912 70.1436399 154.4375 71.3125 C157.01686361 73.90900224 159.61366987 76.48424102 162.234375 79.0390625 C168.79502348 85.45512065 174.74851268 92.09882596 180.4375 99.3125 C181.36921858 100.45595758 182.30291816 101.597803 183.23828125 102.73828125 C199.22123262 122.30736964 212.8244497 143.4517035 225.4375 165.3125 C228.53379608 161.67060108 230.83860892 157.89044004 233.0625 153.6875 C243.1116967 135.31434739 255.47740503 117.73262033 268.4375 101.3125 C269.2109375 100.32765625 269.984375 99.3428125 270.78125 98.328125 C284.71940434 80.95451008 300.4059975 64.44859606 318.4375 51.3125 C319.47003906 50.54679688 320.50257813 49.78109375 321.56640625 48.9921875 C352.79363359 26.55860991 389.98809318 14.57688856 428.48144531 20.49047852 C438.22275406 22.16954288 447.34212943 24.37222913 456.4375 28.3125 C457.07252441 28.5801416 457.70754883 28.8477832 458.36181641 29.12353516 C475.00456446 36.20359925 490.34537079 46.01128062 504.4375 57.3125 C505.43394531 58.10527344 506.43039062 58.89804687 507.45703125 59.71484375 C521.72090613 71.29813978 534.64597837 84.43812679 545.4375 99.3125 C545.92557129 99.97749512 546.41364258 100.64249023 546.91650391 101.32763672 C553.9933365 111.00192482 560.52665974 120.88575607 566.4375 131.3125 C566.78844727 131.91868164 567.13939453 132.52486328 567.50097656 133.14941406 C590.94416363 173.89131816 602.46586642 221.07167342 608.4375 267.3125 C608.6852417 269.21781494 608.6852417 269.21781494 608.93798828 271.16162109 C620.19890875 362.2388279 602.33650867 465.94877874 545.4375 540.125 C543.78599424 542.20321059 542.12583558 544.26505208 540.4375 546.3125 C539.97907715 546.87243652 539.5206543 547.43237305 539.04833984 548.00927734 C518.47780959 572.99324793 494.47443578 591.39606914 465.26660156 605.34960938 C463.38274337 606.20536662 463.38274337 606.20536662 462.15234375 607.75 C459.51510871 610.15294765 456.30570394 611.12118242 453 612.3125 C451.92963501 612.70441528 451.92963501 612.70441528 450.83764648 613.10424805 C427.80376496 621.36654131 400.19637941 622.38693515 376.4375 616.3125 C375.76041992 616.14621094 375.08333984 615.97992187 374.38574219 615.80859375 C347.42997704 609.07899912 322.937609 595.14308061 302.65625 576.3203125 C301.10374514 574.91540494 299.49746358 573.56871929 297.85546875 572.26953125 C288.89036952 565.01344932 282.13986869 554.38911185 275.375 545.125 C273.20275099 542.19034605 270.82522971 539.58508104 268.3125 536.9375 C260.09852019 527.90348892 253.90970603 517.21988104 247.39453125 506.94140625 C246.697229 505.8438501 245.99992676 504.74629395 245.28149414 503.61547852 C243.92147164 501.47023608 242.56743579 499.32118225 241.22045898 497.16772461 C234.78227375 485.79652113 234.78227375 485.79652113 225.4375 477.3125 C225.210625 478.12332031 224.98375 478.93414063 224.75 479.76953125 C223.11339135 484.18740044 220.88035363 487.98419486 218.4375 492 C217.92058594 492.85432617 217.40367187 493.70865234 216.87109375 494.58886719 C205.96782839 512.4047016 194.32852599 529.87169686 181.4375 546.3125 C180.71433594 547.24707031 179.99117187 548.18164062 179.24609375 549.14453125 C175.2220665 554.27103172 170.96834506 559.14512722 166.57421875 563.95703125 C164.73690792 565.98243971 162.95709312 568.04081255 161.1875 570.125 C152.75693317 579.76550929 143.51941422 588.4252882 133.4375 596.3125 C132.32292656 597.21585592 131.20970866 598.12088619 130.09765625 599.02734375 C122.57706762 605.11723741 114.8981697 610.5756202 106.4375 615.3125 C105.67550293 615.74062988 104.91350586 616.16875977 104.12841797 616.60986328 C89.46532245 624.76237306 74.495391 631.38459686 58.25 635.70703125 C56.13253701 636.32622987 56.13253701 636.32622987 53.4375 638.3125 C24.14540932 648.32778632 -9.30630385 649.45564454 -39.5625 643.3125 C-40.8299707 643.06306641 -40.8299707 643.06306641 -42.12304688 642.80859375 C-56.09279226 639.98747838 -69.3402924 635.5928784 -82.5625 630.3125 C-83.7395752 629.84287842 -83.7395752 629.84287842 -84.94042969 629.36376953 C-113.54831612 617.74220018 -139.15710421 600.11978631 -160.89648438 578.29418945 C-162.55218034 576.63533932 -164.22077497 574.99028956 -165.890625 573.34570312 C-172.98172452 566.29560131 -179.31046317 558.89363206 -185.3377533 550.91882324 C-187.3738208 548.24840777 -189.47361985 545.62923169 -191.5625 543 C-200.70356673 531.21753681 -208.37588974 518.38929387 -215.47851562 505.29980469 C-216.54800532 503.33907358 -217.63964779 501.39204016 -218.734375 499.4453125 C-240.18404965 460.77480426 -253.70637788 415.2674801 -258.5625 371.3125 C-258.64650055 370.57813721 -258.7305011 369.84377441 -258.81704712 369.0871582 C-260.45661873 354.43673949 -260.90525438 339.89110342 -260.87817383 325.15527344 C-260.87501525 321.57976688 -260.89858363 318.00509271 -260.92382812 314.4296875 C-261.06288196 263.37218641 -249.36715766 211.52522019 -227.5625 165.3125 C-226.95269287 164.00659912 -226.95269287 164.00659912 -226.33056641 162.67431641 C-213.36377033 135.14275588 -196.87261025 109.96905675 -176.5625 87.3125 C-176.11342285 86.80702637 -175.6643457 86.30155273 -175.20166016 85.78076172 C-165.87528445 75.30432582 -156.11311727 64.91286404 -145.37890625 55.859375 C-144.13069267 54.79638021 -142.9102182 53.70021011 -141.71484375 52.578125 C-114.36932672 27.07671798 -77.14904325 10.11197803 -40.5625 3.3125 C-39.76312012 3.16296875 -38.96374023 3.0134375 -38.14013672 2.859375 C-25.4476499 0.60422896 -12.85891552 0.02594821 0 0 Z " fill="#FEFEFE" transform="translate(1624.5625,655.6875)"/>
<path d="M0 0 C3.67956291 1.56232021 6.16515793 3.83584082 9.0625 6.5625 C12.77478591 10.01462571 16.54816138 13.31925184 20.5 16.5 C24.28460334 19.55348679 27.92207537 22.70668301 31.5 26 C35.86505922 30.00797398 40.33635062 33.82005991 44.94921875 37.5390625 C47.17288674 39.33280236 49.38198478 41.13872383 51.58203125 42.9609375 C61.07391797 50.79562528 70.83666731 58.19250952 80.8046875 65.41015625 C82.78017417 66.84080229 84.75006371 68.27877204 86.71875 69.71875 C127.44236463 100.33777458 127.44236463 100.33777458 175.625 108.5703125 C186.64025911 106.77144962 197.48057198 104.07788854 208.31640625 101.42553711 C215.22063429 99.76118934 221.907979 98.43684885 229 98 C229.96550781 97.92136719 230.93101562 97.84273437 231.92578125 97.76171875 C252.7536331 97.11404414 268.09179172 111.10929968 282.35546875 124.51171875 C286.58496149 128.53414871 290.73841551 132.6323143 294.875 136.75 C295.57633057 137.44665771 296.27766113 138.14331543 297.00024414 138.86108398 C300.23946616 142.11031429 303.3849875 145.39373397 306.37890625 148.87109375 C331.44350992 178.38446195 331.44350992 178.38446195 365.3046875 194.3359375 C382.21777314 194.5209822 396.32604849 188.91372136 411.62158203 182.32910156 C421.4195707 178.12977479 430.28921917 174.41682212 441.0625 174.5625 C441.87976563 174.57079834 442.69703125 174.57909668 443.5390625 174.58764648 C474.11301518 175.41756154 502.99647435 193.13550537 529.25 207.125 C558.12276584 222.49518583 586.67150959 236.65380639 620 238 C621.08410156 238.05285156 622.16820312 238.10570312 623.28515625 238.16015625 C649.79618261 238.8602178 672.88965311 228.24540248 696.38891602 217.28198242 C707.74235736 211.99046124 719.07040207 206.87745708 731 203 C731.68690918 202.77006348 732.37381836 202.54012695 733.08154297 202.30322266 C780.50877182 186.98616934 835.74667381 216.002951 877 237 C881.58149868 239.4100108 886.11985218 241.89466919 890.64672852 244.40551758 C899.07590185 249.07953596 907.62135532 253.51348687 916.18798828 257.92944336 C921.86895346 260.85819754 927.53619248 263.80626775 933.1706543 266.82348633 C963.58602418 283.05691943 994.44214138 296.57291443 1028 305 C1028.73347656 305.1959375 1029.46695312 305.391875 1030.22265625 305.59375 C1037.464664 307.52117281 1044.16387892 308.17861585 1051.59765625 307.734375 C1052.41862289 307.68762634 1053.23958954 307.64087769 1054.08543396 307.5927124 C1063.04470091 307.02210081 1071.91711424 305.88274256 1080.80395508 304.63574219 C1083.53522631 304.25381383 1086.26828477 303.88776295 1089.00195312 303.5234375 C1111.23327327 300.50109861 1133.06821113 295.98142641 1154.80493164 290.453125 C1158.06391719 289.62463973 1161.32560621 288.80757551 1164.58789062 287.9921875 C1166.75801219 287.44610545 1168.92793476 286.899232 1171.09765625 286.3515625 C1172.16629913 286.08271744 1173.23494202 285.81387238 1174.33596802 285.53688049 C1179.74172164 284.15781479 1185.09863446 282.69141713 1190.43115234 281.05053711 C1203.13685601 277.17102631 1214.51090319 275.06835601 1227.80203247 275.27456665 C1232.5442944 275.34124272 1237.28522074 275.27655357 1242.02734375 275.21875 C1242.96879745 275.20886551 1243.91025116 275.19898102 1244.88023376 275.188797 C1258.7246459 274.98888942 1272.33999424 273.15282931 1286 271 C1286.70044434 270.8898053 1287.40088867 270.7796106 1288.12255859 270.66607666 C1305.80371659 267.86416902 1323.3996058 264.5859054 1340.98779297 261.25708008 C1360.33059943 257.59721267 1379.70500801 253.96513163 1399.1875 251.125 C1399.99985107 251.00487549 1400.81220215 250.88475098 1401.64916992 250.76098633 C1406.14578701 250.13534058 1410.46015111 249.89176519 1415 250 C1412.80662282 252.34406392 1410.54616336 254.06659165 1407.84375 255.79296875 C1407.00038086 256.33244141 1406.15701172 256.87191406 1405.28808594 257.42773438 C1404.36801758 258.00845703 1403.44794922 258.58917969 1402.5 259.1875 C1401.53094727 259.80044922 1400.56189453 260.41339844 1399.56347656 261.04492188 C1322.76758762 309.31940709 1238.88576724 345.18249192 1102.38757324 380.45440674 C1100.1642382 380.96246932 1097.94189339 381.47464984 1095.71972656 381.98779297 C1057.74057788 390.71797537 1019.04851347 396.33842895 980.34936523 400.7310791 C978.02583053 400.9970433 975.70326821 401.27028949 973.38085938 401.54589844 C949.81219159 404.33380622 926.22386094 406.04057755 902.53125 407.38671875 C901.69367661 407.43445938 900.85610321 407.48220001 899.9931488 407.53138733 C896.99584578 407.69640246 893.9980033 407.84820336 891 408 C890.261269 408.03987911 889.52253799 408.07975822 888.7614212 408.12084579 C873.60185149 408.93334692 858.47654446 409.17827917 843.296875 409.203125 C841.49951275 409.20736607 841.49951275 409.20736607 839.66584015 409.21169281 C833.29008274 409.22658343 826.91434725 409.23586951 820.53857422 409.24023438 C815.41056989 409.24456228 810.28273922 409.25824467 805.15478516 409.28125 C697.52246254 409.75385558 586.83656906 402.13851586 277.86035156 306.39648438 C275.19023463 305.09287659 272.51379374 303.80323532 269.8359375 302.515625 C257.43387591 296.49603994 245.57635435 289.6629325 233.73291016 282.61621094 C231.34720291 281.20533172 228.95095697 279.81767226 226.54296875 278.4453125 C191.7656199 258.55654969 159.57312575 233.94856943 130 207 C129.11441406 206.20722656 128.22882813 205.41445312 127.31640625 204.59765625 C121.10925334 198.99690091 115.10996514 193.21377908 109.1875 187.3125 C108.48230225 186.61189453 107.77710449 185.91128906 107.05053711 185.18945312 C103.05136303 181.17848764 99.23284583 177.0648539 95.53442383 172.77514648 C93.65261703 170.59811908 91.70235505 168.48877024 89.75 166.375 C84.64323834 160.71334404 79.9801185 154.74555735 75.32910156 148.70996094 C74.14058337 147.18086809 72.92733747 145.67106997 71.7109375 144.1640625 C57.87527094 126.81004774 45.83796411 107.6834734 35.21826172 88.2265625 C34.12250798 86.22390237 33.00539947 84.23546444 31.87890625 82.25 C0 25.31661143 0 25.31661143 0 0 Z " fill="#CE9D75" transform="translate(523,1231)"/>
<path d="M0 0 C0.06184479 1.89009544 0.06184479 1.89009544 0.12493896 3.81837463 C2.74293643 84.01769231 2.74293643 84.01769231 6.125 164.1875 C6.16533859 165.04512562 6.20567719 165.90275124 6.24723816 166.78636551 C6.70202562 176.43759279 7.16836668 186.08823038 7.64343262 195.73847961 C7.94108974 201.78651196 8.23433806 207.83475015 8.52636719 213.88305664 C8.65943169 216.63302263 8.79258147 219.38298448 8.92577744 222.13294411 C9.00976159 223.86847945 9.09358369 225.60402264 9.17721939 227.33957481 C9.70170243 238.21392424 10.26889519 249.08502703 10.88183975 259.95475006 C11.75366203 275.50637073 12.46921026 291.06282061 13.125 306.625 C13.16947266 307.66423615 13.21394531 308.70347229 13.25976562 309.77420044 C13.38680679 312.75821609 13.51041344 315.74235319 13.6328125 318.7265625 C13.67020538 319.60220352 13.70759827 320.47784454 13.74612427 321.38002014 C13.99433205 327.58911263 14.03922201 333.7863248 14 340 C3.09920852 337.57049809 -7.70751595 334.80505074 -18.5 331.9375 C-19.47347382 331.68033203 -19.47347382 331.68033203 -20.46661377 331.41796875 C-23.56225276 330.5990032 -26.65135002 329.76336712 -29.734375 328.89794922 C-31.73151783 328.34879466 -33.74101688 327.83999583 -35.765625 327.40283203 C-41.34669946 326.0337817 -41.34669946 326.0337817 -43.12471008 323.22026062 C-43.56631721 322.1399633 -43.56631721 322.1399633 -44.0168457 321.0378418 C-44.3489505 320.22806381 -44.6810553 319.41828583 -45.02322388 318.58396912 C-46.64925155 314.28246626 -48.13792954 309.94629657 -49.57421875 305.578125 C-50.24910605 303.56111662 -50.92424475 301.54419235 -51.59960938 299.52734375 C-52.63816182 296.40949999 -53.67401532 293.29081972 -54.70483398 290.17041016 C-60.1558788 273.70286294 -66.06525861 257.46000824 -74 242 C-78.43697507 248.56352528 -81.39798508 255.33697166 -84.3125 262.6875 C-84.79033936 263.87561279 -85.26817871 265.06372559 -85.76049805 266.2878418 C-89.02749622 274.44685933 -92.18276339 282.64581182 -95.2746582 290.87255859 C-97.9687175 298.01297971 -100.90486126 305.02421383 -104 312 C-114.67310924 312.4888447 -125.16043191 311.18175624 -135.74682617 309.97363281 C-138.82177361 309.62394539 -141.89800372 309.28787379 -144.97460938 308.953125 C-146.94800715 308.73257896 -148.92131786 308.51125216 -150.89453125 308.2890625 C-151.80507767 308.19001617 -152.71562408 308.09096985 -153.65376282 307.98892212 C-158.61911018 307.4129496 -163.2943177 306.72671765 -168 305 C-169.6796875 302.25390625 -169.6796875 302.25390625 -170.875 298.5625 C-171.10566162 297.8830835 -171.33632324 297.20366699 -171.57397461 296.50366211 C-172.41230782 294.01134203 -173.20544433 291.50661823 -174 289 C-175.11936112 285.55135345 -176.24680866 282.1055496 -177.38134766 278.66186523 C-178.15449519 276.30582677 -178.91635071 273.94604541 -179.66552734 271.58227539 C-181.61722837 265.55774468 -183.75560557 260.11874345 -187.06225586 254.70483398 C-188 253 -188 253 -188 251 C-191.46145019 254.06205209 -193.06026824 256.84103302 -194.75 261.125 C-194.9975 261.75245117 -195.245 262.37990234 -195.5 263.02636719 C-198.42957875 270.71292125 -200.69511952 278.63646185 -202.93261719 286.54736328 C-203.24360352 287.60938965 -203.55458984 288.67141602 -203.875 289.765625 C-204.14054687 290.70180664 -204.40609375 291.63798828 -204.6796875 292.60253906 C-206.6436151 297.65616636 -209.3330502 302.28773116 -212 307 C-213.0811911 307.00142502 -214.1623822 307.00285004 -215.27633667 307.00431824 C-269.03644997 307.09090248 -322.48482658 307.46160487 -376 313 C-377.71793762 313.17592682 -377.71793762 313.17592682 -379.47058105 313.35540771 C-444.28550988 320.04123139 -508.67997155 331.70299189 -572 347 C-573.08849243 347.26169983 -574.17698486 347.52339966 -575.29846191 347.79302979 C-627.45142612 360.33847022 -679.00568511 374.74714352 -730.2421875 390.6328125 C-731.56308128 391.04209991 -731.56308128 391.04209991 -732.91065979 391.45965576 C-737.68274195 392.94528975 -742.44197965 394.46492301 -747.19238281 396.01855469 C-748.20720734 396.34838348 -749.22203186 396.67821228 -750.26760864 397.01803589 C-752.22341032 397.65519892 -754.177191 398.29860791 -756.12863159 398.94900513 C-757.00028961 399.23250824 -757.87194763 399.51601135 -758.77001953 399.80810547 C-759.9255986 400.19021683 -759.9255986 400.19021683 -761.10452271 400.58004761 C-763 401 -763 401 -765 400 C-761.21857748 395.34154758 -757.43488572 390.68494783 -753.64941406 386.02978516 C-752.28282324 384.34804506 -750.9184634 382.66449235 -749.5546875 380.98046875 C-741.34031987 370.87164364 -732.87305469 360.97594903 -724.1171875 351.33203125 C-722.74009159 349.81519313 -721.36989217 348.29205532 -720.0078125 346.76171875 C-706.38385877 331.46690277 -692.44666508 315.82930362 -676.7890625 302.5703125 C-674.7668372 300.79534619 -672.88785373 298.91700977 -671 297 C-667.8288397 293.78565269 -664.54417247 290.78249037 -661.12109375 287.83984375 C-658.77508942 285.80491181 -656.4826355 283.71709033 -654.1875 281.625 C-649.86739209 277.72636603 -645.41928619 274.02496142 -640.89453125 270.3671875 C-638.38667365 268.31622704 -635.91938564 266.22603197 -633.46337891 264.11352539 C-626.65518777 258.26911292 -619.60429573 252.79836212 -612.44921875 247.38671875 C-609.46779226 245.12885674 -606.51468534 242.84037861 -603.58203125 240.51953125 C-594.5042841 233.34170811 -585.24171875 226.60512617 -575.640625 220.14453125 C-571.96319985 217.6682866 -568.34401887 215.12278581 -564.74316406 212.53686523 C-505.64730225 170.15207788 -439.37921078 137.17667953 -373 108 C-372.32455139 107.70277039 -371.64910278 107.40554077 -370.95318604 107.0993042 C-366.93687999 105.33459234 -362.91028633 103.59582396 -358.875 101.875 C-357.91086182 101.45532959 -356.94672363 101.03565918 -355.95336914 100.60327148 C-355.0793042 100.23661377 -354.20523926 99.86995605 -353.3046875 99.4921875 C-352.56202637 99.17620605 -351.81936523 98.86022461 -351.05419922 98.53466797 C-348.6311868 97.90400512 -347.33176445 98.14603154 -345 99 C-334.64340348 106.7319796 -330.316411 119.5766256 -325.875 131.1875 C-325.10453731 133.18978173 -324.3312953 135.19084553 -323.55154419 137.18952942 C-322.84816739 138.99392817 -322.15400112 140.80190955 -321.46044922 142.61010742 C-319.880745 146.27680638 -318.03861121 149.57112905 -316 153 C-311.45683725 141.61520761 -307.98082472 130.17867439 -304.9375 118.3125 C-297.77075663 90.4248284 -297.77075663 90.4248284 -291.375 80.875 C-290.80523438 80.00617188 -290.23546875 79.13734375 -289.6484375 78.2421875 C-286.64766403 74.16056672 -284.29140394 72.50251834 -279.48046875 70.7578125 C-278.33400879 70.33846436 -277.18754883 69.91911621 -276.00634766 69.48706055 C-274.73363858 69.03236764 -273.46068041 68.57837147 -272.1875 68.125 C-270.8415644 67.6405745 -269.49570029 67.15595035 -268.14990234 66.67114258 C-264.51676263 65.36684701 -260.87844222 64.0775924 -257.23858643 62.79217529 C-255.03631624 62.01285134 -252.83606184 61.22807308 -250.63623047 60.44189453 C-188.9859196 38.45480797 -125.22736461 22.40458346 -61 10 C-59.83857483 9.77552185 -58.67714966 9.5510437 -57.48052979 9.31976318 C-48.80406557 7.64708593 -40.12243261 6.00308878 -31.4375 4.375 C-30.25544983 4.15218353 -29.07339966 3.92936707 -27.85552979 3.69979858 C-24.50785065 3.07124002 -21.15860399 2.45193652 -17.80859375 1.8359375 C-16.81608109 1.64899826 -15.82356842 1.46205902 -14.80097961 1.26945496 C-13.87335312 1.10109634 -12.94572662 0.93273773 -11.98999023 0.75927734 C-11.19100815 0.61179047 -10.39202606 0.46430359 -9.5688324 0.31234741 C-6.36588118 -0.07710327 -3.22311027 -0.04797558 0 0 Z " fill="#B19B87" transform="translate(1601,78)"/>
<path d="M0 0 C4.4503873 0.00916068 8.90024813 0.00229599 13.35058594 -0.02050781 C54.97050595 -0.23206031 96.4020993 1.83743564 137.63427734 7.75854492 C139.21841934 7.97873291 139.21841934 7.97873291 140.83456421 8.20336914 C160.27340381 10.9060473 179.51911313 14.28642224 198.69677734 18.44604492 C199.41045471 18.59984619 200.12413208 18.75364746 200.85943604 18.91210938 C235.34084736 26.34775389 235.34084736 26.34775389 248.69677734 32.32104492 C270.31842756 41.65008565 293.63572631 45.61819642 317.13427734 45.63354492 C318.51583008 45.65191406 318.51583008 45.65191406 319.92529297 45.6706543 C342.29076913 45.71408241 364.48957029 42.74590552 386.57177734 39.50854492 C389.01696901 39.15679249 391.4622816 38.80587956 393.90771484 38.45581055 C401.85155476 37.31613146 409.79299497 36.1601545 417.73440552 35.00369263 C433.35611653 32.733052 448.95286304 30.68618351 464.69677734 29.44604492 C465.89254395 29.35033203 467.08831055 29.25461914 468.3203125 29.15600586 C490.54823055 27.59776006 490.54823055 27.59776006 497.94677734 33.75854492 C499.42711224 35.12765784 500.84016334 36.53486892 502.23388672 37.99194336 C504.82724411 40.56971983 507.78565567 42.68110104 510.69677734 44.88354492 C516.45769065 49.38443267 522.04566889 54.07277123 527.60302734 58.82104492 C530.49229055 61.28520456 533.43196192 63.68265492 536.38427734 66.07104492 C540.83581543 69.69438987 545.12060189 73.46568365 549.36474609 77.32885742 C551.45501624 79.22655661 553.56663849 81.09337907 555.69677734 82.94604492 C557.03047993 84.11228945 558.3637639 85.27901276 559.69677734 86.44604492 C560.3597583 87.02217529 561.02273926 87.59830566 561.70581055 88.19189453 C569.35073998 94.9443155 576.53914536 102.13658319 583.73852539 109.35742188 C585.88689601 111.51117014 588.04058428 113.65949719 590.19482422 115.80737305 C591.58511903 117.19832847 592.9751037 118.58959395 594.36474609 119.98120117 C594.99720749 120.61163834 595.62966888 121.2420755 596.28129578 121.89161682 C600.61660973 126.24941234 604.68685599 130.78892008 608.69677734 135.44604492 C609.83606044 136.74279802 610.97651789 138.03852124 612.11865234 139.33276367 C613.22821023 140.59953058 614.33758606 141.86645699 615.44677734 143.13354492 C616.01009766 143.77098633 616.57341797 144.40842773 617.15380859 145.06518555 C617.69908203 145.68973633 618.24435547 146.31428711 618.80615234 146.95776367 C619.29051758 147.50907959 619.77488281 148.06039551 620.27392578 148.62841797 C621.96503067 150.78872611 623.32485452 153.07310588 624.69677734 155.44604492 C618.67850056 157.95867214 612.65782927 160.46497434 606.62646484 162.94604492 C605.12792969 163.56479492 605.12792969 163.56479492 603.59912109 164.19604492 C601.57421549 165.03213498 599.54816264 165.86545171 597.52099609 166.69604492 C591.80723831 169.06137803 586.38747425 171.58409504 581.05273438 174.72338867 C576.1062275 176.24065917 571.23752834 172.8364557 566.85693359 170.64526367 C565.72755371 170.08677734 564.59817383 169.52829102 563.43457031 168.95288086 C562.83723083 168.65667847 562.23989136 168.36047607 561.62445068 168.05529785 C536.9834084 155.87790263 511.59403438 145.63963864 485.69677734 136.44604492 C484.31970626 135.95207025 482.94275754 135.45775436 481.56591797 134.96313477 C456.09739509 125.83712649 430.30299028 118.20196608 404.19628906 111.12512207 C401.92949584 110.50927079 399.66434706 109.8878485 397.39990234 109.26342773 C318.08300654 87.43777915 235.15847323 76.16129888 153.42822266 67.92553711 C148.78475447 67.45682519 144.14301917 66.97235484 139.50146484 66.48510742 C101.64365903 62.52182509 63.73923748 59.03485388 25.82177734 55.69604492 C24.00845917 55.53581345 24.00845917 55.53581345 22.1585083 55.37234497 C18.69486617 55.06687933 15.23102204 54.76382674 11.76708984 54.46166992 C10.76601196 54.37334396 9.76493408 54.28501801 8.73352051 54.1940155 C5.72208747 53.93324014 2.70991853 53.68626838 -0.30322266 53.44604492 C-1.43586548 53.35385178 -2.5685083 53.26165863 -3.73547363 53.16667175 C-13.80407994 52.41379361 -23.82040457 52.28248491 -33.91259766 52.27807617 C-35.69061304 52.27484609 -37.46862818 52.27148086 -39.24664307 52.26799011 C-42.9647279 52.26203997 -46.68278966 52.26014543 -50.40087891 52.26074219 C-54.13335094 52.26082265 -57.86569814 52.25400328 -61.59814453 52.24023438 C-94.00359679 52.12276121 -126.07895309 53.20040712 -158.30322266 56.82104492 C-160.32966741 57.04316635 -162.35611604 57.2652523 -164.38256836 57.48730469 C-177.93495397 58.9896783 -191.43726937 60.67793243 -204.89453125 62.8894043 C-208.02334459 63.40034073 -211.15468254 63.89239784 -214.28729248 64.37942505 C-270.07273335 73.08425656 -324.72579454 86.67550179 -378.30322266 104.44604492 C-379.59340387 104.87123766 -380.88360658 105.29636518 -382.17382812 105.72143555 C-427.01997225 120.53442693 -470.73245002 138.59395736 -513.17822266 159.30151367 C-514.0630835 159.73052979 -514.94794434 160.1595459 -515.85961914 160.6015625 C-517.48079816 161.39043626 -519.09783624 162.18790238 -520.7097168 162.99560547 C-525.97055032 165.5569357 -525.97055032 165.5569357 -529.30322266 164.44604492 C-530.63525391 162.80151367 -530.63525391 162.80151367 -532.11572266 160.63354492 C-537.9528108 152.87132834 -545.82623915 146.9769489 -553.40869141 140.99682617 C-567.04760854 130.21737856 -567.04760854 130.21737856 -569.24072266 121.88354492 C-569.26134766 121.07916992 -569.28197266 120.27479492 -569.30322266 119.44604492 C-560.12765968 115.61006391 -550.7501127 112.35071103 -541.36572266 109.07104492 C-540.4969751 108.76713837 -539.62822754 108.46323181 -538.7331543 108.15011597 C-518.02898859 100.91993719 -497.19567489 94.10980258 -476.30322266 87.44604492 C-475.36134094 87.14504883 -474.41945923 86.84405273 -473.44903564 86.53393555 C-411.83247869 66.85048784 -349.59556714 49.25297986 -286.49975586 34.94421387 C-285.03388083 34.6117566 -283.56822311 34.27833977 -282.1027832 33.94396973 C-227.4108986 21.46607714 -171.96074498 12.06187462 -116.17822266 6.13354492 C-114.54288574 5.95754257 -114.54288574 5.95754257 -112.87451172 5.77798462 C-105.38677614 4.98161784 -97.89367936 4.27095192 -90.3914032 3.62577438 C-88.95019286 3.50172957 -87.50908732 3.37646327 -86.06806946 3.25020218 C-57.36685576 0.74408529 -28.80504307 -0.06192425 0 0 Z " fill="#F4DFCC" transform="translate(1350.30322265625,454.553955078125)"/>
<path d="M0 0 C7.59 0 15.18 0 23 0 C25.54547634 9.79029362 27.79313487 19.60065692 29.875 29.5 C31.85488066 38.87118179 33.9430329 48.20356539 36.25 57.5 C36.61907471 59.00336914 36.61907471 59.00336914 36.99560547 60.53710938 C37.34582764 61.92639648 37.34582764 61.92639648 37.703125 63.34375 C38.00718262 64.55321289 38.00718262 64.55321289 38.31738281 65.78710938 C39.00356368 68.01155263 39.89925881 69.95292552 41 72 C45.82195875 53.21606744 50.34109032 34.39251807 54.47265625 15.44433594 C54.63512344 14.70083389 54.79759064 13.95733185 54.96498108 13.19129944 C55.40505648 11.17379642 55.84215792 9.15564534 56.27905273 7.13745117 C57 4 57 4 58 1 C63.16068491 -0.05476516 68.09712007 -0.12969365 73.3359375 -0.09765625 C74.21528961 -0.0962413 75.09464172 -0.09482635 76.00064087 -0.09336853 C78.79212942 -0.08779877 81.58353594 -0.0752519 84.375 -0.0625 C86.27473842 -0.05748109 88.1744781 -0.05291887 90.07421875 -0.04882812 C94.71617714 -0.03783925 99.35807469 -0.02059557 104 0 C104.12528076 0.80928955 104.25056152 1.6185791 104.37963867 2.45239258 C107.33899523 21.85806354 107.33899523 21.85806354 111.625 41 C111.81860107 41.73839111 112.01220215 42.47678223 112.21166992 43.23754883 C113.38141087 47.44119718 115.009821 51.1301696 117 55 C118.22838946 50.1114799 119.45511756 45.22254674 120.68041992 40.33325195 C121.09599801 38.67591562 121.51200126 37.01868582 121.9284668 35.36157227 C124.38263987 25.5950857 126.78755828 15.82464805 129 6 C134.01972324 4.40281533 138.58029949 3.63227894 143.875 3.3125 C144.88820313 3.24192383 144.88820313 3.24192383 145.921875 3.16992188 C147.61236321 3.06638796 149.30656675 3.02744967 151 3 C152 4 152 4 152.1241985 6.25940424 C152.12362892 7.7761971 152.12362892 7.7761971 152.12304783 9.32363224 C152.12503888 10.48559402 152.12702993 11.64755579 152.12908131 12.84472853 C152.12616847 14.13750147 152.12325563 15.43027441 152.12025452 16.76222229 C152.1206901 18.13664407 152.12156476 19.51106577 152.12284368 20.88548702 C152.12509122 24.67996225 152.12106385 28.47440953 152.11606562 32.2688812 C152.111765 36.35410971 152.11320727 40.43933652 152.1139679 44.52456665 C152.11449338 51.60837239 152.11134405 58.69216894 152.10573006 65.77597237 C152.09761833 76.01808382 152.09500017 86.26019082 152.09374207 96.50230514 C152.09155103 113.11766884 152.08488955 129.73302764 152.07543945 146.34838867 C152.06626667 162.49291967 152.05918518 178.63744934 152.05493164 194.78198242 C152.05466892 195.77638923 152.05440619 196.77079603 152.05413551 197.79533637 C152.05283051 202.78376146 152.0515668 207.77218655 152.05032361 212.76061165 C152.03994939 254.17374451 152.02232967 295.58687198 152 337 C150.63479973 337.12649933 150.63479973 337.12649933 149.24201965 337.2555542 C145.81111879 337.5739401 142.38030343 337.89322028 138.94953918 338.21307373 C137.47481986 338.35038574 136.00006889 338.48735838 134.52528381 338.6239624 C113.60662232 340.56219971 92.98247528 343.45637507 72.2644043 346.90298462 C59.59945297 349.00407935 46.93508403 350.9110384 34.1875 352.4375 C33.49786163 352.52103729 32.80822327 352.60457458 32.09768677 352.69064331 C26.03609383 353.41849572 20.11213011 354.09216568 14 354 C13.98541748 352.99404785 13.97083496 351.9880957 13.95581055 350.95166016 C13.05261819 291.92632715 10.02574127 233.0427185 6.5 174.125 C4.48793264 140.48368544 2.48155687 106.84854085 1.15365601 73.17208099 C1.06516368 70.94212329 0.97384658 68.71229789 0.88183594 66.48248291 C-0.02392476 44.31660021 -0.11576876 22.18068911 0 0 Z " fill="#D4C1AC" transform="translate(1672,74)"/>
<path d="M0 0 C0.99 0.495 0.99 0.495 2 1 C1.21689453 1.53403442 1.21689453 1.53403442 0.41796875 2.07885742 C-10.8407634 9.78473003 -21.76826083 17.70196865 -32.203125 26.49560547 C-33.84892396 27.87351487 -35.51325305 29.22334627 -37.1875 30.56640625 C-45.73422997 37.53016416 -53.50621304 45.29375508 -61.3125 53.0625 C-62.15261627 53.89471573 -62.15261627 53.89471573 -63.00970459 54.7437439 C-70.15725061 61.83929871 -76.74072414 69.09940658 -83 77 C-83.86315348 78.02774726 -84.73155827 79.05115448 -85.609375 80.06640625 C-139.16481906 142.51518135 -168.38917178 222.35628096 -179 303 C-179.14840332 304.12680176 -179.29680664 305.25360352 -179.44970703 306.41455078 C-184.03826468 343.5079376 -180.79480518 381.9015941 -178 419 C-177.94434875 419.73990173 -177.88869751 420.47980347 -177.83135986 421.24212646 C-173.27631012 480.37172735 -151.7352232 539.1260085 -120 589 C-119.50580566 589.77794922 -119.01161133 590.55589844 -118.50244141 591.35742188 C-107.64125964 608.30901937 -95.78669148 624.49028648 -82.35107422 639.49023438 C-80.59100951 641.45702877 -78.85752761 643.44644377 -77.125 645.4375 C-76.60035156 646.03304687 -76.07570313 646.62859375 -75.53515625 647.2421875 C-74.44784695 648.48719815 -73.37355474 649.74363248 -72.30859375 651.0078125 C-68.82453501 655.10762211 -65.19463334 658.68566064 -61.08984375 662.16015625 C-58.84368644 664.13761436 -56.77339653 666.22961266 -54.6875 668.375 C-50.63908742 672.47193807 -46.34915184 676.11000955 -41.8515625 679.703125 C-39.98817709 681.20404366 -38.14809357 682.73448824 -36.3359375 684.296875 C2.52130108 717.79072009 53.60001704 742.71324658 104.40136719 750.59423828 C106.12841237 750.86390655 107.85317112 751.14866596 109.57519531 751.44873047 C137.39389225 756.2649007 168.2497404 756.2159886 196 751 C196.97018066 750.81775879 197.94036133 750.63551758 198.93994141 750.44775391 C209.77324896 748.34911834 220.44354806 745.82133319 230.95092773 742.43603516 C235.79984862 740.89992431 235.79984862 740.89992431 238 742 C220.44967014 758.88554464 200.96615689 771.61548521 179 782 C177.88367187 782.53496094 176.76734375 783.06992188 175.6171875 783.62109375 C160.94430796 790.29846801 144.88931907 794.4502793 129 797 C127.73542969 797.20496094 126.47085937 797.40992188 125.16796875 797.62109375 C98.97571481 801.38209707 71.7704501 799.46910093 46 794 C45.22881836 793.84192871 44.45763672 793.68385742 43.66308594 793.52099609 C-13.17392702 781.71673394 -67.68715246 748.52101127 -105 704 C-105.42410156 703.49500977 -105.84820313 702.99001953 -106.28515625 702.46972656 C-112.2703293 695.29668839 -117.90465017 687.93735049 -123.125 680.1875 C-123.56674561 679.53861816 -124.00849121 678.88973633 -124.46362305 678.22119141 C-157.45913062 628.2855753 -179.2071184 569.91903665 -192.56048584 511.89678955 C-192.960293 510.17136152 -193.3713748 508.44855576 -193.78369141 506.72607422 C-196.94454675 493.49779605 -198.92750318 480.16090073 -200.6875 466.6875 C-200.79050415 465.90925873 -200.8935083 465.13101746 -200.99963379 464.32919312 C-204.14164528 440.29661371 -205.38569622 416.29003918 -205.3125 392.0625 C-205.31026428 390.21286652 -205.31026428 390.21286652 -205.3079834 388.3258667 C-205.24596308 359.62110401 -203.28471604 331.5558853 -198.53710938 303.22021484 C-197.99828449 299.98971471 -197.49090859 296.75523288 -196.984375 293.51953125 C-182.69415323 205.34141001 -144.7868154 118.95765304 -81.375 55.125 C-80.51672607 54.25746094 -79.65845215 53.38992188 -78.77416992 52.49609375 C-72.82574962 46.57656852 -66.57282217 41.2122519 -60 36 C-58.91638386 35.11883725 -57.83299103 34.23739967 -56.75 33.35546875 C-39.82358985 20.01149484 -20.25043123 7.58079615 0 0 Z " fill="#CE9D75" transform="translate(1474,621)"/>
<path d="M0 0 C0.99 0.495 0.99 0.495 2 1 C1.55994629 1.44988281 1.11989258 1.89976562 0.66650391 2.36328125 C-4.36251378 7.76436777 -7.54107888 13.32871515 -10.625 20 C-11.13224609 21.08176514 -11.63949219 22.16353027 -12.16210938 23.27807617 C-39.08417288 81.5254599 -57.21145022 143.2893155 -57.25 207.8125 C-57.25067474 208.83456543 -57.25134949 209.85663086 -57.25204468 210.90966797 C-57.18835913 272.32396538 -47.95715008 334.08107415 -21.0234375 389.85302734 C-20.03069582 391.93560615 -19.08669214 394.03349039 -18.15625 396.14453125 C-3.79957036 428.37138806 17.34188042 458.31716267 41.31640625 484.09375 C43.73574903 486.71382428 46.0893393 489.37888777 48.4375 492.0625 C67.08895818 512.80850696 90.90048817 529.28533826 115 543 C115.96486328 543.55977539 115.96486328 543.55977539 116.94921875 544.13085938 C143.16207551 559.28427874 173.88620496 569.93438224 203.98828125 573.47265625 C204.98214844 573.64667969 205.97601562 573.82070312 207 574 C207.33 574.66 207.66 575.32 208 576 C188.5860616 581.68486853 170.05125222 585.23255932 149.75 585.25 C149.04169037 585.25067474 148.33338074 585.25134949 147.60360718 585.25204468 C135.51872093 585.23383712 123.85916805 584.40785666 112 582 C110.7325293 581.75056641 110.7325293 581.75056641 109.43945312 581.49609375 C95.46970774 578.67497838 82.2222076 574.2803784 69 569 C67.8229248 568.53037842 67.8229248 568.53037842 66.62207031 568.05126953 C38.01418388 556.42970018 12.40539579 538.80728631 -9.33398438 516.98168945 C-10.98968034 515.32283932 -12.65827497 513.67778956 -14.328125 512.03320312 C-21.41922452 504.98310131 -27.74796317 497.58113206 -33.7752533 489.60632324 C-35.8113208 486.93590777 -37.91111985 484.31673169 -40 481.6875 C-49.14106673 469.90503681 -56.81338974 457.07679387 -63.91601562 443.98730469 C-64.98550532 442.02657358 -66.07714779 440.07954016 -67.171875 438.1328125 C-88.62154965 399.46230426 -102.14387788 353.9549801 -107 310 C-107.08400055 309.26563721 -107.1680011 308.53127441 -107.25454712 307.7746582 C-108.89411873 293.12423949 -109.34275438 278.57860342 -109.31567383 263.84277344 C-109.31251525 260.26726688 -109.33608363 256.69259271 -109.36132812 253.1171875 C-109.50038196 202.05968641 -97.80465766 150.21272019 -76 104 C-75.59346191 103.12939941 -75.18692383 102.25879883 -74.76806641 101.36181641 C-61.80127033 73.83025588 -45.31011025 48.65655675 -25 26 C-24.55092285 25.49452637 -24.1018457 24.98905273 -23.63916016 24.46826172 C-16.08584663 15.98352902 -8.08238701 7.97619507 0 0 Z " fill="#CFD1D2" transform="translate(1473,717)"/>
<path d="M0 0 C15.42409182 9.69745878 24.21721964 22.27565344 29.38671875 39.53125 C30.56448734 45.4807134 29.31799526 48.83044642 25.98046875 53.83984375 C24.23297181 56.18675434 22.39892382 58.45316265 20.54296875 60.71484375 C20.02186523 61.36227539 19.50076172 62.00970703 18.96386719 62.67675781 C15.50161965 66.97634796 11.98102445 71.22440651 8.43505859 75.45507812 C5.16373893 79.36208907 1.9149683 83.28761966 -1.33203125 87.21484375 C-1.94522217 87.9512207 -2.55841309 88.68759766 -3.19018555 89.44628906 C-3.7500415 90.12272461 -4.30989746 90.79916016 -4.88671875 91.49609375 C-5.38413574 92.09486328 -5.88155273 92.69363281 -6.39404297 93.31054688 C-7.5576217 94.55419089 -7.5576217 94.55419089 -7.45703125 95.71484375 C-6.64017097 95.84305763 -6.64017097 95.84305763 -5.80680847 95.97386169 C-0.14505052 96.86304201 5.51613586 97.75579449 11.17700195 98.65063477 C13.29046376 98.98423673 15.40407018 99.3169239 17.51782227 99.64868164 C20.55393227 100.1253673 23.58950908 100.6053274 26.625 101.0859375 C27.57196243 101.23389267 28.51892487 101.38184784 29.49458313 101.5342865 C30.37526962 101.67435623 31.25595612 101.81442596 32.16333008 101.95874023 C32.93832352 102.08087387 33.71331696 102.20300751 34.51179504 102.32884216 C36.54296875 102.71484375 36.54296875 102.71484375 39.54296875 103.71484375 C40.47598036 133.95133108 35.12026736 165.01372649 16.54296875 189.71484375 C16.10855469 190.31296875 15.67414063 190.91109375 15.2265625 191.52734375 C8.35205024 200.30165 -1.44497897 206.80752751 -12.45703125 208.71484375 C-15.89647229 209.00890391 -19.31834205 209.11714998 -22.76953125 209.15234375 C-23.61765381 209.16265625 -24.46577637 209.17296875 -25.33959961 209.18359375 C-33.49116226 209.06807116 -38.97265955 206.76958719 -44.76953125 200.90234375 C-66.60731105 178.43005219 -79.46540505 146.8273259 -79.66015625 115.5078125 C-79.66721588 114.74910355 -79.67427551 113.99039459 -79.68154907 113.20869446 C-79.90998837 81.45339994 -79.90998837 81.45339994 -76.45703125 67.71484375 C-76.24771973 66.87115234 -76.0384082 66.02746094 -75.82275391 65.15820312 C-69.66997195 40.99993397 -60.61871982 12.07382843 -38.6953125 -2.12890625 C-26.59665602 -8.37882303 -11.72478543 -6.13267791 0 0 Z " fill="#000000" transform="translate(1767.45703125,888.28515625)"/>
<path d="M0 0 C25.08277886 8.68056461 49.95563551 17.89339799 74.81410217 27.19400024 C87.24170218 31.84210667 99.68212136 36.45547629 112.125 41.0625 C113.23701782 41.47428497 114.34903564 41.88606995 115.49475098 42.31033325 C132.32213324 48.54032645 149.15780509 54.74766784 166 60.9375 C167.02111877 61.31294952 168.04223755 61.68839905 169.09429932 62.07522583 C180.04514917 66.10066742 191.00139714 70.10661658 202 74 C198.81436277 76.12375815 197.0255617 76.51303914 193.29907227 77.12573242 C192.11809967 77.32350281 190.93712708 77.52127319 189.72036743 77.72503662 C188.43206024 77.93307922 187.14375305 78.14112183 185.81640625 78.35546875 C184.46306412 78.57924336 183.10982499 78.8036417 181.75668335 79.02862549 C178.118162 79.6315974 174.47818857 80.2253213 170.83781052 80.81696701 C167.78482275 81.31414429 164.73264466 81.81619416 161.68046284 82.31829166 C154.11896419 83.56218977 146.55600172 84.7968938 138.99200916 86.02552891 C134.95205877 86.68189542 130.91266974 87.34151705 126.87402344 88.00585938 C78.61594746 95.94274915 30.17940174 102.94318715 -18.25 109.75 C-19.11754913 109.87287384 -19.98509827 109.99574768 -20.87893677 110.12234497 C-23.23647386 110.45527861 -25.59461723 110.78339839 -27.953125 111.109375 C-29.21286133 111.28436523 -30.47259766 111.45935547 -31.77050781 111.63964844 C-34.55344243 111.95017244 -37.20452137 112.07555348 -40 112 C-39.34513068 105.94053267 -37.12063679 100.52639574 -34.984375 94.8671875 C-34.57673416 93.77375534 -34.16909332 92.68032318 -33.74909973 91.55375671 C-32.87442528 89.20898188 -31.99737996 86.86509034 -31.11819458 84.52200317 C-28.82160779 78.40031593 -26.54300171 72.2719341 -24.26171875 66.14453125 C-23.8084874 64.92867844 -23.35525604 63.71282562 -22.88829041 62.46012878 C-19.05874103 52.18034653 -15.28645009 41.88095691 -11.5625 31.5625 C-11.30827271 30.86066589 -11.05404541 30.15883179 -10.79211426 29.43572998 C-7.71764069 20.94525127 -4.78189198 12.42092194 -1.99584961 3.83178711 C-1 1 -1 1 0 0 Z " fill="#EE5927" transform="translate(1878,1311)"/>
<path d="M0 0 C6.04059685 4.20585286 9.37700892 9.30220064 12.875 15.6875 C13.3596875 16.54150391 13.844375 17.39550781 14.34375 18.27539062 C19.09014436 26.7141616 20.41798594 34.11127103 18.421875 43.80859375 C13.99266727 57.35794286 4.1450988 68.65762342 -4.77246094 79.48925781 C-6.2342198 81.28825619 -7.63171309 83.12907708 -9 85 C-0.0898188 87.33086373 8.80605588 88.78522747 17.92651367 89.99731445 C18.79896729 90.11421631 19.6714209 90.23111816 20.5703125 90.3515625 C21.74231201 90.50359131 21.74231201 90.50359131 22.93798828 90.65869141 C25 91 25 91 28 92 C28.72250022 119.57542491 25.09987693 152.61099924 6 174 C-1.48684399 181.48684399 -10.61427624 184.85478251 -21.0625 185.9375 C-26.9860615 185.69777362 -30.09878819 183.17343257 -34.05566406 178.89599609 C-39.07246812 173.05278759 -43.15951409 166.65684224 -47 160 C-47.55429688 159.04609375 -48.10859375 158.0921875 -48.6796875 157.109375 C-67.83710706 121.57385063 -64.73799008 77.4749028 -53.84936523 39.95947266 C-51.79159962 33.20280821 -49.52793501 26.53278588 -47 19.9375 C-46.70448242 19.14674072 -46.40896484 18.35598145 -46.10449219 17.54125977 C-42.54360407 8.7499617 -36.51671945 2.19886169 -28 -2 C-18.68155472 -5.69221417 -8.64943601 -5.08630357 0 0 Z " fill="#010101" transform="translate(2146,897)"/>
<path d="M0 0 C2.12109375 2.4140625 2.12109375 2.4140625 4.4375 5.625 C12.5174321 16.53025296 21.57670508 26.56668299 30.8125 36.5 C31.41022217 37.14622314 32.00794434 37.79244629 32.6237793 38.45825195 C36.83996778 42.94765271 41.32264986 46.99897181 46 51 C47.08387067 51.96016718 48.16601058 52.92229302 49.24609375 53.88671875 C75.18463343 76.77912412 106.60977031 95.45809045 141.05078125 101.32421875 C144 102 144 102 146 104 C139.5313357 107.94048014 132.66792249 110.17186298 125.4375 112.25 C124.55167236 112.50797363 123.66584473 112.76594727 122.75317383 113.03173828 C102.98413681 118.54381743 78.82952607 118.06981698 59 113 C58.32291992 112.83371094 57.64583984 112.66742187 56.94824219 112.49609375 C29.99247704 105.76649912 5.500109 91.83058061 -14.78125 73.0078125 C-16.33375486 71.60290494 -17.94003642 70.25621929 -19.58203125 68.95703125 C-25.36746328 64.27447641 -29.76921913 58.1023757 -34.3125 52.25 C-34.74522217 51.69513916 -35.17794434 51.14027832 -35.6237793 50.56860352 C-37.74072167 47.80953169 -39.50485215 45.13269073 -41 42 C-40.56284668 41.53126465 -40.12569336 41.0625293 -39.67529297 40.57958984 C-35.14484849 35.58423342 -31.58058823 30.39944683 -28.125 24.625 C-10.34462459 -4.29151998 -10.34462459 -4.29151998 0 0 Z " fill="#CFD1D2" transform="translate(1942,1159)"/>
<path d="M0 0 C1.65853338 32.0035515 -7.43740477 66.83228001 -28.4375 91.375 C-36.39363462 99.83177575 -44.9640989 103.62685837 -56 107 C-56.79792969 107.24878906 -57.59585937 107.49757813 -58.41796875 107.75390625 C-79.03144606 112.97112263 -103.74184514 107.80356726 -121.91796875 97.31640625 C-122.60503906 96.88199219 -123.29210938 96.44757813 -124 96 C-123.5970416 79.44207285 -114.33620365 66.35411234 -103 55 C-84.01797194 37.60703061 -59.18440327 27.31019258 -35.959198 16.8425293 C-26.18720931 12.43740968 -16.54880324 7.91410262 -7.15136719 2.74169922 C-2.16667748 0 -2.16667748 0 0 0 Z " fill="#010100" transform="translate(1334,1298)"/>
<path d="M0 0 C0.74097427 0.06719742 1.48194855 0.13439484 2.24537659 0.20362854 C2.97503128 0.26981888 3.70468597 0.33600922 4.45645142 0.40420532 C13.52518172 1.21140809 22.60837289 1.62833183 31.70631409 1.93800354 C29.60854545 7.92250087 25.78578266 12.17360574 21.70631409 16.93800354 C21.19326721 17.5374176 20.68022034 18.13683167 20.15162659 18.75440979 C5.85707712 34.12290209 -14.64596087 44.41777932 -34.29368591 50.93800354 C-34.96947693 51.16391174 -35.64526794 51.38981995 -36.34153748 51.62257385 C-45.5411247 54.55976428 -54.5323148 55.32515217 -64.16868591 55.43800354 C-65.2025946 55.45661438 -66.2365033 55.47522522 -67.30174255 55.49440002 C-78.15382607 55.40482838 -87.94881919 51.97898484 -96.29368591 44.93800354 C-101.31138378 39.74110218 -104.0728797 33.74549996 -106.29368591 26.93800354 C-106.70618591 25.72112854 -107.11868591 24.50425354 -107.54368591 23.25050354 C-107.26068892 19.50079333 -106.89622035 19.01251504 -104.29368591 16.50050354 C-74.31351246 -6.73020678 -35.50043109 -3.22052781 0 0 Z " fill="#010101" transform="translate(1270.293685913086,1249.061996459961)"/>
<path d="M0 0 C0.66 0.33 1.32 0.66 2 1 C1.31035156 1.59425781 0.62070313 2.18851563 -0.08984375 2.80078125 C-5.84841343 7.8800135 -10.8415146 13.02797367 -15.6171875 19.0703125 C-19.71775142 24.11198945 -24.1672819 28.82601375 -28.63232422 33.54443359 C-29.83433517 34.82368909 -31.01469387 36.12321727 -32.19140625 37.42578125 C-37.36357329 42.97410589 -43.08234662 47.34569038 -50.7890625 48.37109375 C-53.27942212 48.4320968 -55.54928372 48.44772701 -58 48 C-58.66 47.34 -59.32 46.68 -60 46 C-59.34 46 -58.68 46 -58 46 C-57.59587891 45.12021484 -57.59587891 45.12021484 -57.18359375 44.22265625 C-55.09208921 40.29504542 -52.00853804 37.24878427 -49 34 C-48.23816406 33.16082031 -47.47632813 32.32164062 -46.69140625 31.45703125 C-35.96037588 20.13799921 -23.29783001 11.9559649 -9.5625 4.6875 C-8.6442041 4.20087891 -7.7259082 3.71425781 -6.77978516 3.21289062 C-1.89072486 0.70795047 -1.89072486 0.70795047 0 0 Z " fill="#CE9D76" transform="translate(1901,641)"/>
<path d="M0 0 C3.2063121 1.77770403 5.59245753 3.28478081 7.6875 6.3125 C8.08324219 6.86550781 8.47898437 7.41851562 8.88671875 7.98828125 C11.71307404 13.09555485 12.38597207 18.05216112 12.375 23.8125 C12.37693359 24.864375 12.37693359 24.864375 12.37890625 25.9375 C12.26186482 31.69381041 11.02687801 36.13537463 8 41 C4 41 4 41 2.33203125 39.57421875 C1.83058594 38.95160156 1.32914063 38.32898438 0.8125 37.6875 C0.30332031 37.07261719 -0.20585938 36.45773437 -0.73046875 35.82421875 C-5.51743933 28.94571025 -3.67151365 15.91976571 -2.328125 8.078125 C-1.63576228 5.34786448 -0.89531764 2.66996512 0 0 Z " fill="#E8BD99" transform="translate(718,478)"/>
<path d="M0 0 C0.66 0.33 1.32 0.66 2 1 C-2.39570137 6.15559656 -6.86004416 10.91718091 -12.03515625 15.29296875 C-15.18661414 18.03091527 -18.09072575 21.00890241 -21 24 C-21 21 -21 21 -19.07226562 18.73168945 C-18.19248047 17.86761475 -17.31269531 17.00354004 -16.40625 16.11328125 C-15.94013306 15.65140915 -15.47401611 15.18953705 -14.99377441 14.71366882 C-13.5027371 13.23943048 -12.00161128 11.77595912 -10.5 10.3125 C-9.48759946 9.31514472 -8.47587189 8.31710583 -7.46484375 7.31835938 C-4.98432371 4.87092436 -2.49464911 2.43304113 0 0 Z " fill="#C5C7C7" transform="translate(1473,717)"/>
<path d="M0 0 C0.66 0.33 1.32 0.66 2 1 C-2.455 3.97 -2.455 3.97 -7 7 C-7.33 6.34 -7.66 5.68 -8 5 C-6.35197949 1.70395897 -3.32254422 1.22409524 0 0 Z " fill="#C49671" transform="translate(1474,621)"/>
</svg>
